FiraSystem-Bold.ufo
<glyph name="numbersign" format="1">
  <advance width="556"/>
  <unicode hex="0023"/>
  <outline>
    <contour>
      <point x="376" y="693" type="line"/>
      <point x="286" y="0" type="line"/>
      <point x="411" y="0" type="line"/>
      <point x="501" y="693" type="line"/>
    </contour>
    <contour>
      <point x="17" y="246" type="line"/>
      <point x="17" y="145" type="line"/>
      <point x="502" y="145" type="line"/>
      <point x="502" y="246" type="line"/>
    </contour>
    <contour>
      <point x="145" y="693" type="line"/>
      <point x="55" y="0" type="line"/>
      <point x="179" y="0" type="line"/>
      <point x="270" y="693" type="line"/>
    </contour>
    <contour>
      <point x="54" y="551" type="line"/>
      <point x="54" y="450" type="line"/>
      <point x="539" y="450" type="line"/>
      <point x="539" y="551" type="line"/>
    </contour>
  </outline>
</glyph>
<glyph name="dollar" format="1">
  <advance width="556"/>
  <unicode hex="0024"/>
  <outline>
    <contour>
      <point x="225" y="4" type="line"/>
      <point x="225" y="-160" type="line"/>
      <point x="335" y="-160" type="line"/>
      <point x="335" y="6" type="line"/>
    </contour>
    <contour>
      <point x="225" y="851" type="line"/>
      <point x="225" y="674" type="line"/>
      <point x="335" y="678" type="line"/>
      <point x="335" y="851" type="line"/>
    </contour>
    <contour>
      <point x="140" y="700"/>
      <point x="41" y="624"/>
      <point x="41" y="508" type="curve" smooth="yes"/>
      <point x="41" y="406"/>
      <point x="97" y="346"/>
      <point x="243" y="300" type="curve" smooth="yes"/>
      <point x="342" y="269"/>
      <point x="367" y="246"/>
      <point x="367" y="194" type="curve" smooth="yes"/>
      <point x="367" y="138"/>
      <point x="323" y="106"/>
      <point x="257" y="106" type="curve" smooth="yes"/>
      <point x="190" y="106"/>
      <point x="136" y="131"/>
      <point x="89" y="174" type="curve"/>
      <point x="13" y="88" type="line"/>
      <point x="68" y="34"/>
      <point x="149" y="-7"/>
      <point x="261" y="-7" type="curve" smooth="yes"/>
      <point x="424" y="-7"/>
      <point x="521" y="81"/>
      <point x="521" y="205" type="curve" smooth="yes"/>
      <point x="521" y="330"/>
      <point x="447" y="382"/>
      <point x="324" y="421" type="curve" smooth="yes"/>
      <point x="218" y="455"/>
      <point x="193" y="473"/>
      <point x="193" y="518" type="curve" smooth="yes"/>
      <point x="193" y="563"/>
      <point x="230" y="588"/>
      <point x="286" y="588" type="curve" smooth="yes"/>
      <point x="340" y="588"/>
      <point x="386" y="570"/>
      <point x="431" y="531" type="curve"/>
      <point x="502" y="614" type="line"/>
      <point x="445" y="670"/>
      <point x="376" y="700"/>
      <point x="276" y="700" type="curve" smooth="yes"/>
    </contour>
    <contour>
      <point x="279" y="9" type="move" name="bottom"/>
    </contour>
  </outline>
</glyph>
<glyph name="percent" format="1">
  <advance width="900"/>
  <unicode hex="0025"/>
  <outline>
    <contour>
      <point x="166" y="20" type="line"/>
      <point x="259" y="-39" type="line"/>
      <point x="723" y="680" type="line"/>
      <point x="629" y="739" type="line"/>
    </contour>
    <contour>
      <point x="277" y="619"/>
      <point x="290" y="574"/>
      <point x="290" y="531" type="curve" smooth="yes"/>
      <point x="290" y="487"/>
      <point x="277" y="443"/>
      <point x="224" y="443" type="curve" smooth="yes"/>
      <point x="171" y="443"/>
      <point x="157" y="488"/>
      <point x="157" y="531" type="curve" smooth="yes"/>
      <point x="157" y="575"/>
      <point x="171" y="619"/>
      <point x="224" y="619" type="curve" smooth="yes"/>
    </contour>
    <contour>
      <point x="125" y="709"/>
      <point x="48" y="640"/>
      <point x="48" y="531" type="curve" smooth="yes"/>
      <point x="48" y="421"/>
      <point x="125" y="353"/>
      <point x="224" y="353" type="curve" smooth="yes"/>
      <point x="323" y="353"/>
      <point x="400" y="421"/>
      <point x="400" y="531" type="curve" smooth="yes"/>
      <point x="400" y="640"/>
      <point x="323" y="709"/>
      <point x="224" y="709" type="curve" smooth="yes"/>
    </contour>
    <contour>
      <point x="718" y="249"/>
      <point x="731" y="205"/>
      <point x="731" y="162" type="curve" smooth="yes"/>
      <point x="731" y="118"/>
      <point x="718" y="74"/>
      <point x="665" y="74" type="curve" smooth="yes"/>
      <point x="612" y="74"/>
      <point x="598" y="119"/>
      <point x="598" y="162" type="curve" smooth="yes"/>
      <point x="598" y="206"/>
      <point x="612" y="249"/>
      <point x="665" y="249" type="curve" smooth="yes"/>
    </contour>
    <contour>
      <point x="566" y="340"/>
      <point x="488" y="271"/>
      <point x="488" y="162" type="curve" smooth="yes"/>
      <point x="488" y="52"/>
      <point x="566" y="-16"/>
      <point x="665" y="-16" type="curve" smooth="yes"/>
      <point x="764" y="-16"/>
      <point x="840" y="52"/>
      <point x="840" y="162" type="curve" smooth="yes"/>
      <point x="840" y="271"/>
      <point x="764" y="340"/>
      <point x="665" y="340" type="curve" smooth="yes"/>
    </contour>
  </outline>
</glyph>
<glyph name="ampersand" format="1">
  <advance width="787"/>
  <unicode hex="0026"/>
  <outline>
    <contour>
      <point x="170" y="709"/>
      <point x="102" y="630"/>
      <point x="102" y="544" type="curve" smooth="yes"/>
      <point x="102" y="480"/>
      <point x="130" y="439"/>
      <point x="198" y="373" type="curve"/>
      <point x="109" y="315"/>
      <point x="62" y="260"/>
      <point x="62" y="177" type="curve" smooth="yes"/>
      <point x="62" y="60"/>
      <point x="161" y="-16"/>
      <point x="307" y="-16" type="curve" smooth="yes"/>
      <point x="392" y="-16"/>
      <point x="464" y="8"/>
      <point x="526" y="61" type="curve"/>
      <point x="607" y="-16" type="line"/>
      <point x="733" y="46" type="line"/>
      <point x="613" y="152" type="line"/>
      <point x="648" y="201"/>
      <point x="679" y="263"/>
      <point x="704" y="340" type="curve"/>
      <point x="578" y="377" type="line"/>
      <point x="565" y="320"/>
      <point x="548" y="271"/>
      <point x="529" y="230" type="curve"/>
      <point x="388" y="362" type="line"/>
      <point x="466" y="412"/>
      <point x="522" y="466"/>
      <point x="522" y="550" type="curve" smooth="yes"/>
      <point x="522" y="640"/>
      <point x="443" y="709"/>
      <point x="311" y="709" type="curve" smooth="yes"/>
    </contour>
    <contour>
      <point x="450" y="134" type="line"/>
      <point x="416" y="106"/>
      <point x="378" y="91"/>
      <point x="332" y="91" type="curve" smooth="yes"/>
      <point x="264" y="91"/>
      <point x="219" y="128"/>
      <point x="219" y="185" type="curve" smooth="yes"/>
      <point x="219" y="228"/>
      <point x="239" y="261"/>
      <point x="283" y="292" type="curve"/>
    </contour>
    <contour>
      <point x="354" y="611"/>
      <point x="379" y="586"/>
      <point x="379" y="546" type="curve" smooth="yes"/>
      <point x="379" y="502"/>
      <point x="353" y="472"/>
      <point x="306" y="440" type="curve"/>
      <point x="263" y="482"/>
      <point x="246" y="507"/>
      <point x="246" y="544" type="curve" smooth="yes"/>
      <point x="246" y="584"/>
      <point x="271" y="611"/>
      <point x="313" y="611" type="curve" smooth="yes"/>
    </contour>
  </outline>
</glyph>
<glyph name="parenleft" format="1">
  <advance width="325"/>
  <unicode hex="0028"/>
  <outline>
    <contour>
      <point x="113" y="719"/>
      <point x="21" y="589"/>
      <point x="21" y="350" type="curve" smooth="yes"/>
      <point x="21" y="111"/>
      <point x="113" y="-19"/>
      <point x="213" y="-157" type="curve"/>
      <point x="309" y="-92" type="line"/>
      <point x="217" y="40"/>
      <point x="173" y="162"/>
      <point x="173" y="350" type="curve" smooth="yes"/>
      <point x="173" y="539"/>
      <point x="217" y="660"/>
      <point x="309" y="792" type="curve"/>
      <point x="213" y="857" type="line"/>
    </contour>
  </outline>
</glyph>
<glyph name="parenright" format="1">
  <advance width="325"/>
  <unicode hex="0029"/>
  <outline>
    <contour>
      <point x="15" y="792" type="line"/>
      <point x="108" y="660"/>
      <point x="152" y="539"/>
      <point x="152" y="350" type="curve" smooth="yes"/>
      <point x="152" y="162"/>
      <point x="108" y="40"/>
      <point x="15" y="-92" type="curve"/>
      <point x="111" y="-157" type="line"/>
      <point x="211" y="-19"/>
      <point x="304" y="111"/>
      <point x="304" y="350" type="curve" smooth="yes"/>
      <point x="304" y="589"/>
      <point x="211" y="719"/>
      <point x="111" y="857" type="curve"/>
    </contour>
  </outline>
</glyph>
<glyph name="asterisk" format="1">
  <advance width="448"/>
  <unicode hex="002A"/>
  <outline>
    <contour>
      <point x="217" y="474" type="line"/>
      <point x="292" y="333" type="line"/>
      <point x="397" y="410" type="line"/>
      <point x="286" y="524" type="line"/>
      <point x="224" y="537" type="line"/>
    </contour>
    <contour>
      <point x="159" y="742" type="line"/>
      <point x="181" y="582" type="line"/>
      <point x="224" y="537" type="line"/>
      <point x="267" y="581" type="line"/>
      <point x="289" y="742" type="line"/>
    </contour>
    <contour>
      <point x="257" y="589" type="line"/>
      <point x="224" y="537" type="line"/>
      <point x="281" y="511" type="line"/>
      <point x="439" y="539" type="line"/>
      <point x="398" y="660" type="line"/>
    </contour>
    <contour>
      <point x="9" y="538" type="line"/>
      <point x="166" y="511" type="line"/>
      <point x="224" y="537" type="line"/>
      <point x="192" y="590" type="line"/>
      <point x="49" y="659" type="line"/>
    </contour>
    <contour>
      <point x="162" y="524" type="line"/>
      <point x="51" y="409" type="line"/>
      <point x="157" y="333" type="line"/>
      <point x="230" y="474" type="line"/>
      <point x="224" y="537" type="line"/>
    </contour>
  </outline>
</glyph>
<glyph name="comma" format="1">
  <advance width="240"/>
  <unicode hex="002C"/>
  <outline>
    <contour>
      <point x="70" y="159"/>
      <point x="32" y="121"/>
      <point x="32" y="72" type="curve" smooth="yes"/>
      <point x="32" y="42"/>
      <point x="46" y="16"/>
      <point x="70" y="-1" type="curve"/>
      <point x="28" y="-176" type="line"/>
      <point x="113" y="-176" type="line"/>
      <point x="178" y="-30" type="line" smooth="yes"/>
      <point x="198" y="17"/>
      <point x="208" y="43"/>
      <point x="208" y="72" type="curve" smooth="yes"/>
      <point x="208" y="121"/>
      <point x="170" y="159"/>
      <point x="120" y="159" type="curve" smooth="yes"/>
    </contour>
  </outline>
</glyph>
<glyph name="hyphen" format="1">
  <advance width="407"/>
  <unicode hex="002D"/>
  <outline>
    <contour>
      <point x="361" y="254" type="line"/>
      <point x="361" y="372" type="line"/>
      <point x="46" y="372" type="line"/>
      <point x="46" y="254" type="line"/>
    </contour>
  </outline>
</glyph>
<glyph name="period" format="1">
  <advance width="240"/>
  <unicode hex="002E"/>
  <outline>
    <contour>
      <point x="71" y="159"/>
      <point x="32" y="120"/>
      <point x="32" y="72" type="curve" smooth="yes"/>
      <point x="32" y="23"/>
      <point x="71" y="-16"/>
      <point x="120" y="-16" type="curve" smooth="yes"/>
      <point x="169" y="-16"/>
      <point x="208" y="23"/>
      <point x="208" y="72" type="curve" smooth="yes"/>
      <point x="208" y="120"/>
      <point x="169" y="159"/>
      <point x="120" y="159" type="curve" smooth="yes"/>
    </contour>
  </outline>
</glyph>
<glyph name="zero" format="1">
  <advance width="556"/>
  <unicode hex="0030"/>
  <outline>
    <contour>
      <point x="119" y="709"/>
      <point x="32" y="584"/>
      <point x="32" y="347" type="curve" smooth="yes"/>
      <point x="32" y="111"/>
      <point x="119" y="-16"/>
      <point x="278" y="-16" type="curve" smooth="yes"/>
      <point x="437" y="-16"/>
      <point x="524" y="111"/>
      <point x="524" y="347" type="curve" smooth="yes"/>
      <point x="524" y="584"/>
      <point x="437" y="709"/>
      <point x="278" y="709" type="curve" smooth="yes"/>
    </contour>
    <contour>
      <point x="340" y="598"/>
      <point x="370" y="543"/>
      <point x="370" y="347" type="curve" smooth="yes"/>
      <point x="370" y="152"/>
      <point x="340" y="95"/>
      <point x="278" y="95" type="curve" smooth="yes"/>
      <point x="215" y="95"/>
      <point x="186" y="155"/>
      <point x="186" y="347" type="curve" smooth="yes"/>
      <point x="186" y="538"/>
      <point x="215" y="598"/>
      <point x="278" y="598" type="curve" smooth="yes"/>
    </contour>
  </outline>
</glyph>
<glyph name="one" format="1">
  <advance width="556"/>
  <unicode hex="0031"/>
  <outline>
    <contour>
      <point x="263" y="693" type="line"/>
      <point x="37" y="556" type="line"/>
      <point x="102" y="456" type="line"/>
      <point x="249" y="544" type="line"/>
      <point x="249" y="73" type="line"/>
      <point x="396" y="73" type="line"/>
      <point x="396" y="693" type="line"/>
    </contour>
    <contour>
      <point x="87" y="114" type="line"/>
      <point x="87" y="0" type="line"/>
      <point x="527" y="0" type="line"/>
      <point x="527" y="114" type="line"/>
    </contour>
  </outline>
</glyph>
<glyph name="two" format="1">
  <advance width="556"/>
  <unicode hex="0032"/>
  <outline>
    <contour>
      <point x="150" y="709"/>
      <point x="76" y="666"/>
      <point x="21" y="595" type="curve"/>
      <point x="113" y="524" type="line"/>
      <point x="153" y="572"/>
      <point x="189" y="594"/>
      <point x="243" y="594" type="curve" smooth="yes"/>
      <point x="304" y="594"/>
      <point x="340" y="556"/>
      <point x="340" y="497" type="curve" smooth="yes"/>
      <point x="340" y="410"/>
      <point x="274" y="334"/>
      <point x="37" y="107" type="curve"/>
      <point x="37" y="0" type="line"/>
      <point x="494" y="0" type="line"/>
      <point x="510" y="116" type="line"/>
      <point x="209" y="116" type="line"/>
      <point x="428" y="309"/>
      <point x="494" y="403"/>
      <point x="494" y="510" type="curve" smooth="yes"/>
      <point x="494" y="618"/>
      <point x="414" y="709"/>
      <point x="259" y="709" type="curve" smooth="yes"/>
    </contour>
  </outline>
</glyph>
<glyph name="three" format="1">
  <advance width="556"/>
  <unicode hex="0033"/>
  <outline>
    <contour>
      <point x="161" y="709"/>
      <point x="84" y="678"/>
      <point x="22" y="618" type="curve"/>
      <point x="99" y="537" type="line"/>
      <point x="139" y="574"/>
      <point x="182" y="597"/>
      <point x="238" y="597" type="curve" smooth="yes"/>
      <point x="299" y="597"/>
      <point x="342" y="565"/>
      <point x="342" y="510" type="curve" smooth="yes"/>
      <point x="342" y="447"/>
      <point x="296" y="416"/>
      <point x="234" y="416" type="curve" smooth="yes"/>
      <point x="187" y="416" type="line"/>
      <point x="170" y="312" type="line"/>
      <point x="235" y="312" type="line" smooth="yes"/>
      <point x="310" y="312"/>
      <point x="356" y="282"/>
      <point x="356" y="205" type="curve" smooth="yes"/>
      <point x="356" y="137"/>
      <point x="307" y="99"/>
      <point x="235" y="99" type="curve" smooth="yes"/>
      <point x="181" y="99"/>
      <point x="130" y="119"/>
      <point x="90" y="165" type="curve"/>
      <point x="4" y="86" type="line"/>
      <point x="61" y="20"/>
      <point x="144" y="-16"/>
      <point x="245" y="-16" type="curve" smooth="yes"/>
      <point x="408" y="-16"/>
      <point x="510" y="78"/>
      <point x="510" y="195" type="curve" smooth="yes"/>
      <point x="510" y="305"/>
      <point x="442" y="356"/>
      <point x="347" y="369" type="curve"/>
      <point x="432" y="389"/>
      <point x="488" y="444"/>
      <point x="488" y="532" type="curve" smooth="yes"/>
      <point x="488" y="629"/>
      <point x="401" y="709"/>
      <point x="254" y="709" type="curve" smooth="yes"/>
    </contour>
  </outline>
</glyph>
<glyph name="four" format="1">
  <advance width="556"/>
  <unicode hex="0034"/>
  <outline>
    <contour>
      <point x="26" y="249" type="line"/>
      <point x="26" y="148" type="line"/>
      <point x="530" y="148" type="line"/>
      <point x="530" y="261" type="line"/>
      <point x="181" y="261" type="line"/>
      <point x="346" y="662" type="line"/>
      <point x="219" y="710" type="line"/>
    </contour>
    <contour>
      <point x="329" y="434" type="line"/>
      <point x="312" y="245" type="line"/>
      <point x="312" y="0" type="line"/>
      <point x="458" y="0" type="line"/>
      <point x="458" y="434" type="line"/>
    </contour>
  </outline>
</glyph>
<glyph name="five" format="1">
  <advance width="556"/>
  <unicode hex="0035"/>
  <outline>
    <contour>
      <point x="69" y="693" type="line"/>
      <point x="69" y="324" type="line"/>
      <point x="172" y="324" type="line"/>
      <point x="207" y="341"/>
      <point x="231" y="348"/>
      <point x="261" y="348" type="curve" smooth="yes"/>
      <point x="318" y="348"/>
      <point x="360" y="318"/>
      <point x="360" y="227" type="curve" smooth="yes"/>
      <point x="360" y="141"/>
      <point x="317" y="97"/>
      <point x="243" y="97" type="curve" smooth="yes"/>
      <point x="189" y="97"/>
      <point x="143" y="121"/>
      <point x="108" y="163" type="curve"/>
      <point x="23" y="84" type="line"/>
      <point x="75" y="25"/>
      <point x="149" y="-16"/>
      <point x="248" y="-16" type="curve" smooth="yes"/>
      <point x="411" y="-16"/>
      <point x="514" y="80"/>
      <point x="514" y="227" type="curve" smooth="yes"/>
      <point x="514" y="372"/>
      <point x="431" y="452"/>
      <point x="320" y="452" type="curve" smooth="yes"/>
      <point x="286" y="452"/>
      <point x="250" y="445"/>
      <point x="213" y="427" type="curve"/>
      <point x="213" y="585" type="line"/>
      <point x="466" y="585" type="line"/>
      <point x="483" y="693" type="line"/>
    </contour>
  </outline>
</glyph>
<glyph name="six" format="1">
  <advance width="556"/>
  <unicode hex="0036"/>
  <outline>
    <contour>
      <point x="144" y="709"/>
      <point x="36" y="557"/>
      <point x="36" y="320" type="curve" smooth="yes"/>
      <point x="36" y="115"/>
      <point x="111" y="-16"/>
      <point x="288" y="-16" type="curve" smooth="yes"/>
      <point x="435" y="-16"/>
      <point x="528" y="92"/>
      <point x="528" y="235" type="curve" smooth="yes"/>
      <point x="528" y="383"/>
      <point x="444" y="463"/>
      <point x="334" y="463" type="curve"/>
      <point x="273" y="463"/>
      <point x="223" y="439"/>
      <point x="180" y="383" type="curve"/>
      <point x="180" y="286" type="line"/>
      <point x="209" y="331"/>
      <point x="247" y="358"/>
      <point x="294" y="358" type="curve"/>
      <point x="346" y="358"/>
      <point x="377" y="328"/>
      <point x="377" y="233" type="curve" smooth="yes"/>
      <point x="377" y="146"/>
      <point x="348" y="92"/>
      <point x="289" y="92" type="curve" smooth="yes"/>
      <point x="216" y="92"/>
      <point x="191" y="156"/>
      <point x="192" y="327" type="curve"/>
      <point x="190" y="373" type="line"/>
      <point x="193" y="522"/>
      <point x="245" y="602"/>
      <point x="327" y="602" type="curve"/>
      <point x="364" y="602"/>
      <point x="393" y="591"/>
      <point x="420" y="575" type="curve"/>
      <point x="475" y="665" type="line"/>
      <point x="437" y="691"/>
      <point x="387" y="709"/>
      <point x="324" y="709" type="curve"/>
    </contour>
  </outline>
</glyph>
<glyph name="seven" format="1">
  <advance width="556"/>
  <unicode hex="0037"/>
  <outline>
    <contour>
      <point x="51" y="693" type="line"/>
      <point x="51" y="579" type="line"/>
      <point x="350" y="579" type="line"/>
      <point x="105" y="29" type="line"/>
      <point x="239" y="-21" type="line"/>
      <point x="505" y="590" type="line"/>
      <point x="505" y="693" type="line"/>
    </contour>
  </outline>
</glyph>
<glyph name="eight" format="1">
  <advance width="556"/>
  <unicode hex="0038"/>
  <outline>
    <contour>
      <point x="150" y="709"/>
      <point x="52" y="638"/>
      <point x="52" y="522" type="curve" smooth="yes"/>
      <point x="52" y="450"/>
      <point x="84" y="393"/>
      <point x="167" y="350" type="curve"/>
      <point x="226" y="324" type="line"/>
      <point x="273" y="305" type="line"/>
      <point x="354" y="279"/>
      <point x="382" y="250"/>
      <point x="382" y="188" type="curve" smooth="yes"/>
      <point x="382" y="133"/>
      <point x="346" y="92"/>
      <point x="280" y="92" type="curve" smooth="yes"/>
      <point x="216" y="92"/>
      <point x="174" y="129"/>
      <point x="174" y="191" type="curve" smooth="yes"/>
      <point x="174" y="255"/>
      <point x="201" y="298"/>
      <point x="257" y="325" type="curve"/>
      <point x="166" y="365" type="line"/>
      <point x="80" y="331"/>
      <point x="26" y="274"/>
      <point x="26" y="184" type="curve" smooth="yes"/>
      <point x="26" y="71"/>
      <point x="119" y="-16"/>
      <point x="275" y="-16" type="curve" smooth="yes"/>
      <point x="435" y="-16"/>
      <point x="530" y="73"/>
      <point x="530" y="187" type="curve" smooth="yes"/>
      <point x="530" y="277"/>
      <point x="481" y="337"/>
      <point x="378" y="381" type="curve"/>
      <point x="318" y="404" type="line"/>
      <point x="289" y="415" type="line"/>
      <point x="224" y="439"/>
      <point x="195" y="465"/>
      <point x="195" y="520" type="curve" smooth="yes"/>
      <point x="195" y="580"/>
      <point x="228" y="607"/>
      <point x="278" y="607" type="curve" smooth="yes"/>
      <point x="330" y="607"/>
      <point x="362" y="575"/>
      <point x="362" y="521" type="curve" smooth="yes"/>
      <point x="362" y="469"/>
      <point x="343" y="434"/>
      <point x="281" y="398" type="curve"/>
      <point x="379" y="363" type="line"/>
      <point x="466" y="404"/>
      <point x="504" y="460"/>
      <point x="504" y="528" type="curve" smooth="yes"/>
      <point x="504" y="645"/>
      <point x="406" y="709"/>
      <point x="279" y="709" type="curve" smooth="yes"/>
    </contour>
  </outline>
</glyph>
<glyph name="nine" format="1">
  <advance width="556"/>
  <unicode hex="0039"/>
  <outline>
    <contour>
      <point x="135" y="709"/>
      <point x="28" y="619"/>
      <point x="28" y="469" type="curve"/>
      <point x="28" y="326"/>
      <point x="114" y="242"/>
      <point x="217" y="242" type="curve" smooth="yes"/>
      <point x="284" y="242"/>
      <point x="330" y="271"/>
      <point x="364" y="313" type="curve"/>
      <point x="372" y="424" type="line"/>
      <point x="347" y="376"/>
      <point x="309" y="348"/>
      <point x="264" y="348" type="curve" smooth="yes"/>
      <point x="216" y="348"/>
      <point x="178" y="378"/>
      <point x="178" y="473" type="curve"/>
      <point x="178" y="561"/>
      <point x="211" y="602"/>
      <point x="270" y="602" type="curve" smooth="yes"/>
      <point x="344" y="602"/>
      <point x="368" y="549"/>
      <point x="364" y="384" type="curve"/>
      <point x="360" y="316" type="line"/>
      <point x="339" y="180"/>
      <point x="249" y="118"/>
      <point x="78" y="76" type="curve"/>
      <point x="108" y="-27" type="line"/>
      <point x="389" y="33"/>
      <point x="517" y="151"/>
      <point x="517" y="436" type="curve" smooth="yes"/>
      <point x="517" y="601"/>
      <point x="435" y="709"/>
      <point x="271" y="709" type="curve" smooth="yes"/>
    </contour>
  </outline>
</glyph>
<glyph name="question" format="1">
  <advance width="479"/>
  <unicode hex="003F"/>
  <outline>
    <contour>
      <point x="146" y="709"/>
      <point x="73" y="670"/>
      <point x="16" y="603" type="curve"/>
      <point x="112" y="528" type="line"/>
      <point x="149" y="570"/>
      <point x="190" y="591"/>
      <point x="232" y="591" type="curve" smooth="yes"/>
      <point x="278" y="591"/>
      <point x="306" y="569"/>
      <point x="306" y="530" type="curve" smooth="yes"/>
      <point x="306" y="445"/>
      <point x="145" y="457"/>
      <point x="145" y="285" type="curve" smooth="yes"/>
      <point x="145" y="252" type="line"/>
      <point x="282" y="252" type="line"/>
      <point x="282" y="279" type="line" smooth="yes"/>
      <point x="282" y="394"/>
      <point x="462" y="381"/>
      <point x="462" y="543" type="curve" smooth="yes"/>
      <point x="462" y="631"/>
      <point x="390" y="709"/>
      <point x="247" y="709" type="curve" smooth="yes"/>
    </contour>
    <contour>
      <point x="167" y="159"/>
      <point x="128" y="120"/>
      <point x="128" y="72" type="curve" smooth="yes"/>
      <point x="128" y="23"/>
      <point x="167" y="-16"/>
      <point x="215" y="-16" type="curve" smooth="yes"/>
      <point x="265" y="-16"/>
      <point x="303" y="23"/>
      <point x="303" y="72" type="curve" smooth="yes"/>
      <point x="303" y="120"/>
      <point x="265" y="159"/>
      <point x="215" y="159" type="curve" smooth="yes"/>
    </contour>
  </outline>
</glyph>
<glyph name="at" format="1">
  <advance width="1020"/>
  <unicode hex="0040"/>
  <outline>
    <contour>
      <point x="249" y="709"/>
      <point x="51" y="512"/>
      <point x="51" y="242" type="curve" smooth="yes"/>
      <point x="51" y="-41"/>
      <point x="238" y="-221"/>
      <point x="526" y="-221" type="curve" smooth="yes"/>
      <point x="611" y="-221"/>
      <point x="696" y="-203"/>
      <point x="759" y="-179" type="curve"/>
      <point x="723" y="-75" type="line"/>
      <point x="671" y="-94"/>
      <point x="597" y="-109"/>
      <point x="527" y="-109" type="curve" smooth="yes"/>
      <point x="306" y="-109"/>
      <point x="188" y="28"/>
      <point x="188" y="242" type="curve" smooth="yes"/>
      <point x="188" y="452"/>
      <point x="310" y="599"/>
      <point x="526" y="599" type="curve" smooth="yes"/>
      <point x="735" y="599"/>
      <point x="833" y="489"/>
      <point x="833" y="313" type="curve" smooth="yes"/>
      <point x="833" y="152"/>
      <point x="798" y="100"/>
      <point x="748" y="100" type="curve" smooth="yes"/>
      <point x="712" y="100"/>
      <point x="698" y="125"/>
      <point x="698" y="209" type="curve"/>
      <point x="618" y="131" type="line"/>
      <point x="618" y="79"/>
      <point x="660" y="5"/>
      <point x="754" y="5" type="curve" smooth="yes"/>
      <point x="886" y="5"/>
      <point x="969" y="136"/>
      <point x="969" y="315" type="curve" smooth="yes"/>
      <point x="969" y="520"/>
      <point x="810" y="709"/>
      <point x="527" y="709" type="curve" smooth="yes"/>
    </contour>
    <contour>
      <point x="381" y="501"/>
      <point x="296" y="398"/>
      <point x="296" y="233" type="curve" smooth="yes"/>
      <point x="296" y="103"/>
      <point x="353" y="8"/>
      <point x="478" y="8" type="curve" smooth="yes"/>
      <point x="557" y="8"/>
      <point x="604" y="59"/>
      <point x="626" y="120" type="curve"/>
      <point x="576" y="171" type="line"/>
      <point x="567" y="144"/>
      <point x="544" y="104"/>
      <point x="497" y="104" type="curve" smooth="yes"/>
      <point x="452" y="104"/>
      <point x="432" y="139"/>
      <point x="432" y="232" type="curve" smooth="yes"/>
      <point x="432" y="361"/>
      <point x="467" y="406"/>
      <point x="522" y="406" type="curve" smooth="yes"/>
      <point x="541" y="406"/>
      <point x="555" y="402"/>
      <point x="570" y="396" type="curve"/>
      <point x="570" y="148" type="line"/>
      <point x="631" y="109" type="line"/>
      <point x="698" y="162" type="line"/>
      <point x="698" y="457" type="line"/>
      <point x="643" y="487"/>
      <point x="582" y="501"/>
      <point x="527" y="501" type="curve" smooth="yes"/>
    </contour>
  </outline>
</glyph>
<glyph name="A" format="1">
  <advance width="588"/>
  <unicode hex="0041"/>
  <outline>
    <contour>
      <point x="200" y="693" type="line"/>
      <point x="-11" y="0" type="line"/>
      <point x="150" y="0" type="line"/>
      <point x="292" y="578" type="line"/>
      <point x="435" y="0" type="line"/>
      <point x="599" y="0" type="line"/>
      <point x="389" y="693" type="line"/>
    </contour>
    <contour>
      <point x="199" y="266" type="line"/>
      <point x="172" y="152" type="line"/>
      <point x="412" y="152" type="line"/>
      <point x="386" y="266" type="line"/>
    </contour>
    <contour>
      <point x="145" y="693" type="move" name="topleft"/>
    </contour>
    <contour>
      <point x="295" y="693" type="move" name="top"/>
    </contour>
    <contour>
      <point x="531" y="0" type="move" name="ogonek"/>
    </contour>
  </outline>
</glyph>
<glyph name="B" format="1">
  <advance width="616"/>
  <unicode hex="0042"/>
  <outline>
    <contour>
      <point x="69" y="693" type="line"/>
      <point x="69" y="0" type="line"/>
      <point x="288" y="0" type="line" smooth="yes"/>
      <point x="461" y="0"/>
      <point x="587" y="45"/>
      <point x="587" y="201" type="curve" smooth="yes"/>
      <point x="587" y="314"/>
      <point x="508" y="352"/>
      <point x="430" y="367" type="curve"/>
      <point x="495" y="382"/>
      <point x="558" y="428"/>
      <point x="558" y="516" type="curve" smooth="yes"/>
      <point x="558" y="644"/>
      <point x="445" y="693"/>
      <point x="261" y="693" type="curve" smooth="yes"/>
    </contour>
    <contour>
      <point x="359" y="582"/>
      <point x="399" y="562"/>
      <point x="399" y="501" type="curve" smooth="yes"/>
      <point x="399" y="441"/>
      <point x="360" y="413"/>
      <point x="291" y="413" type="curve" smooth="yes"/>
      <point x="209" y="413" type="line"/>
      <point x="209" y="309" type="line"/>
      <point x="302" y="309" type="line" smooth="yes"/>
      <point x="375" y="309"/>
      <point x="426" y="283"/>
      <point x="426" y="209" type="curve" smooth="yes"/>
      <point x="426" y="130"/>
      <point x="369" y="114"/>
      <point x="289" y="114" type="curve" smooth="yes"/>
      <point x="225" y="114" type="line"/>
      <point x="225" y="582" type="line"/>
      <point x="276" y="582" type="line" smooth="yes"/>
    </contour>
  </outline>
</glyph>
<glyph name="C" format="1">
  <advance width="573"/>
  <unicode hex="0043"/>
  <outline>
    <contour>
      <point x="169" y="709"/>
      <point x="36" y="580"/>
      <point x="36" y="348" type="curve" smooth="yes"/>
      <point x="36" y="111"/>
      <point x="162" y="-16"/>
      <point x="349" y="-16" type="curve" smooth="yes"/>
      <point x="445" y="-16"/>
      <point x="519" y="26"/>
      <point x="564" y="72" type="curve"/>
      <point x="493" y="163" type="line"/>
      <point x="453" y="132"/>
      <point x="413" y="105"/>
      <point x="357" y="105" type="curve" smooth="yes"/>
      <point x="263" y="105"/>
      <point x="199" y="177"/>
      <point x="199" y="348" type="curve" smooth="yes"/>
      <point x="199" y="522"/>
      <point x="264" y="593"/>
      <point x="354" y="593" type="curve" smooth="yes"/>
      <point x="402" y="593"/>
      <point x="441" y="575"/>
      <point x="479" y="543" type="curve"/>
      <point x="556" y="634" type="line"/>
      <point x="499" y="681"/>
      <point x="437" y="709"/>
      <point x="345" y="709" type="curve" smooth="yes"/>
    </contour>
    <contour>
      <point x="353" y="693" type="move" name="top"/>
    </contour>
    <contour>
      <point x="342" y="0" type="move" name="bottom"/>
    </contour>
  </outline>
</glyph>
<glyph name="D" format="1">
  <advance width="651"/>
  <unicode hex="0044"/>
  <outline>
    <contour>
      <point x="69" y="693" type="line"/>
      <point x="69" y="0" type="line"/>
      <point x="272" y="0" type="line" smooth="yes"/>
      <point x="446" y="0"/>
      <point x="615" y="70"/>
      <point x="615" y="350" type="curve" smooth="yes"/>
      <point x="615" y="636"/>
      <point x="440" y="693"/>
      <point x="256" y="693" type="curve" smooth="yes"/>
    </contour>
    <contour>
      <point x="377" y="579"/>
      <point x="453" y="542"/>
      <point x="453" y="350" type="curve" smooth="yes"/>
      <point x="453" y="160"/>
      <point x="382" y="113"/>
      <point x="282" y="113" type="curve" smooth="yes"/>
      <point x="225" y="113" type="line"/>
      <point x="225" y="579" type="line"/>
      <point x="279" y="579" type="line" smooth="yes"/>
    </contour>
    <contour>
      <point x="296" y="693" type="move" name="top"/>
    </contour>
    <contour>
      <point x="326" y="347" type="move" name="center"/>
    </contour>
  </outline>
</glyph>
<glyph name="E" format="1">
  <advance width="527"/>
  <unicode hex="0045"/>
  <outline>
    <contour>
      <point x="69" y="693" type="line"/>
      <point x="69" y="0" type="line"/>
      <point x="489" y="0" type="line"/>
      <point x="489" y="113" type="line"/>
      <point x="225" y="113" type="line"/>
      <point x="225" y="297" type="line"/>
      <point x="440" y="297" type="line"/>
      <point x="440" y="407" type="line"/>
      <point x="225" y="407" type="line"/>
      <point x="225" y="580" type="line"/>
      <point x="471" y="580" type="line"/>
      <point x="488" y="693" type="line"/>
    </contour>
    <contour>
      <point x="64" y="693" type="move" name="topleft"/>
    </contour>
    <contour>
      <point x="280" y="693" type="move" name="top"/>
    </contour>
    <contour>
      <point x="459" y="0" type="move" name="ogonek"/>
    </contour>
    <contour>
      <point x="279" y="0" type="move" name="bottom"/>
    </contour>
  </outline>
</glyph>
<glyph name="F" format="1">
  <advance width="488"/>
  <unicode hex="0046"/>
  <outline>
    <contour>
      <point x="69" y="693" type="line"/>
      <point x="69" y="0" type="line"/>
      <point x="225" y="0" type="line"/>
      <point x="225" y="278" type="line"/>
      <point x="430" y="278" type="line"/>
      <point x="430" y="391" type="line"/>
      <point x="225" y="391" type="line"/>
      <point x="225" y="580" type="line"/>
      <point x="460" y="580" type="line"/>
      <point x="476" y="693" type="line"/>
    </contour>
  </outline>
</glyph>
<glyph name="G" format="1">
  <advance width="643"/>
  <unicode hex="0047"/>
  <outline>
    <contour>
      <point x="182" y="709"/>
      <point x="36" y="581"/>
      <point x="36" y="347" type="curve" smooth="yes"/>
      <point x="36" y="110"/>
      <point x="142" y="-16"/>
      <point x="347" y="-16" type="curve" smooth="yes"/>
      <point x="438" y="-16"/>
      <point x="526" y="10"/>
      <point x="596" y="55" type="curve"/>
      <point x="596" y="397" type="line"/>
      <point x="336" y="397" type="line"/>
      <point x="351" y="286" type="line"/>
      <point x="445" y="286" type="line"/>
      <point x="445" y="123" type="line"/>
      <point x="415" y="106"/>
      <point x="382" y="99"/>
      <point x="347" y="99" type="curve" smooth="yes"/>
      <point x="248" y="99"/>
      <point x="198" y="163"/>
      <point x="198" y="347" type="curve" smooth="yes"/>
      <point x="198" y="522"/>
      <point x="273" y="595"/>
      <point x="370" y="595" type="curve" smooth="yes"/>
      <point x="427" y="595"/>
      <point x="465" y="578"/>
      <point x="510" y="540" type="curve"/>
      <point x="592" y="625" type="line"/>
      <point x="535" y="675"/>
      <point x="462" y="709"/>
      <point x="362" y="709" type="curve" smooth="yes"/>
    </contour>
    <contour>
      <point x="352" y="693" type="move" name="top"/>
    </contour>
    <contour>
      <point x="347" y="0" type="move" name="bottom"/>
    </contour>
  </outline>
</glyph>
<glyph name="H" format="1">
  <advance width="667"/>
  <unicode hex="0048"/>
  <outline>
    <contour>
      <point x="599" y="0" type="line"/>
      <point x="599" y="693" type="line"/>
      <point x="443" y="693" type="line"/>
      <point x="443" y="422" type="line"/>
      <point x="225" y="422" type="line"/>
      <point x="225" y="693" type="line"/>
      <point x="69" y="693" type="line"/>
      <point x="69" y="0" type="line"/>
      <point x="225" y="0" type="line"/>
      <point x="225" y="300" type="line"/>
      <point x="443" y="300" type="line"/>
      <point x="443" y="0" type="line"/>
    </contour>
    <contour>
      <point x="64" y="693" type="move" name="topleft"/>
    </contour>
    <contour>
      <point x="334" y="693" type="move" name="top"/>
    </contour>
    <contour>
      <point x="334" y="347" type="move" name="center"/>
    </contour>
    <contour>
      <point x="609" y="0" type="move" name="bottomright"/>
    </contour>
  </outline>
</glyph>
<glyph name="I" format="1">
  <advance width="294"/>
  <unicode hex="0049"/>
  <outline>
    <contour>
      <point x="69" y="693" type="line"/>
      <point x="69" y="0" type="line"/>
      <point x="225" y="0" type="line"/>
      <point x="225" y="693" type="line"/>
    </contour>
    <contour>
      <point x="64" y="693" type="move" name="topleft"/>
    </contour>
    <contour>
      <point x="147" y="693" type="move" name="top"/>
    </contour>
    <contour>
      <point x="210" y="0" type="move" name="ogonek"/>
    </contour>
  </outline>
</glyph>
<glyph name="J" format="1">
  <advance width="316"/>
  <unicode hex="004A"/>
  <outline>
    <contour>
      <point x="95" y="693" type="line"/>
      <point x="95" y="110" type="line" smooth="yes"/>
      <point x="95" y="26"/>
      <point x="81" y="-20"/>
      <point x="-9" y="-55" type="curve"/>
      <point x="33" y="-165" type="line"/>
      <point x="149" y="-128"/>
      <point x="250" y="-67"/>
      <point x="250" y="104" type="curve" smooth="yes"/>
      <point x="250" y="693" type="line"/>
    </contour>
    <contour>
      <point x="173" y="693" type="move" name="top"/>
    </contour>
  </outline>
</glyph>
<glyph name="K" format="1">
  <advance width="627"/>
  <unicode hex="004B"/>
  <outline>
    <contour>
      <point x="455" y="693" type="line"/>
      <point x="230" y="370" type="line"/>
      <point x="457" y="0" type="line"/>
      <point x="638" y="0" type="line"/>
      <point x="394" y="381" type="line"/>
      <point x="620" y="693" type="line"/>
    </contour>
    <contour>
      <point x="69" y="693" type="line"/>
      <point x="69" y="0" type="line"/>
      <point x="225" y="0" type="line"/>
      <point x="225" y="693" type="line"/>
    </contour>
    <contour>
      <point x="329" y="693" type="move" name="top"/>
    </contour>
    <contour>
      <point x="323" y="0" type="move" name="bottom"/>
    </contour>
  </outline>
</glyph>
<glyph name="L" format="1">
  <advance width="511"/>
  <unicode hex="004C"/>
  <outline>
    <contour>
      <point x="69" y="693" type="line"/>
      <point x="69" y="0" type="line"/>
      <point x="480" y="0" type="line"/>
      <point x="497" y="124" type="line"/>
      <point x="225" y="124" type="line"/>
      <point x="225" y="693" type="line"/>
    </contour>
    <contour>
      <point x="147" y="693" type="move" name="top"/>
    </contour>
    <contour>
      <point x="275" y="0" type="move" name="bottom"/>
    </contour>
    <contour>
      <point x="247" y="693" type="move" name="topright"/>
    </contour>
    <contour>
      <point x="397" y="398" type="move" name="center"/>
    </contour>
  </outline>
</glyph>
<glyph name="M" format="1">
  <advance width="793"/>
  <unicode hex="004D"/>
  <outline>
    <contour>
      <point x="498" y="693" type="line"/>
      <point x="396" y="219" type="line"/>
      <point x="286" y="693" type="line"/>
      <point x="89" y="693" type="line"/>
      <point x="36" y="0" type="line"/>
      <point x="188" y="0" type="line"/>
      <point x="201" y="273" type="line" smooth="yes"/>
      <point x="206" y="371"/>
      <point x="206" y="459"/>
      <point x="200" y="559" type="curve"/>
      <point x="319" y="74" type="line"/>
      <point x="466" y="74" type="line"/>
      <point x="579" y="559" type="line"/>
      <point x="574" y="476"/>
      <point x="577" y="374"/>
      <point x="582" y="276" type="curve" smooth="yes"/>
      <point x="596" y="0" type="line"/>
      <point x="749" y="0" type="line"/>
      <point x="696" y="693" type="line"/>
    </contour>
  </outline>
</glyph>
<glyph name="N" format="1">
  <advance width="665"/>
  <unicode hex="004E"/>
  <outline>
    <contour>
      <point x="457" y="693" type="line"/>
      <point x="457" y="401" type="line" smooth="yes"/>
      <point x="457" y="294"/>
      <point x="470" y="200"/>
      <point x="478" y="148" type="curve"/>
      <point x="263" y="693" type="line"/>
      <point x="69" y="693" type="line"/>
      <point x="69" y="0" type="line"/>
      <point x="209" y="0" type="line"/>
      <point x="209" y="261" type="line" smooth="yes"/>
      <point x="209" y="390"/>
      <point x="196" y="480"/>
      <point x="188" y="543" type="curve"/>
      <point x="398" y="0" type="line"/>
      <point x="597" y="0" type="line"/>
      <point x="597" y="693" type="line"/>
    </contour>
    <contour>
      <point x="338" y="693" type="move" name="top"/>
    </contour>
    <contour>
      <point x="334" y="0" type="move" name="bottom"/>
    </contour>
  </outline>
</glyph>
<glyph name="O" format="1">
  <advance width="691"/>
  <unicode hex="004F"/>
  <outline>
    <contour>
      <point x="153" y="709"/>
      <point x="36" y="573"/>
      <point x="36" y="346" type="curve" smooth="yes"/>
      <point x="36" y="115"/>
      <point x="153" y="-16"/>
      <point x="345" y="-16" type="curve" smooth="yes"/>
      <point x="538" y="-16"/>
      <point x="655" y="120"/>
      <point x="655" y="347" type="curve" smooth="yes"/>
      <point x="655" y="578"/>
      <point x="538" y="709"/>
      <point x="345" y="709" type="curve" smooth="yes"/>
    </contour>
    <contour>
      <point x="442" y="594"/>
      <point x="492" y="524"/>
      <point x="492" y="347" type="curve" smooth="yes"/>
      <point x="492" y="168"/>
      <point x="442" y="99"/>
      <point x="345" y="99" type="curve" smooth="yes"/>
      <point x="252" y="99"/>
      <point x="199" y="168"/>
      <point x="199" y="346" type="curve" smooth="yes"/>
      <point x="199" y="524"/>
      <point x="251" y="594"/>
      <point x="345" y="594" type="curve" smooth="yes"/>
    </contour>
    <contour>
      <point x="108" y="693" type="move" name="topleft"/>
    </contour>
    <contour>
      <point x="347" y="693" type="move" name="top"/>
    </contour>
  </outline>
</glyph>
<glyph name="P" format="1">
  <advance width="597"/>
  <unicode hex="0050"/>
  <outline>
    <contour>
      <point x="225" y="581" type="line"/>
      <point x="286" y="581" type="line" smooth="yes"/>
      <point x="369" y="581"/>
      <point x="414" y="546"/>
      <point x="414" y="468" type="curve" smooth="yes"/>
      <point x="414" y="378"/>
      <point x="366" y="347"/>
      <point x="288" y="347" type="curve" smooth="yes"/>
      <point x="209" y="347" type="line"/>
      <point x="209" y="233" type="line"/>
      <point x="301" y="233" type="line" smooth="yes"/>
      <point x="460" y="233"/>
      <point x="575" y="308"/>
      <point x="575" y="468" type="curve" smooth="yes"/>
      <point x="575" y="619"/>
      <point x="466" y="693"/>
      <point x="288" y="693" type="curve" smooth="yes"/>
      <point x="69" y="693" type="line"/>
      <point x="69" y="0" type="line"/>
      <point x="225" y="0" type="line"/>
    </contour>
  </outline>
</glyph>
<glyph name="Q" format="1">
  <advance width="690"/>
  <unicode hex="0051"/>
  <outline>
    <contour>
      <point x="153" y="709"/>
      <point x="36" y="573"/>
      <point x="36" y="346" type="curve" smooth="yes"/>
      <point x="36" y="115"/>
      <point x="153" y="-13"/>
      <point x="336" y="-13" type="curve" smooth="yes"/>
      <point x="360" y="-13"/>
      <point x="382" y="-11"/>
      <point x="404" y="-8" type="curve"/>
      <point x="493" y="44" type="line"/>
      <point x="580" y="92"/>
      <point x="655" y="179"/>
      <point x="655" y="347" type="curve" smooth="yes"/>
      <point x="655" y="578"/>
      <point x="538" y="709"/>
      <point x="345" y="709" type="curve" smooth="yes"/>
    </contour>
    <contour>
      <point x="336" y="-13" type="line"/>
      <point x="465" y="-13"/>
      <point x="535" y="-70"/>
      <point x="601" y="-141" type="curve"/>
      <point x="696" y="-19" type="line"/>
      <point x="641" y="21"/>
      <point x="582" y="44"/>
      <point x="493" y="44" type="curve"/>
    </contour>
    <contour>
      <point x="442" y="594"/>
      <point x="492" y="524"/>
      <point x="492" y="347" type="curve" smooth="yes"/>
      <point x="492" y="168"/>
      <point x="442" y="99"/>
      <point x="345" y="99" type="curve" smooth="yes"/>
      <point x="252" y="99"/>
      <point x="199" y="168"/>
      <point x="199" y="346" type="curve" smooth="yes"/>
      <point x="199" y="524"/>
      <point x="251" y="594"/>
      <point x="345" y="594" type="curve" smooth="yes"/>
    </contour>
  </outline>
</glyph>
<glyph name="R" format="1">
  <advance width="615"/>
  <unicode hex="0052"/>
  <outline>
    <contour>
      <point x="69" y="693" type="line"/>
      <point x="69" y="0" type="line"/>
      <point x="225" y="0" type="line"/>
      <point x="225" y="582" type="line"/>
      <point x="287" y="582" type="line" smooth="yes"/>
      <point x="372" y="582"/>
      <point x="412" y="553"/>
      <point x="412" y="484" type="curve" smooth="yes"/>
      <point x="412" y="408"/>
      <point x="372" y="376"/>
      <point x="298" y="376" type="curve" smooth="yes"/>
      <point x="209" y="376" type="line"/>
      <point x="209" y="268" type="line"/>
      <point x="359" y="268" type="line"/>
      <point x="504" y="311"/>
      <point x="573" y="368"/>
      <point x="573" y="484" type="curve" smooth="yes"/>
      <point x="573" y="626"/>
      <point x="477" y="693"/>
      <point x="290" y="693" type="curve" smooth="yes"/>
    </contour>
    <contour>
      <point x="286" y="282" type="line"/>
      <point x="439" y="0" type="line"/>
      <point x="615" y="0" type="line"/>
      <point x="431" y="308" type="line"/>
    </contour>
    <contour>
      <point x="306" y="693" type="move" name="top"/>
    </contour>
    <contour>
      <point x="311" y="0" type="move" name="bottom"/>
    </contour>
  </outline>
</glyph>
<glyph name="S" format="1">
  <advance width="569"/>
  <unicode hex="0053"/>
  <outline>
    <contour>
      <point x="144" y="709"/>
      <point x="40" y="631"/>
      <point x="40" y="511" type="curve" smooth="yes"/>
      <point x="40" y="407"/>
      <point x="98" y="345"/>
      <point x="251" y="298" type="curve" smooth="yes"/>
      <point x="354" y="266"/>
      <point x="380" y="243"/>
      <point x="380" y="190" type="curve" smooth="yes"/>
      <point x="380" y="133"/>
      <point x="335" y="100"/>
      <point x="266" y="100" type="curve" smooth="yes"/>
      <point x="196" y="100"/>
      <point x="140" y="126"/>
      <point x="91" y="170" type="curve"/>
      <point x="11" y="81" type="line"/>
      <point x="68" y="26"/>
      <point x="153" y="-16"/>
      <point x="270" y="-16" type="curve" smooth="yes"/>
      <point x="441" y="-16"/>
      <point x="542" y="73"/>
      <point x="542" y="201" type="curve" smooth="yes"/>
      <point x="542" y="329"/>
      <point x="465" y="382"/>
      <point x="337" y="423" type="curve" smooth="yes"/>
      <point x="226" y="458"/>
      <point x="200" y="476"/>
      <point x="200" y="522" type="curve" smooth="yes"/>
      <point x="200" y="569"/>
      <point x="238" y="594"/>
      <point x="297" y="594" type="curve" smooth="yes"/>
      <point x="353" y="594"/>
      <point x="401" y="575"/>
      <point x="449" y="535" type="curve"/>
      <point x="523" y="621" type="line"/>
      <point x="462" y="678"/>
      <point x="390" y="709"/>
      <point x="286" y="709" type="curve" smooth="yes"/>
    </contour>
    <contour>
      <point x="293" y="693" type="move" name="top"/>
    </contour>
    <contour>
      <point x="281" y="0" type="move" name="bottom"/>
    </contour>
  </outline>
</glyph>
<glyph name="T" format="1">
  <advance width="537"/>
  <unicode hex="0054"/>
  <outline>
    <contour>
      <point x="10" y="693" type="line"/>
      <point x="10" y="572" type="line"/>
      <point x="191" y="572" type="line"/>
      <point x="191" y="0" type="line"/>
      <point x="346" y="0" type="line"/>
      <point x="346" y="572" type="line"/>
      <point x="519" y="572" type="line"/>
      <point x="535" y="693" type="line"/>
    </contour>
    <contour>
      <point x="269" y="693" type="move" name="top"/>
    </contour>
    <contour>
      <point x="269" y="347" type="move" name="center"/>
    </contour>
    <contour>
      <point x="356" y="0" type="move" name="bottomright"/>
    </contour>
    <contour>
      <point x="269" y="0" type="move" name="bottom"/>
    </contour>
  </outline>
</glyph>
<glyph name="U" format="1">
  <advance width="652"/>
  <unicode hex="0055"/>
  <outline>
    <contour>
      <point x="437" y="693" type="line"/>
      <point x="437" y="236" type="line" smooth="yes"/>
      <point x="437" y="145"/>
      <point x="403" y="101"/>
      <point x="326" y="101" type="curve" smooth="yes"/>
      <point x="248" y="101"/>
      <point x="215" y="145"/>
      <point x="215" y="236" type="curve" smooth="yes"/>
      <point x="215" y="693" type="line"/>
      <point x="59" y="693" type="line"/>
      <point x="59" y="229" type="line" smooth="yes"/>
      <point x="59" y="84"/>
      <point x="147" y="-16"/>
      <point x="326" y="-16" type="curve" smooth="yes"/>
      <point x="503" y="-16"/>
      <point x="593" y="89"/>
      <point x="593" y="229" type="curve" smooth="yes"/>
      <point x="593" y="693" type="line"/>
    </contour>
    <contour>
      <point x="326" y="693" type="move" name="top"/>
    </contour>
    <contour>
      <point x="446" y="0" type="move" name="ogonek"/>
    </contour>
  </outline>
</glyph>
<glyph name="V" format="1">
  <advance width="569"/>
  <unicode hex="0056"/>
  <outline>
    <contour>
      <point x="421" y="693" type="line"/>
      <point x="290" y="125" type="line"/>
      <point x="154" y="693" type="line"/>
      <point x="-11" y="693" type="line"/>
      <point x="192" y="0" type="line"/>
      <point x="384" y="0" type="line"/>
      <point x="580" y="693" type="line"/>
    </contour>
  </outline>
</glyph>
<glyph name="W" format="1">
  <advance width="844"/>
  <unicode hex="0057"/>
  <outline>
    <contour>
      <point x="685" y="693" type="line"/>
      <point x="600" y="119" type="line"/>
      <point x="505" y="693" type="line"/>
      <point x="341" y="693" type="line"/>
      <point x="240" y="119" type="line"/>
      <point x="166" y="693" type="line"/>
      <point x="11" y="693" type="line"/>
      <point x="128" y="0" type="line"/>
      <point x="325" y="0" type="line"/>
      <point x="421" y="535" type="line"/>
      <point x="512" y="0" type="line"/>
      <point x="714" y="0" type="line"/>
      <point x="833" y="693" type="line"/>
    </contour>
    <contour>
      <point x="423" y="693" type="move" name="top"/>
    </contour>
  </outline>
</glyph>
<glyph name="X" format="1">
  <advance width="576"/>
  <unicode hex="0058"/>
  <outline>
    <contour>
      <point x="12" y="693" type="line"/>
      <point x="192" y="368" type="line"/>
      <point x="284" y="269" type="line"/>
      <point x="409" y="0" type="line"/>
      <point x="579" y="0" type="line"/>
      <point x="378" y="374" type="line"/>
      <point x="286" y="466" type="line"/>
      <point x="182" y="693" type="line"/>
    </contour>
    <contour>
      <point x="396" y="693" type="line"/>
      <point x="286" y="466" type="line"/>
      <point x="192" y="368" type="line"/>
      <point x="-3" y="0" type="line"/>
      <point x="162" y="0" type="line"/>
      <point x="284" y="269" type="line"/>
      <point x="378" y="374" type="line"/>
      <point x="561" y="693" type="line"/>
    </contour>
    <contour>
      <point x="519" y="0" type="move" name="bottomright"/>
    </contour>
  </outline>
</glyph>
<glyph name="Y" format="1">
  <advance width="588"/>
  <unicode hex="0059"/>
  <outline>
    <contour>
      <point x="430" y="693" type="line"/>
      <point x="297" y="383" type="line"/>
      <point x="165" y="693" type="line"/>
      <point x="-6" y="693" type="line"/>
      <point x="216" y="260" type="line"/>
      <point x="216" y="0" type="line"/>
      <point x="372" y="0" type="line"/>
      <point x="372" y="261" type="line"/>
      <point x="594" y="693" type="line"/>
    </contour>
    <contour>
      <point x="-3" y="693" type="move" name="topleft"/>
    </contour>
    <contour>
      <point x="296" y="693" type="move" name="top"/>
    </contour>
  </outline>
</glyph>
<glyph name="Z" format="1">
  <advance width="541"/>
  <unicode hex="005A"/>
  <outline>
    <contour>
      <point x="51" y="693" type="line"/>
      <point x="51" y="571" type="line"/>
      <point x="331" y="571" type="line"/>
      <point x="19" y="117" type="line"/>
      <point x="19" y="0" type="line"/>
      <point x="497" y="0" type="line"/>
      <point x="513" y="125" type="line"/>
      <point x="202" y="125" type="line"/>
      <point x="508" y="574" type="line"/>
      <point x="508" y="693" type="line"/>
    </contour>
    <contour>
      <point x="276" y="693" type="move" name="top"/>
    </contour>
  </outline>
</glyph>
<glyph name="bracketleft" format="1">
  <advance width="324"/>
  <unicode hex="005B"/>
  <outline>
    <contour>
      <point x="38" y="822" type="line"/>
      <point x="38" y="-122" type="line"/>
      <point x="296" y="-122" type="line"/>
      <point x="296" y="-10" type="line"/>
      <point x="180" y="-10" type="line"/>
      <point x="180" y="709" type="line"/>
      <point x="296" y="709" type="line"/>
      <point x="296" y="822" type="line"/>
    </contour>
  </outline>
</glyph>
<glyph name="bracketright" format="1">
  <advance width="324"/>
  <unicode hex="005D"/>
  <outline>
    <contour>
      <point x="28" y="822" type="line"/>
      <point x="28" y="709" type="line"/>
      <point x="144" y="709" type="line"/>
      <point x="144" y="-9" type="line"/>
      <point x="28" y="-9" type="line"/>
      <point x="28" y="-122" type="line"/>
      <point x="286" y="-122" type="line"/>
      <point x="286" y="822" type="line"/>
    </contour>
  </outline>
</glyph>
<glyph name="asciicircum" format="1">
  <advance width="556"/>
  <unicode hex="005E"/>
  <outline>
    <contour>
      <point x="210" y="844" type="line"/>
      <point x="21" y="527" type="line"/>
      <point x="170" y="527" type="line"/>
      <point x="277" y="730" type="line"/>
      <point x="388" y="527" type="line"/>
      <point x="536" y="527" type="line"/>
      <point x="347" y="844" type="line"/>
    </contour>
  </outline>
</glyph>
<glyph name="underscore" format="1">
  <advance width="520"/>
  <unicode hex="005F"/>
  <outline>
    <contour>
      <point x="510" y="-167" type="line"/>
      <point x="510" y="-49" type="line"/>
      <point x="10" y="-49" type="line"/>
      <point x="10" y="-167" type="line"/>
    </contour>
  </outline>
</glyph>
<glyph name="b" format="1">
  <advance width="597"/>
  <unicode hex="0062"/>
  <outline>
    <contour>
      <point x="296" y="547"/>
      <point x="238" y="513"/>
      <point x="207" y="461" type="curve"/>
      <point x="206" y="354" type="line"/>
      <point x="231" y="403"/>
      <point x="265" y="436"/>
      <point x="311" y="436" type="curve" smooth="yes"/>
      <point x="363" y="436"/>
      <point x="401" y="401"/>
      <point x="401" y="265" type="curve" smooth="yes"/>
      <point x="401" y="139"/>
      <point x="361" y="94"/>
      <point x="304" y="94" type="curve" smooth="yes"/>
      <point x="262" y="94"/>
      <point x="228" y="120"/>
      <point x="207" y="164" type="curve"/>
      <point x="196" y="67" type="line"/>
      <point x="229" y="16"/>
      <point x="280" y="-16"/>
      <point x="346" y="-16" type="curve" smooth="yes"/>
      <point x="478" y="-16"/>
      <point x="557" y="101"/>
      <point x="557" y="265" type="curve" smooth="yes"/>
      <point x="557" y="443"/>
      <point x="487" y="547"/>
      <point x="357" y="547" type="curve" smooth="yes"/>
    </contour>
    <contour>
      <point x="66" y="742" type="line"/>
      <point x="66" y="0" type="line"/>
      <point x="199" y="0" type="line"/>
      <point x="216" y="115" type="line"/>
      <point x="216" y="758" type="line" smooth="yes"/>
    </contour>
  </outline>
</glyph>
<glyph name="c" format="1">
  <advance width="479"/>
  <unicode hex="0063"/>
  <outline>
    <contour>
      <point x="134" y="547"/>
      <point x="35" y="430"/>
      <point x="35" y="261" type="curve" smooth="yes"/>
      <point x="35" y="93"/>
      <point x="134" y="-16"/>
      <point x="294" y="-16" type="curve" smooth="yes"/>
      <point x="366" y="-16"/>
      <point x="422" y="7"/>
      <point x="470" y="46" type="curve"/>
      <point x="402" y="142" type="line"/>
      <point x="367" y="115"/>
      <point x="340" y="103"/>
      <point x="302" y="103" type="curve" smooth="yes"/>
      <point x="236" y="103"/>
      <point x="193" y="141"/>
      <point x="193" y="262" type="curve" smooth="yes"/>
      <point x="193" y="383"/>
      <point x="234" y="431"/>
      <point x="303" y="431" type="curve" smooth="yes"/>
      <point x="340" y="431"/>
      <point x="372" y="419"/>
      <point x="405" y="392" type="curve"/>
      <point x="470" y="483" type="line"/>
      <point x="420" y="526"/>
      <point x="364" y="547"/>
      <point x="291" y="547" type="curve" smooth="yes"/>
    </contour>
    <contour>
      <point x="291" y="531" type="move" name="top"/>
    </contour>
    <contour>
      <point x="280" y="0" type="move" name="bottom"/>
    </contour>
  </outline>
</glyph>
<glyph name="e" format="1">
  <advance width="554"/>
  <unicode hex="0065"/>
  <outline>
    <contour>
      <point x="121" y="547"/>
      <point x="35" y="422"/>
      <point x="35" y="262" type="curve" smooth="yes"/>
      <point x="35" y="96"/>
      <point x="124" y="-16"/>
      <point x="298" y="-16" type="curve" smooth="yes"/>
      <point x="382" y="-16"/>
      <point x="449" y="15"/>
      <point x="502" y="57" type="curve"/>
      <point x="440" y="141" type="line"/>
      <point x="394" y="109"/>
      <point x="356" y="94"/>
      <point x="312" y="94" type="curve" smooth="yes"/>
      <point x="236" y="94"/>
      <point x="187" y="130"/>
      <point x="187" y="264" type="curve" smooth="yes"/>
      <point x="187" y="399"/>
      <point x="220" y="446"/>
      <point x="283" y="446" type="curve" smooth="yes"/>
      <point x="348" y="446"/>
      <point x="373" y="395"/>
      <point x="374" y="319" type="curve" smooth="yes"/>
      <point x="374" y="317"/>
      <point x="374" y="315"/>
      <point x="374" y="313" type="curve"/>
      <point x="172" y="313" type="line"/>
      <point x="173" y="221" type="line"/>
      <point x="518" y="221" type="line"/>
      <point x="520" y="236"/>
      <point x="521" y="259"/>
      <point x="521" y="276" type="curve" smooth="yes"/>
      <point x="521" y="447"/>
      <point x="431" y="547"/>
      <point x="280" y="547" type="curve" smooth="yes"/>
    </contour>
    <contour>
      <point x="282" y="531" type="move" name="top"/>
    </contour>
    <contour>
      <point x="430" y="9" type="move" name="ogonek"/>
    </contour>
    <contour>
      <point x="294" y="0" type="move" name="bottom"/>
    </contour>
  </outline>
</glyph>
<glyph name="f" format="1">
  <advance width="354"/>
  <unicode hex="0066"/>
  <outline>
    <contour>
      <point x="152" y="758"/>
      <point x="85" y="680"/>
      <point x="85" y="580" type="curve" smooth="yes"/>
      <point x="85" y="0" type="line"/>
      <point x="235" y="0" type="line"/>
      <point x="235" y="575" type="line" smooth="yes"/>
      <point x="235" y="626"/>
      <point x="254" y="646"/>
      <point x="301" y="646" type="curve" smooth="yes"/>
      <point x="325" y="646"/>
      <point x="354" y="641"/>
      <point x="385" y="626" type="curve"/>
      <point x="427" y="725" type="line"/>
      <point x="387" y="744"/>
      <point x="338" y="758"/>
      <point x="284" y="758" type="curve" smooth="yes"/>
    </contour>
    <contour>
      <point x="3" y="531" type="line"/>
      <point x="3" y="425" type="line"/>
      <point x="345" y="425" type="line"/>
      <point x="361" y="531" type="line"/>
    </contour>
  </outline>
</glyph>
<glyph name="g" format="1">
  <advance width="547"/>
  <unicode hex="0067"/>
  <outline>
    <contour>
      <point x="447" y="576"/>
      <point x="382" y="544"/>
      <point x="262" y="547" type="curve" smooth="yes"/>
      <point x="127" y="547"/>
      <point x="33" y="473"/>
      <point x="33" y="354" type="curve" smooth="yes"/>
      <point x="33" y="285"/>
      <point x="61" y="238"/>
      <point x="128" y="202" type="curve"/>
      <point x="90" y="179"/>
      <point x="65" y="140"/>
      <point x="65" y="102" type="curve" smooth="yes"/>
      <point x="65" y="45"/>
      <point x="111" y="-2"/>
      <point x="225" y="-2" type="curve" smooth="yes"/>
      <point x="303" y="-2" type="line" smooth="yes"/>
      <point x="357" y="-2"/>
      <point x="382" y="-24"/>
      <point x="382" y="-57" type="curve" smooth="yes"/>
      <point x="382" y="-93"/>
      <point x="358" y="-120"/>
      <point x="262" y="-120" type="curve" smooth="yes"/>
      <point x="164" y="-120"/>
      <point x="143" y="-99"/>
      <point x="143" y="-51" type="curve"/>
      <point x="9" y="-51" type="line"/>
      <point x="9" y="-156"/>
      <point x="61" y="-221"/>
      <point x="259" y="-221" type="curve" smooth="yes"/>
      <point x="439" y="-221"/>
      <point x="533" y="-155"/>
      <point x="533" y="-47" type="curve" smooth="yes"/>
      <point x="533" y="42"/>
      <point x="455" y="106"/>
      <point x="333" y="106" type="curve" smooth="yes"/>
      <point x="253" y="106" type="line" smooth="yes"/>
      <point x="201" y="106"/>
      <point x="193" y="123"/>
      <point x="193" y="139" type="curve" smooth="yes"/>
      <point x="193" y="152"/>
      <point x="200" y="165"/>
      <point x="211" y="172" type="curve"/>
      <point x="231" y="167"/>
      <point x="250" y="166"/>
      <point x="273" y="166" type="curve" smooth="yes"/>
      <point x="410" y="166"/>
      <point x="493" y="241"/>
      <point x="493" y="343" type="curve" smooth="yes"/>
      <point x="493" y="411"/>
      <point x="461" y="451"/>
      <point x="394" y="480" type="curve"/>
      <point x="460" y="480"/>
      <point x="509" y="486"/>
      <point x="547" y="500" type="curve"/>
      <point x="512" y="613" type="line"/>
    </contour>
    <contour>
      <point x="322" y="447"/>
      <point x="350" y="419"/>
      <point x="350" y="358" type="curve" smooth="yes"/>
      <point x="350" y="295"/>
      <point x="321" y="262"/>
      <point x="267" y="262" type="curve" smooth="yes"/>
      <point x="215" y="262"/>
      <point x="183" y="296"/>
      <point x="183" y="356" type="curve" smooth="yes"/>
      <point x="183" y="413"/>
      <point x="214" y="447"/>
      <point x="266" y="447" type="curve" smooth="yes"/>
    </contour>
    <contour>
      <point x="273" y="531" type="move" name="top"/>
    </contour>
  </outline>
</glyph>
<glyph name="h" format="1">
  <advance width="578"/>
  <unicode hex="0068"/>
  <outline>
    <contour>
      <point x="297" y="547"/>
      <point x="242" y="512"/>
      <point x="196" y="446" type="curve"/>
      <point x="216" y="365" type="line"/>
      <point x="244" y="410"/>
      <point x="276" y="436"/>
      <point x="313" y="436" type="curve" smooth="yes"/>
      <point x="345" y="436"/>
      <point x="367" y="420"/>
      <point x="367" y="361" type="curve" smooth="yes"/>
      <point x="367" y="0" type="line"/>
      <point x="517" y="0" type="line"/>
      <point x="517" y="387" type="line" smooth="yes"/>
      <point x="517" y="487"/>
      <point x="461" y="547"/>
      <point x="369" y="547" type="curve" smooth="yes"/>
    </contour>
    <contour>
      <point x="66" y="741" type="line"/>
      <point x="66" y="0" type="line"/>
      <point x="216" y="0" type="line"/>
      <point x="216" y="757" type="line"/>
    </contour>
    <contour>
      <point x="289" y="742" type="move" name="top"/>
    </contour>
    <contour>
      <point x="289" y="266" type="move" name="center"/>
    </contour>
  </outline>
</glyph>
<glyph name="k" format="1">
  <advance width="547"/>
  <unicode hex="006B"/>
  <outline>
    <contour>
      <point x="387" y="531" type="line"/>
      <point x="221" y="290" type="line"/>
      <point x="386" y="0" type="line"/>
      <point x="555" y="0" type="line"/>
      <point x="376" y="297" type="line"/>
      <point x="541" y="531" type="line"/>
    </contour>
    <contour>
      <point x="66" y="742" type="line"/>
      <point x="66" y="0" type="line"/>
      <point x="216" y="0" type="line"/>
      <point x="216" y="758" type="line"/>
    </contour>
    <contour>
      <point x="273" y="0" type="move" name="bottom"/>
    </contour>
  </outline>
</glyph>
<glyph name="l" format="1">
  <advance width="297"/>
  <unicode hex="006C"/>
  <outline>
    <contour>
      <point x="61" y="742" type="line"/>
      <point x="61" y="130" type="line" smooth="yes"/>
      <point x="61" y="35"/>
      <point x="111" y="-16"/>
      <point x="197" y="-16" type="curve" smooth="yes"/>
      <point x="233" y="-16"/>
      <point x="269" y="-9"/>
      <point x="296" y="2" type="curve"/>
      <point x="266" y="108" type="line"/>
      <point x="258" y="105"/>
      <point x="248" y="103"/>
      <point x="239" y="103" type="curve" smooth="yes"/>
      <point x="221" y="103"/>
      <point x="211" y="114"/>
      <point x="211" y="144" type="curve" smooth="yes"/>
      <point x="211" y="758" type="line"/>
    </contour>
    <contour>
      <point x="136" y="742" type="move" name="top"/>
    </contour>
    <contour>
      <point x="168" y="0" type="move" name="bottom"/>
    </contour>
    <contour>
      <point x="233" y="742" type="move" name="topright"/>
    </contour>
    <contour>
      <point x="349" y="376" type="move" name="center"/>
    </contour>
  </outline>
</glyph>
<glyph name="m" format="1">
  <advance width="846"/>
  <unicode hex="006D"/>
  <outline>
    <contour>
      <point x="289" y="547"/>
      <point x="238" y="513"/>
      <point x="196" y="450" type="curve"/>
      <point x="216" y="365" type="line"/>
      <point x="241" y="410"/>
      <point x="266" y="436"/>
      <point x="302" y="436" type="curve" smooth="yes"/>
      <point x="329" y="436"/>
      <point x="351" y="420"/>
      <point x="351" y="361" type="curve" smooth="yes"/>
      <point x="351" y="0" type="line"/>
      <point x="501" y="0" type="line"/>
      <point x="501" y="387" type="line"/>
      <point x="496" y="429" type="line"/>
      <point x="483" y="504"/>
      <point x="432" y="547"/>
      <point x="361" y="547" type="curve" smooth="yes"/>
    </contour>
    <contour>
      <point x="66" y="531" type="line"/>
      <point x="66" y="0" type="line"/>
      <point x="216" y="0" type="line"/>
      <point x="216" y="418" type="line"/>
      <point x="196" y="531" type="line"/>
    </contour>
    <contour>
      <point x="573" y="547"/>
      <point x="523" y="513"/>
      <point x="479" y="451" type="curve"/>
      <point x="501" y="365" type="line"/>
      <point x="526" y="410"/>
      <point x="551" y="436"/>
      <point x="587" y="436" type="curve" smooth="yes"/>
      <point x="613" y="436"/>
      <point x="635" y="420"/>
      <point x="635" y="361" type="curve" smooth="yes"/>
      <point x="635" y="0" type="line"/>
      <point x="785" y="0" type="line"/>
      <point x="785" y="387" type="line" smooth="yes"/>
      <point x="785" y="487"/>
      <point x="729" y="547"/>
      <point x="646" y="547" type="curve" smooth="yes"/>
    </contour>
  </outline>
</glyph>
<glyph name="n" format="1">
  <advance width="578"/>
  <unicode hex="006E"/>
  <outline>
    <contour>
      <point x="297" y="547"/>
      <point x="241" y="513"/>
      <point x="196" y="450" type="curve"/>
      <point x="216" y="365" type="line"/>
      <point x="244" y="410"/>
      <point x="275" y="436"/>
      <point x="313" y="436" type="curve" smooth="yes"/>
      <point x="346" y="436"/>
      <point x="367" y="420"/>
      <point x="367" y="361" type="curve" smooth="yes"/>
      <point x="367" y="0" type="line"/>
      <point x="517" y="0" type="line"/>
      <point x="517" y="387" type="line" smooth="yes"/>
      <point x="517" y="488"/>
      <point x="462" y="547"/>
      <point x="369" y="547" type="curve" smooth="yes"/>
    </contour>
    <contour>
      <point x="66" y="531" type="line"/>
      <point x="66" y="0" type="line"/>
      <point x="216" y="0" type="line"/>
      <point x="216" y="418" type="line"/>
      <point x="196" y="531" type="line"/>
    </contour>
    <contour>
      <point x="294" y="531" type="move" name="top"/>
    </contour>
    <contour>
      <point x="289" y="0" type="move" name="bottom"/>
    </contour>
  </outline>
</glyph>
<glyph name="o" format="1">
  <advance width="584"/>
  <unicode hex="006F"/>
  <outline>
    <contour>
      <point x="132" y="547"/>
      <point x="35" y="435"/>
      <point x="35" y="266" type="curve" smooth="yes"/>
      <point x="35" y="88"/>
      <point x="132" y="-16"/>
      <point x="292" y="-16" type="curve" smooth="yes"/>
      <point x="452" y="-16"/>
      <point x="549" y="96"/>
      <point x="549" y="265" type="curve" smooth="yes"/>
      <point x="549" y="442"/>
      <point x="452" y="547"/>
      <point x="292" y="547" type="curve" smooth="yes"/>
    </contour>
    <contour>
      <point x="359" y="436"/>
      <point x="393" y="385"/>
      <point x="393" y="265" type="curve" smooth="yes"/>
      <point x="393" y="147"/>
      <point x="359" y="95"/>
      <point x="292" y="95" type="curve" smooth="yes"/>
      <point x="225" y="95"/>
      <point x="191" y="146"/>
      <point x="191" y="266" type="curve" smooth="yes"/>
      <point x="191" y="383"/>
      <point x="225" y="436"/>
      <point x="292" y="436" type="curve" smooth="yes"/>
    </contour>
    <contour>
      <point x="292" y="531" type="move" name="top"/>
    </contour>
  </outline>
</glyph>
<glyph name="p" format="1">
  <advance width="597"/>
  <unicode hex="0070"/>
  <outline>
    <contour>
      <point x="301" y="547"/>
      <point x="238" y="520"/>
      <point x="194" y="454" type="curve"/>
      <point x="206" y="354" type="line"/>
      <point x="231" y="403"/>
      <point x="267" y="436"/>
      <point x="310" y="436" type="curve" smooth="yes"/>
      <point x="367" y="436"/>
      <point x="401" y="398"/>
      <point x="401" y="265" type="curve" smooth="yes"/>
      <point x="401" y="144"/>
      <point x="363" y="95"/>
      <point x="301" y="95" type="curve" smooth="yes"/>
      <point x="260" y="95"/>
      <point x="230" y="116"/>
      <point x="205" y="162" type="curve"/>
      <point x="205" y="53" type="line"/>
      <point x="239" y="6"/>
      <point x="287" y="-16"/>
      <point x="346" y="-16" type="curve" smooth="yes"/>
      <point x="478" y="-16"/>
      <point x="557" y="103"/>
      <point x="557" y="267" type="curve" smooth="yes"/>
      <point x="557" y="438"/>
      <point x="497" y="547"/>
      <point x="357" y="547" type="curve" smooth="yes"/>
    </contour>
    <contour>
      <point x="66" y="531" type="line"/>
      <point x="66" y="-221" type="line"/>
      <point x="216" y="-205" type="line"/>
      <point x="216" y="388" type="line"/>
      <point x="208" y="454" type="line"/>
      <point x="198" y="531" type="line"/>
    </contour>
  </outline>
</glyph>
<glyph name="q" format="1">
  <advance width="595"/>
  <unicode hex="0071"/>
  <outline>
    <contour>
      <point x="379" y="-205" type="line"/>
      <point x="529" y="-221" type="line"/>
      <point x="529" y="531" type="line"/>
      <point x="398" y="531" type="line"/>
      <point x="390" y="480" type="line"/>
      <point x="379" y="454" type="line"/>
    </contour>
    <contour>
      <point x="117" y="547"/>
      <point x="35" y="430"/>
      <point x="35" y="266" type="curve" smooth="yes"/>
      <point x="35" y="95"/>
      <point x="102" y="-16"/>
      <point x="236" y="-16" type="curve" smooth="yes"/>
      <point x="314" y="-16"/>
      <point x="366" y="25"/>
      <point x="396" y="79" type="curve"/>
      <point x="388" y="171" type="line"/>
      <point x="359" y="120"/>
      <point x="328" y="94"/>
      <point x="283" y="94" type="curve" smooth="yes"/>
      <point x="228" y="94"/>
      <point x="191" y="133"/>
      <point x="191" y="266" type="curve" smooth="yes"/>
      <point x="191" y="387"/>
      <point x="232" y="437"/>
      <point x="292" y="437" type="curve" smooth="yes"/>
      <point x="334" y="437"/>
      <point x="361" y="413"/>
      <point x="390" y="376" type="curve"/>
      <point x="397" y="476" type="line"/>
      <point x="358" y="522"/>
      <point x="309" y="547"/>
      <point x="254" y="547" type="curve" smooth="yes"/>
    </contour>
  </outline>
</glyph>
<glyph name="r" format="1">
  <advance width="399"/>
  <unicode hex="0072"/>
  <outline>
    <contour>
      <point x="282" y="546"/>
      <point x="227" y="496"/>
      <point x="205" y="412" type="curve"/>
      <point x="212" y="247" type="line"/>
      <point x="229" y="343"/>
      <point x="257" y="400"/>
      <point x="328" y="400" type="curve" smooth="yes"/>
      <point x="346" y="400"/>
      <point x="359" y="397"/>
      <point x="375" y="393" type="curve"/>
      <point x="400" y="538" type="line"/>
      <point x="382" y="543"/>
      <point x="366" y="546"/>
      <point x="347" y="546" type="curve" smooth="yes"/>
    </contour>
    <contour>
      <point x="66" y="531" type="line"/>
      <point x="66" y="0" type="line"/>
      <point x="216" y="0" type="line"/>
      <point x="216" y="284" type="line"/>
      <point x="211" y="415" type="line"/>
      <point x="196" y="531" type="line"/>
    </contour>
    <contour>
      <point x="234" y="531" type="move" name="top"/>
    </contour>
    <contour>
      <point x="141" y="0" type="move" name="bottom"/>
    </contour>
  </outline>
</glyph>
<glyph name="s" format="1">
  <advance width="481"/>
  <unicode hex="0073"/>
  <outline>
    <contour>
      <point x="116" y="547"/>
      <point x="34" y="477"/>
      <point x="34" y="387" type="curve" smooth="yes"/>
      <point x="34" y="306"/>
      <point x="85" y="253"/>
      <point x="191" y="223" type="curve" smooth="yes"/>
      <point x="288" y="195"/>
      <point x="305" y="184"/>
      <point x="305" y="144" type="curve" smooth="yes"/>
      <point x="305" y="112"/>
      <point x="274" y="92"/>
      <point x="223" y="92" type="curve" smooth="yes"/>
      <point x="171" y="92"/>
      <point x="122" y="113"/>
      <point x="83" y="145" type="curve"/>
      <point x="9" y="61" type="line"/>
      <point x="60" y="15"/>
      <point x="136" y="-16"/>
      <point x="227" y="-16" type="curve" smooth="yes"/>
      <point x="357" y="-16"/>
      <point x="460" y="47"/>
      <point x="460" y="157" type="curve" smooth="yes"/>
      <point x="460" y="251"/>
      <point x="400" y="295"/>
      <point x="295" y="325" type="curve" smooth="yes"/>
      <point x="201" y="352"/>
      <point x="185" y="365"/>
      <point x="185" y="395" type="curve" smooth="yes"/>
      <point x="185" y="421"/>
      <point x="208" y="439"/>
      <point x="258" y="439" type="curve" smooth="yes"/>
      <point x="299" y="439"/>
      <point x="343" y="424"/>
      <point x="385" y="396" type="curve"/>
      <point x="441" y="482" type="line"/>
      <point x="392" y="522"/>
      <point x="325" y="547"/>
      <point x="248" y="547" type="curve" smooth="yes"/>
    </contour>
    <contour>
      <point x="248" y="531" type="move" name="top"/>
    </contour>
    <contour>
      <point x="241" y="0" type="move" name="bottom"/>
    </contour>
  </outline>
</glyph>
<glyph name="t" format="1">
  <advance width="383"/>
  <unicode hex="0074"/>
  <outline>
    <contour>
      <point x="80" y="646" type="line"/>
      <point x="80" y="170" type="line" smooth="yes"/>
      <point x="80" y="49"/>
      <point x="136" y="-16"/>
      <point x="250" y="-16" type="curve" smooth="yes"/>
      <point x="298" y="-16"/>
      <point x="351" y="-3"/>
      <point x="391" y="25" type="curve"/>
      <point x="340" y="121" type="line"/>
      <point x="319" y="108"/>
      <point x="300" y="103"/>
      <point x="281" y="103" type="curve" smooth="yes"/>
      <point x="247" y="103"/>
      <point x="230" y="122"/>
      <point x="230" y="173" type="curve" smooth="yes"/>
      <point x="230" y="664" type="line"/>
    </contour>
    <contour>
      <point x="3" y="531" type="line"/>
      <point x="3" y="425" type="line"/>
      <point x="336" y="425" type="line"/>
      <point x="352" y="531" type="line"/>
    </contour>
    <contour>
      <point x="234" y="0" type="move" name="bottom"/>
    </contour>
    <contour>
      <point x="190" y="266" type="move" name="center"/>
    </contour>
    <contour>
      <point x="227" y="780" type="move" name="topright"/>
    </contour>
  </outline>
</glyph>
<glyph name="u" format="1">
  <advance width="573"/>
  <unicode hex="0075"/>
  <outline>
    <contour>
      <point x="357" y="531" type="line"/>
      <point x="357" y="160" type="line"/>
      <point x="333" y="119"/>
      <point x="301" y="95"/>
      <point x="266" y="95" type="curve" smooth="yes"/>
      <point x="230" y="95"/>
      <point x="211" y="113"/>
      <point x="211" y="168" type="curve" smooth="yes"/>
      <point x="211" y="531" type="line"/>
      <point x="61" y="531" type="line"/>
      <point x="61" y="150" type="line" smooth="yes"/>
      <point x="61" y="47"/>
      <point x="111" y="-16"/>
      <point x="209" y="-16" type="curve" smooth="yes"/>
      <point x="280" y="-16"/>
      <point x="331" y="11"/>
      <point x="370" y="69" type="curve"/>
      <point x="377" y="0" type="line"/>
      <point x="507" y="0" type="line"/>
      <point x="507" y="531" type="line"/>
    </contour>
    <contour>
      <point x="285" y="531" type="move" name="top"/>
    </contour>
    <contour>
      <point x="517" y="0" type="move" name="ogonek"/>
    </contour>
  </outline>
</glyph>
<glyph name="v" format="1">
  <advance width="511"/>
  <unicode hex="0076"/>
  <outline>
    <contour>
      <point x="361" y="531" type="line"/>
      <point x="258" y="115" type="line"/>
      <point x="159" y="531" type="line"/>
      <point x="-4" y="531" type="line"/>
      <point x="168" y="0" type="line"/>
      <point x="346" y="0" type="line"/>
      <point x="514" y="531" type="line"/>
    </contour>
  </outline>
</glyph>
<glyph name="w" format="1">
  <advance width="745"/>
  <unicode hex="0077"/>
  <outline>
    <contour>
      <point x="595" y="531" type="line"/>
      <point x="527" y="112" type="line"/>
      <point x="451" y="531" type="line"/>
      <point x="303" y="531" type="line"/>
      <point x="218" y="112" type="line"/>
      <point x="157" y="531" type="line"/>
      <point x="6" y="531" type="line"/>
      <point x="121" y="0" type="line"/>
      <point x="299" y="0" type="line"/>
      <point x="373" y="397" type="line"/>
      <point x="446" y="0" type="line"/>
      <point x="627" y="0" type="line"/>
      <point x="739" y="531" type="line"/>
    </contour>
    <contour>
      <point x="373" y="531" type="move" name="top"/>
    </contour>
  </outline>
</glyph>
<glyph name="x" format="1">
  <advance width="509"/>
  <unicode hex="0078"/>
  <outline>
    <contour>
      <point x="8" y="531" type="line"/>
      <point x="164" y="279" type="line"/>
      <point x="249" y="202" type="line"/>
      <point x="346" y="0" type="line"/>
      <point x="517" y="0" type="line"/>
      <point x="344" y="284" type="line"/>
      <point x="255" y="358" type="line"/>
      <point x="177" y="531" type="line"/>
    </contour>
    <contour>
      <point x="331" y="531" type="line"/>
      <point x="255" y="358" type="line"/>
      <point x="164" y="279" type="line"/>
      <point x="-9" y="0" type="line"/>
      <point x="155" y="0" type="line"/>
      <point x="249" y="202" type="line"/>
      <point x="344" y="284" type="line"/>
      <point x="492" y="531" type="line"/>
    </contour>
    <contour>
      <point x="459" y="0" type="move" name="bottomright"/>
    </contour>
  </outline>
</glyph>
<glyph name="y" format="1">
  <advance width="515"/>
  <unicode hex="0079"/>
  <outline>
    <contour>
      <point x="364" y="531" type="line"/>
      <point x="256" y="97" type="line"/>
      <point x="156" y="531" type="line"/>
      <point x="-4" y="531" type="line"/>
      <point x="160" y="0" type="line"/>
      <point x="211" y="0" type="line"/>
      <point x="182" y="-70"/>
      <point x="145" y="-101"/>
      <point x="41" y="-115" type="curve"/>
      <point x="57" y="-221" type="line"/>
      <point x="221" y="-211"/>
      <point x="308" y="-133"/>
      <point x="349" y="-1" type="curve" smooth="yes"/>
      <point x="519" y="531" type="line"/>
    </contour>
    <contour>
      <point x="257" y="531" type="move" name="top"/>
    </contour>
  </outline>
</glyph>
<glyph name="z" format="1">
  <advance width="456"/>
  <unicode hex="007A"/>
  <outline>
    <contour>
      <point x="35" y="531" type="line"/>
      <point x="35" y="417" type="line"/>
      <point x="260" y="417" type="line"/>
      <point x="14" y="107" type="line"/>
      <point x="14" y="0" type="line"/>
      <point x="423" y="0" type="line"/>
      <point x="437" y="115" type="line"/>
      <point x="188" y="115" type="line"/>
      <point x="432" y="424" type="line"/>
      <point x="432" y="531" type="line"/>
    </contour>
    <contour>
      <point x="231" y="531" type="move" name="top"/>
    </contour>
  </outline>
</glyph>
<glyph name="braceleft" format="1">
  <advance width="324"/>
  <unicode hex="007B"/>
  <outline>
    <contour>
      <point x="121" y="839"/>
      <point x="77" y="785"/>
      <point x="77" y="677" type="curve" smooth="yes"/>
      <point x="77" y="492" type="line" smooth="yes"/>
      <point x="77" y="435"/>
      <point x="63" y="411"/>
      <point x="11" y="411" type="curve"/>
      <point x="11" y="288" type="line"/>
      <point x="63" y="288"/>
      <point x="77" y="265"/>
      <point x="77" y="208" type="curve" smooth="yes"/>
      <point x="77" y="23" type="line" smooth="yes"/>
      <point x="77" y="-84"/>
      <point x="121" y="-139"/>
      <point x="295" y="-139" type="curve"/>
      <point x="295" y="-34" type="line"/>
      <point x="235" y="-34"/>
      <point x="218" y="-17"/>
      <point x="218" y="27" type="curve" smooth="yes"/>
      <point x="218" y="219" type="line" smooth="yes"/>
      <point x="218" y="305"/>
      <point x="179" y="335"/>
      <point x="117" y="349" type="curve"/>
      <point x="180" y="366"/>
      <point x="217" y="394"/>
      <point x="217" y="481" type="curve" smooth="yes"/>
      <point x="217" y="673" type="line" smooth="yes"/>
      <point x="217" y="717"/>
      <point x="235" y="734"/>
      <point x="295" y="734" type="curve"/>
      <point x="295" y="839" type="line"/>
    </contour>
  </outline>
</glyph>
<glyph name="bar" format="1">
  <advance width="379"/>
  <unicode hex="007C"/>
  <outline>
    <contour>
      <point x="120" y="810" type="line"/>
      <point x="120" y="-105" type="line"/>
      <point x="259" y="-105" type="line"/>
      <point x="259" y="810" type="line"/>
    </contour>
  </outline>
</glyph>
<glyph name="braceright" format="1">
  <advance width="324"/>
  <unicode hex="007D"/>
  <outline>
    <contour>
      <point x="29" y="734" type="line"/>
      <point x="89" y="734"/>
      <point x="107" y="717"/>
      <point x="107" y="673" type="curve" smooth="yes"/>
      <point x="107" y="481" type="line" smooth="yes"/>
      <point x="107" y="394"/>
      <point x="143" y="366"/>
      <point x="207" y="349" type="curve"/>
      <point x="144" y="335"/>
      <point x="106" y="305"/>
      <point x="106" y="219" type="curve" smooth="yes"/>
      <point x="106" y="27" type="line" smooth="yes"/>
      <point x="106" y="-17"/>
      <point x="88" y="-34"/>
      <point x="29" y="-34" type="curve"/>
      <point x="29" y="-139" type="line"/>
      <point x="203" y="-139"/>
      <point x="247" y="-84"/>
      <point x="247" y="23" type="curve" smooth="yes"/>
      <point x="247" y="208" type="line" smooth="yes"/>
      <point x="247" y="265"/>
      <point x="260" y="288"/>
      <point x="312" y="288" type="curve"/>
      <point x="312" y="411" type="line"/>
      <point x="260" y="411"/>
      <point x="247" y="435"/>
      <point x="247" y="492" type="curve" smooth="yes"/>
      <point x="247" y="677" type="line" smooth="yes"/>
      <point x="247" y="785"/>
      <point x="203" y="839"/>
      <point x="29" y="839" type="curve"/>
    </contour>
  </outline>
</glyph>
<glyph name="exclamdown" format="1">
  <advance width="240"/>
  <unicode hex="00A1"/>
  <outline>
    <contour>
      <point x="60" y="237" type="line"/>
      <point x="41" y="-205" type="line"/>
      <point x="201" y="-205" type="line"/>
      <point x="182" y="237" type="line"/>
    </contour>
    <contour>
      <point x="71" y="508"/>
      <point x="32" y="468"/>
      <point x="32" y="420" type="curve" smooth="yes"/>
      <point x="32" y="372"/>
      <point x="71" y="332"/>
      <point x="120" y="332" type="curve" smooth="yes"/>
      <point x="169" y="332"/>
      <point x="208" y="372"/>
      <point x="208" y="420" type="curve" smooth="yes"/>
      <point x="208" y="468"/>
      <point x="169" y="508"/>
      <point x="120" y="508" type="curve" smooth="yes"/>
    </contour>
  </outline>
</glyph>
<glyph name="sterling" format="1">
  <advance width="556"/>
  <unicode hex="00A3"/>
  <outline>
    <contour>
      <point x="191" y="709"/>
      <point x="119" y="622"/>
      <point x="119" y="504" type="curve"/>
      <point x="119" y="230" type="line"/>
      <point x="119" y="163"/>
      <point x="112" y="132"/>
      <point x="36" y="109" type="curve"/>
      <point x="36" y="0" type="line"/>
      <point x="499" y="0" type="line"/>
      <point x="516" y="115" type="line"/>
      <point x="203" y="115" type="line"/>
      <point x="255" y="143"/>
      <point x="267" y="179"/>
      <point x="267" y="236" type="curve"/>
      <point x="267" y="503" type="line"/>
      <point x="267" y="562"/>
      <point x="293" y="596"/>
      <point x="346" y="596" type="curve" smooth="yes"/>
      <point x="387" y="596"/>
      <point x="415" y="582"/>
      <point x="442" y="544" type="curve"/>
      <point x="535" y="612" type="line"/>
      <point x="486" y="677"/>
      <point x="423" y="709"/>
      <point x="332" y="709" type="curve" smooth="yes"/>
    </contour>
    <contour>
      <point x="52" y="401" type="line"/>
      <point x="52" y="322" type="line"/>
      <point x="459" y="322" type="line"/>
      <point x="459" y="401" type="line"/>
    </contour>
  </outline>
</glyph>
<glyph name="yen" format="1">
  <advance width="556"/>
  <unicode hex="00A5"/>
  <outline>
    <contour>
      <point x="421" y="693" type="line"/>
      <point x="282" y="392" type="line"/>
      <point x="140" y="693" type="line"/>
      <point x="-20" y="693" type="line"/>
      <point x="204" y="289" type="line"/>
      <point x="204" y="0" type="line"/>
      <point x="353" y="0" type="line"/>
      <point x="353" y="289" type="line"/>
      <point x="576" y="693" type="line"/>
    </contour>
    <contour>
      <point x="71" y="198" type="line"/>
      <point x="71" y="118" type="line"/>
      <point x="487" y="118" type="line"/>
      <point x="487" y="198" type="line"/>
    </contour>
    <contour>
      <point x="71" y="351" type="line"/>
      <point x="71" y="271" type="line"/>
      <point x="487" y="271" type="line"/>
      <point x="487" y="351" type="line"/>
    </contour>
  </outline>
</glyph>
<glyph name="brokenbar" format="1">
  <advance width="379"/>
  <unicode hex="00A6"/>
  <outline>
    <contour>
      <point x="120" y="810" type="line"/>
      <point x="120" y="443" type="line"/>
      <point x="259" y="443" type="line"/>
      <point x="259" y="810" type="line"/>
    </contour>
    <contour>
      <point x="120" y="262" type="line"/>
      <point x="120" y="-105" type="line"/>
      <point x="259" y="-105" type="line"/>
      <point x="259" y="262" type="line"/>
    </contour>
  </outline>
</glyph>
<glyph name="section" format="1">
  <advance width="556"/>
  <unicode hex="00A7"/>
  <outline>
    <contour>
      <point x="163" y="710"/>
      <point x="79" y="645"/>
      <point x="79" y="547" type="curve" smooth="yes"/>
      <point x="79" y="459"/>
      <point x="129" y="417"/>
      <point x="266" y="374" type="curve" smooth="yes"/>
      <point x="350" y="348"/>
      <point x="370" y="331"/>
      <point x="370" y="295" type="curve" smooth="yes"/>
      <point x="370" y="273"/>
      <point x="356" y="244"/>
      <point x="332" y="221" type="curve"/>
      <point x="412" y="185" type="line"/>
      <point x="462" y="213"/>
      <point x="502" y="256"/>
      <point x="502" y="315" type="curve" smooth="yes"/>
      <point x="502" y="400"/>
      <point x="445" y="437"/>
      <point x="344" y="466" type="curve" smooth="yes"/>
      <point x="237" y="497"/>
      <point x="222" y="512"/>
      <point x="222" y="553" type="curve" smooth="yes"/>
      <point x="222" y="587"/>
      <point x="249" y="605"/>
      <point x="302" y="605" type="curve" smooth="yes"/>
      <point x="354" y="605"/>
      <point x="397" y="593"/>
      <point x="440" y="567" type="curve"/>
      <point x="490" y="654" type="line"/>
      <point x="440" y="688"/>
      <point x="374" y="710"/>
      <point x="295" y="710" type="curve" smooth="yes"/>
    </contour>
    <contour>
      <point x="97" y="416"/>
      <point x="54" y="371"/>
      <point x="54" y="310" type="curve" smooth="yes"/>
      <point x="54" y="227"/>
      <point x="110" y="188"/>
      <point x="208" y="160" type="curve" smooth="yes"/>
      <point x="321" y="128"/>
      <point x="335" y="114"/>
      <point x="335" y="75" type="curve" smooth="yes"/>
      <point x="335" y="40"/>
      <point x="305" y="23"/>
      <point x="249" y="23" type="curve" smooth="yes"/>
      <point x="196" y="23"/>
      <point x="154" y="37"/>
      <point x="110" y="65" type="curve"/>
      <point x="62" y="-28" type="line"/>
      <point x="109" y="-60"/>
      <point x="173" y="-82"/>
      <point x="255" y="-82" type="curve" smooth="yes"/>
      <point x="392" y="-82"/>
      <point x="479" y="-18"/>
      <point x="479" y="81" type="curve" smooth="yes"/>
      <point x="479" y="175"/>
      <point x="422" y="205"/>
      <point x="270" y="256" type="curve" smooth="yes"/>
      <point x="202" y="278"/>
      <point x="186" y="296"/>
      <point x="186" y="332" type="curve" smooth="yes"/>
      <point x="186" y="354"/>
      <point x="197" y="383"/>
      <point x="222" y="407" type="curve"/>
      <point x="146" y="442" type="line"/>
    </contour>
  </outline>
</glyph>
<glyph name="dieresis" format="1">
  <advance width="447"/>
  <unicode hex="00A8"/>
  <outline>
    <contour>
      <point x="295" y="795"/>
      <point x="260" y="762"/>
      <point x="260" y="719" type="curve" smooth="yes"/>
      <point x="260" y="676"/>
      <point x="295" y="643"/>
      <point x="338" y="643" type="curve" smooth="yes"/>
      <point x="383" y="643"/>
      <point x="416" y="676"/>
      <point x="416" y="719" type="curve" smooth="yes"/>
      <point x="416" y="762"/>
      <point x="383" y="795"/>
      <point x="338" y="795" type="curve" smooth="yes"/>
    </contour>
    <contour>
      <point x="66" y="795"/>
      <point x="31" y="762"/>
      <point x="31" y="719" type="curve" smooth="yes"/>
      <point x="31" y="676"/>
      <point x="66" y="643"/>
      <point x="109" y="643" type="curve" smooth="yes"/>
      <point x="153" y="643"/>
      <point x="187" y="676"/>
      <point x="187" y="719" type="curve" smooth="yes"/>
      <point x="187" y="762"/>
      <point x="153" y="795"/>
      <point x="109" y="795" type="curve" smooth="yes"/>
    </contour>
    <contour>
      <point x="224" y="531" type="move" name="_top"/>
    </contour>
    <contour>
      <point x="222" y="713" type="move" name="top"/>
    </contour>
  </outline>
</glyph>
<glyph name="copyright" format="1">
  <advance width="810"/>
  <unicode hex="00A9"/>
  <outline>
    <contour>
      <point x="220" y="764"/>
      <point x="70" y="617"/>
      <point x="70" y="432" type="curve" smooth="yes"/>
      <point x="70" y="248"/>
      <point x="220" y="102"/>
      <point x="406" y="102" type="curve" smooth="yes"/>
      <point x="592" y="102"/>
      <point x="740" y="248"/>
      <point x="740" y="432" type="curve" smooth="yes"/>
      <point x="740" y="617"/>
      <point x="592" y="764"/>
      <point x="406" y="764" type="curve" smooth="yes"/>
    </contour>
    <contour>
      <point x="308" y="629"/>
      <point x="233" y="556"/>
      <point x="233" y="433" type="curve" smooth="yes"/>
      <point x="233" y="307"/>
      <point x="303" y="237"/>
      <point x="409" y="237" type="curve" smooth="yes"/>
      <point x="463" y="237"/>
      <point x="507" y="258"/>
      <point x="541" y="289" type="curve"/>
      <point x="498" y="352" type="line"/>
      <point x="473" y="332"/>
      <point x="449" y="322"/>
      <point x="417" y="322" type="curve" smooth="yes"/>
      <point x="372" y="322"/>
      <point x="342" y="353"/>
      <point x="342" y="433" type="curve" smooth="yes"/>
      <point x="342" y="515"/>
      <point x="376" y="546"/>
      <point x="419" y="546" type="curve" smooth="yes"/>
      <point x="444" y="546"/>
      <point x="465" y="540"/>
      <point x="490" y="520" type="curve"/>
      <point x="537" y="580" type="line"/>
      <point x="502" y="611"/>
      <point x="458" y="629"/>
      <point x="408" y="629" type="curve" smooth="yes"/>
    </contour>
    <contour>
      <point x="547" y="688"/>
      <point x="653" y="575"/>
      <point x="653" y="432" type="curve" smooth="yes"/>
      <point x="653" y="291"/>
      <point x="547" y="178"/>
      <point x="406" y="178" type="curve" smooth="yes"/>
      <point x="264" y="178"/>
      <point x="158" y="291"/>
      <point x="158" y="432" type="curve" smooth="yes"/>
      <point x="158" y="575"/>
      <point x="264" y="688"/>
      <point x="406" y="688" type="curve" smooth="yes"/>
    </contour>
  </outline>
</glyph>
<glyph name="ordfeminine" format="1">
  <advance width="500"/>
  <unicode hex="00AA"/>
  <outline>
    <contour>
      <point x="194" y="693"/>
      <point x="133" y="682"/>
      <point x="79" y="662" type="curve"/>
      <point x="110" y="575" type="line"/>
      <point x="152" y="588"/>
      <point x="195" y="596"/>
      <point x="221" y="596" type="curve" smooth="yes"/>
      <point x="271" y="596"/>
      <point x="289" y="584"/>
      <point x="289" y="540" type="curve"/>
      <point x="289" y="381" type="line"/>
      <point x="308" y="339" type="line"/>
      <point x="331" y="290"/>
      <point x="367" y="272"/>
      <point x="423" y="268" type="curve"/>
      <point x="450" y="355" type="line"/>
      <point x="430" y="362"/>
      <point x="422" y="373"/>
      <point x="422" y="403" type="curve" smooth="yes"/>
      <point x="422" y="548" type="line" smooth="yes"/>
      <point x="422" y="644"/>
      <point x="369" y="693"/>
      <point x="242" y="693" type="curve" smooth="yes"/>
    </contour>
    <contour>
      <point x="250" y="528" type="line"/>
      <point x="120" y="528"/>
      <point x="49" y="480"/>
      <point x="49" y="391" type="curve" smooth="yes"/>
      <point x="49" y="318"/>
      <point x="103" y="265"/>
      <point x="188" y="265" type="curve" smooth="yes"/>
      <point x="242" y="265"/>
      <point x="294" y="284"/>
      <point x="324" y="334" type="curve"/>
      <point x="298" y="403" type="line"/>
      <point x="285" y="379"/>
      <point x="262" y="361"/>
      <point x="231" y="361" type="curve" smooth="yes"/>
      <point x="202" y="361"/>
      <point x="187" y="377"/>
      <point x="187" y="402" type="curve" smooth="yes"/>
      <point x="187" y="438"/>
      <point x="212" y="455"/>
      <point x="263" y="455" type="curve" smooth="yes"/>
      <point x="308" y="455" type="line"/>
      <point x="308" y="528" type="line"/>
    </contour>
    <contour>
      <point x="459" y="0" type="line"/>
      <point x="459" y="117" type="line"/>
      <point x="54" y="117" type="line"/>
      <point x="54" y="0" type="line"/>
    </contour>
  </outline>
</glyph>
<glyph name="registered" format="1">
  <advance width="638"/>
  <unicode hex="00AE"/>
  <outline>
    <contour>
      <point x="164" y="758"/>
      <point x="47" y="639"/>
      <point x="47" y="485" type="curve" smooth="yes"/>
      <point x="47" y="332"/>
      <point x="164" y="215"/>
      <point x="319" y="215" type="curve" smooth="yes"/>
      <point x="475" y="215"/>
      <point x="591" y="332"/>
      <point x="591" y="485" type="curve" smooth="yes"/>
      <point x="591" y="639"/>
      <point x="475" y="758"/>
      <point x="319" y="758" type="curve" smooth="yes"/>
    </contour>
    <contour>
      <point x="301" y="468" type="line"/>
      <point x="366" y="352" type="line"/>
      <point x="446" y="352" type="line"/>
      <point x="365" y="482" type="line"/>
    </contour>
    <contour>
      <point x="435" y="693"/>
      <point x="516" y="603"/>
      <point x="516" y="485" type="curve" smooth="yes"/>
      <point x="516" y="368"/>
      <point x="435" y="280"/>
      <point x="319" y="280" type="curve" smooth="yes"/>
      <point x="204" y="280"/>
      <point x="122" y="368"/>
      <point x="122" y="485" type="curve" smooth="yes"/>
      <point x="122" y="603"/>
      <point x="204" y="693"/>
      <point x="319" y="693" type="curve" smooth="yes"/>
    </contour>
    <contour>
      <point x="217" y="634" type="line"/>
      <point x="217" y="352" type="line"/>
      <point x="286" y="352" type="line"/>
      <point x="286" y="582" type="line"/>
      <point x="314" y="582" type="line" smooth="yes"/>
      <point x="344" y="582"/>
      <point x="360" y="571"/>
      <point x="360" y="548" type="curve" smooth="yes"/>
      <point x="360" y="522"/>
      <point x="341" y="512"/>
      <point x="316" y="512" type="curve" smooth="yes"/>
      <point x="272" y="512" type="line"/>
      <point x="272" y="456" type="line"/>
      <point x="322" y="456" type="line"/>
      <point x="358" y="464" type="line"/>
      <point x="400" y="475"/>
      <point x="432" y="503"/>
      <point x="432" y="547" type="curve" smooth="yes"/>
      <point x="432" y="606"/>
      <point x="387" y="634"/>
      <point x="300" y="634" type="curve" smooth="yes"/>
    </contour>
  </outline>
</glyph>
<glyph name="acute" format="1">
  <advance width="335"/>
  <unicode hex="00B4"/>
  <outline>
    <contour>
      <point x="30" y="701" type="line"/>
      <point x="72" y="624" type="line"/>
      <point x="305" y="717" type="line"/>
      <point x="246" y="831" type="line"/>
    </contour>
    <contour>
      <point x="178" y="531" type="move" name="_top"/>
    </contour>
  </outline>
</glyph>
<glyph name="paragraph" format="1">
  <advance width="781"/>
  <unicode hex="00B6"/>
  <outline>
    <contour>
      <point x="334" y="692" type="line"/>
      <point x="305" y="653" type="line"/>
      <point x="305" y="-222" type="line"/>
      <point x="437" y="-205" type="line"/>
      <point x="437" y="587" type="line"/>
      <point x="531" y="587" type="line"/>
      <point x="531" y="-222" type="line"/>
      <point x="663" y="-205" type="line"/>
      <point x="663" y="693" type="line"/>
    </contour>
    <contour>
      <point x="165" y="696"/>
      <point x="68" y="612"/>
      <point x="68" y="478" type="curve" smooth="yes"/>
      <point x="68" y="352"/>
      <point x="153" y="262"/>
      <point x="327" y="266" type="curve"/>
      <point x="334" y="692" type="line"/>
    </contour>
  </outline>
</glyph>
<glyph name="cedilla" format="1">
  <advance width="315"/>
  <unicode hex="00B8"/>
  <outline>
    <contour>
      <point x="100" y="16" type="line"/>
      <point x="84" y="-110" type="line"/>
      <point x="148" y="-110"/>
      <point x="176" y="-121"/>
      <point x="176" y="-145" type="curve" smooth="yes"/>
      <point x="176" y="-168"/>
      <point x="156" y="-177"/>
      <point x="128" y="-177" type="curve" smooth="yes"/>
      <point x="103" y="-177"/>
      <point x="84" y="-170"/>
      <point x="65" y="-160" type="curve"/>
      <point x="30" y="-230" type="line"/>
      <point x="54" y="-247"/>
      <point x="94" y="-260"/>
      <point x="140" y="-260" type="curve" smooth="yes"/>
      <point x="228" y="-260"/>
      <point x="285" y="-214"/>
      <point x="285" y="-146" type="curve" smooth="yes"/>
      <point x="285" y="-94"/>
      <point x="254" y="-57"/>
      <point x="183" y="-49" type="curve"/>
      <point x="183" y="16" type="line"/>
    </contour>
    <contour>
      <point x="142" y="0" type="move" name="_bottom"/>
    </contour>
  </outline>
</glyph>
<glyph name="ordmasculine" format="1">
  <advance width="500"/>
  <unicode hex="00BA"/>
  <outline>
    <contour>
      <point x="119" y="693"/>
      <point x="39" y="609"/>
      <point x="39" y="479" type="curve" smooth="yes"/>
      <point x="39" y="342"/>
      <point x="120" y="265"/>
      <point x="251" y="265" type="curve" smooth="yes"/>
      <point x="382" y="265"/>
      <point x="462" y="349"/>
      <point x="462" y="478" type="curve" smooth="yes"/>
      <point x="462" y="616"/>
      <point x="381" y="693"/>
      <point x="250" y="693" type="curve" smooth="yes"/>
    </contour>
    <contour>
      <point x="299" y="595"/>
      <point x="322" y="562"/>
      <point x="322" y="478" type="curve" smooth="yes"/>
      <point x="322" y="398"/>
      <point x="299" y="363"/>
      <point x="251" y="363" type="curve" smooth="yes"/>
      <point x="202" y="363"/>
      <point x="179" y="397"/>
      <point x="179" y="479" type="curve" smooth="yes"/>
      <point x="179" y="560"/>
      <point x="202" y="595"/>
      <point x="250" y="595" type="curve" smooth="yes"/>
    </contour>
    <contour>
      <point x="458" y="0" type="line"/>
      <point x="458" y="117" type="line"/>
      <point x="42" y="117" type="line"/>
      <point x="42" y="0" type="line"/>
    </contour>
  </outline>
</glyph>
<glyph name="questiondown" format="1">
  <advance width="479"/>
  <unicode hex="00BF"/>
  <outline>
    <contour>
      <point x="332" y="-222"/>
      <point x="406" y="-182"/>
      <point x="462" y="-115" type="curve"/>
      <point x="367" y="-41" type="line"/>
      <point x="330" y="-83"/>
      <point x="288" y="-103"/>
      <point x="247" y="-103" type="curve" smooth="yes"/>
      <point x="201" y="-103"/>
      <point x="173" y="-81"/>
      <point x="173" y="-43" type="curve" smooth="yes"/>
      <point x="173" y="42"/>
      <point x="334" y="30"/>
      <point x="334" y="200" type="curve" smooth="yes"/>
      <point x="334" y="237" type="line"/>
      <point x="196" y="237" type="line"/>
      <point x="196" y="206" type="line" smooth="yes"/>
      <point x="196" y="94"/>
      <point x="16" y="106"/>
      <point x="16" y="-56" type="curve" smooth="yes"/>
      <point x="16" y="-143"/>
      <point x="88" y="-222"/>
      <point x="232" y="-222" type="curve" smooth="yes"/>
    </contour>
    <contour>
      <point x="312" y="332"/>
      <point x="351" y="372"/>
      <point x="351" y="420" type="curve" smooth="yes"/>
      <point x="351" y="468"/>
      <point x="312" y="508"/>
      <point x="263" y="508" type="curve" smooth="yes"/>
      <point x="214" y="508"/>
      <point x="175" y="468"/>
      <point x="175" y="420" type="curve" smooth="yes"/>
      <point x="175" y="372"/>
      <point x="214" y="332"/>
      <point x="263" y="332" type="curve" smooth="yes"/>
    </contour>
  </outline>
</glyph>
<glyph name="AE" format="1">
  <advance width="842"/>
  <unicode hex="00C6"/>
  <outline>
    <contour>
      <point x="251" y="693" type="line"/>
      <point x="-22" y="0" type="line"/>
      <point x="145" y="0" type="line"/>
      <point x="341" y="578" type="line"/>
      <point x="446" y="0" type="line"/>
      <point x="806" y="0" type="line"/>
      <point x="806" y="113" type="line"/>
      <point x="576" y="113" type="line"/>
      <point x="477" y="580" type="line"/>
      <point x="752" y="580" type="line"/>
      <point x="769" y="693" type="line"/>
    </contour>
    <contour>
      <point x="217" y="266" type="line"/>
      <point x="181" y="152" type="line"/>
      <point x="434" y="152" type="line"/>
      <point x="415" y="266" type="line"/>
    </contour>
    <contour>
      <point x="498" y="406" type="line"/>
      <point x="521" y="295" type="line"/>
      <point x="760" y="295" type="line"/>
      <point x="760" y="406" type="line"/>
    </contour>
    <contour>
      <point x="482" y="693" type="move" name="top"/>
    </contour>
  </outline>
</glyph>
<glyph name="Eth" format="1">
  <advance width="664"/>
  <unicode hex="00D0"/>
  <outline>
    <contour>
      <point x="83" y="401" type="line"/>
      <point x="15" y="401" type="line"/>
      <point x="15" y="305" type="line"/>
      <point x="375" y="305" type="line"/>
      <point x="375" y="401" type="line"/>
    </contour>
    <contour>
      <point x="82" y="693" type="line"/>
      <point x="82" y="0" type="line"/>
      <point x="286" y="0" type="line" smooth="yes"/>
      <point x="459" y="0"/>
      <point x="628" y="70"/>
      <point x="628" y="350" type="curve" smooth="yes"/>
      <point x="628" y="636"/>
      <point x="454" y="693"/>
      <point x="270" y="693" type="curve" smooth="yes"/>
    </contour>
    <contour>
      <point x="391" y="579"/>
      <point x="467" y="542"/>
      <point x="467" y="350" type="curve" smooth="yes"/>
      <point x="467" y="160"/>
      <point x="395" y="113"/>
      <point x="295" y="113" type="curve" smooth="yes"/>
      <point x="238" y="113" type="line"/>
      <point x="238" y="579" type="line"/>
      <point x="293" y="579" type="line" smooth="yes"/>
    </contour>
  </outline>
</glyph>
<glyph name="Oslash" format="1">
  <advance width="691"/>
  <unicode hex="00D8"/>
  <outline>
    <contour>
      <point x="153" y="709"/>
      <point x="36" y="573"/>
      <point x="36" y="346" type="curve" smooth="yes"/>
      <point x="36" y="115"/>
      <point x="153" y="-16"/>
      <point x="345" y="-16" type="curve" smooth="yes"/>
      <point x="538" y="-16"/>
      <point x="655" y="120"/>
      <point x="655" y="347" type="curve" smooth="yes"/>
      <point x="655" y="578"/>
      <point x="538" y="709"/>
      <point x="345" y="709" type="curve" smooth="yes"/>
    </contour>
    <contour>
      <point x="442" y="594"/>
      <point x="492" y="545"/>
      <point x="492" y="347" type="curve" smooth="yes"/>
      <point x="492" y="168"/>
      <point x="442" y="99"/>
      <point x="345" y="99" type="curve" smooth="yes"/>
      <point x="252" y="99"/>
      <point x="199" y="147"/>
      <point x="199" y="346" type="curve" smooth="yes"/>
      <point x="199" y="524"/>
      <point x="251" y="594"/>
      <point x="345" y="594" type="curve" smooth="yes"/>
    </contour>
    <contour>
      <point x="395" y="700" type="line"/>
      <point x="379" y="595" type="line"/>
      <point x="241" y="137" type="line"/>
      <point x="182" y="33" type="line"/>
      <point x="140" y="-102" type="line"/>
      <point x="258" y="-134" type="line"/>
      <point x="296" y="-7" type="line"/>
      <point x="312" y="96" type="line"/>
      <point x="449" y="556" type="line"/>
      <point x="509" y="661" type="line"/>
      <point x="552" y="795" type="line"/>
      <point x="434" y="827" type="line"/>
    </contour>
    <contour>
      <point x="343" y="724" type="move" name="top"/>
    </contour>
  </outline>
</glyph>
<glyph name="Thorn" format="1">
  <advance width="597"/>
  <unicode hex="00DE"/>
  <outline>
    <contour>
      <point x="214" y="583" type="line"/>
      <point x="225" y="471" type="line"/>
      <point x="286" y="471" type="line" smooth="yes"/>
      <point x="369" y="471"/>
      <point x="414" y="436"/>
      <point x="414" y="356" type="curve" smooth="yes"/>
      <point x="414" y="260"/>
      <point x="366" y="229"/>
      <point x="288" y="229" type="curve" smooth="yes"/>
      <point x="209" y="229" type="line"/>
      <point x="209" y="116" type="line"/>
      <point x="301" y="116" type="line" smooth="yes"/>
      <point x="460" y="116"/>
      <point x="575" y="190"/>
      <point x="575" y="356" type="curve" smooth="yes"/>
      <point x="575" y="510"/>
      <point x="466" y="583"/>
      <point x="288" y="583" type="curve" smooth="yes"/>
    </contour>
    <contour>
      <point x="69" y="693" type="line"/>
      <point x="69" y="0" type="line"/>
      <point x="225" y="0" type="line"/>
      <point x="225" y="693" type="line"/>
    </contour>
  </outline>
</glyph>
<glyph name="germandbls" format="1">
  <advance width="604"/>
  <unicode hex="00DF"/>
  <outline>
    <contour>
      <point x="148" y="758"/>
      <point x="66" y="673"/>
      <point x="66" y="534" type="curve" smooth="yes"/>
      <point x="66" y="0" type="line"/>
      <point x="216" y="0" type="line"/>
      <point x="216" y="538" type="line" smooth="yes"/>
      <point x="216" y="613"/>
      <point x="242" y="651"/>
      <point x="294" y="651" type="curve" smooth="yes"/>
      <point x="333" y="651"/>
      <point x="360" y="629"/>
      <point x="360" y="591" type="curve" smooth="yes"/>
      <point x="360" y="507"/>
      <point x="269" y="511"/>
      <point x="269" y="407" type="curve" smooth="yes"/>
      <point x="269" y="278"/>
      <point x="429" y="280"/>
      <point x="429" y="168" type="curve" smooth="yes"/>
      <point x="429" y="122"/>
      <point x="404" y="100"/>
      <point x="366" y="100" type="curve" smooth="yes"/>
      <point x="343" y="100"/>
      <point x="327" y="104"/>
      <point x="313" y="112" type="curve"/>
      <point x="268" y="10" type="line"/>
      <point x="298" y="-6"/>
      <point x="338" y="-16"/>
      <point x="385" y="-16" type="curve" smooth="yes"/>
      <point x="495" y="-16"/>
      <point x="584" y="51"/>
      <point x="584" y="165" type="curve" smooth="yes"/>
      <point x="584" y="341"/>
      <point x="399" y="354"/>
      <point x="399" y="431" type="curve" smooth="yes"/>
      <point x="399" y="493"/>
      <point x="501" y="508"/>
      <point x="501" y="604" type="curve" smooth="yes"/>
      <point x="501" y="689"/>
      <point x="429" y="758"/>
      <point x="298" y="758" type="curve" smooth="yes"/>
    </contour>
  </outline>
</glyph>
<glyph name="ae" format="1">
  <advance width="857"/>
  <unicode hex="00E6"/>
  <outline>
    <contour>
      <point x="435" y="547"/>
      <point x="372" y="417"/>
      <point x="339" y="264" type="curve"/>
      <point x="340" y="237" type="line" smooth="yes"/>
      <point x="344" y="91"/>
      <point x="435" y="-16"/>
      <point x="601" y="-16" type="curve" smooth="yes"/>
      <point x="685" y="-16"/>
      <point x="752" y="15"/>
      <point x="805" y="57" type="curve"/>
      <point x="743" y="141" type="line"/>
      <point x="697" y="109"/>
      <point x="659" y="94"/>
      <point x="615" y="94" type="curve" smooth="yes"/>
      <point x="539" y="94"/>
      <point x="490" y="130"/>
      <point x="490" y="264" type="curve" smooth="yes"/>
      <point x="490" y="399"/>
      <point x="523" y="446"/>
      <point x="586" y="446" type="curve" smooth="yes"/>
      <point x="651" y="446"/>
      <point x="676" y="395"/>
      <point x="676" y="319" type="curve" smooth="yes"/>
      <point x="676" y="317"/>
      <point x="676" y="315"/>
      <point x="676" y="313" type="curve"/>
      <point x="475" y="313" type="line"/>
      <point x="476" y="221" type="line"/>
      <point x="821" y="221" type="line"/>
      <point x="823" y="236"/>
      <point x="824" y="259"/>
      <point x="824" y="276" type="curve" smooth="yes"/>
      <point x="824" y="447"/>
      <point x="733" y="547"/>
      <point x="588" y="547" type="curve" smooth="yes"/>
    </contour>
    <contour>
      <point x="281" y="328" type="line"/>
      <point x="118" y="328"/>
      <point x="29" y="264"/>
      <point x="29" y="149" type="curve" smooth="yes"/>
      <point x="29" y="52"/>
      <point x="95" y="-16"/>
      <point x="205" y="-16" type="curve" smooth="yes"/>
      <point x="283" y="-16"/>
      <point x="351" y="9"/>
      <point x="400" y="86" type="curve"/>
      <point x="357" y="167" type="line"/>
      <point x="327" y="119"/>
      <point x="296" y="91"/>
      <point x="251" y="91" type="curve" smooth="yes"/>
      <point x="209" y="91"/>
      <point x="187" y="116"/>
      <point x="187" y="159" type="curve" smooth="yes"/>
      <point x="187" y="216"/>
      <point x="223" y="241"/>
      <point x="296" y="241" type="curve" smooth="yes"/>
      <point x="359" y="241" type="line"/>
      <point x="359" y="328" type="line"/>
    </contour>
    <contour>
      <point x="210" y="547"/>
      <point x="138" y="534"/>
      <point x="72" y="508" type="curve"/>
      <point x="106" y="408" type="line"/>
      <point x="160" y="426"/>
      <point x="211" y="436"/>
      <point x="246" y="436" type="curve" smooth="yes"/>
      <point x="311" y="436"/>
      <point x="338" y="415"/>
      <point x="338" y="351" type="curve"/>
      <point x="339" y="264" type="line"/>
      <point x="487" y="263" type="line"/>
      <point x="477" y="360" type="line"/>
      <point x="458" y="465"/>
      <point x="413" y="547"/>
      <point x="270" y="547" type="curve" smooth="yes"/>
    </contour>
    <contour>
      <point x="427" y="531" type="move" name="top"/>
    </contour>
  </outline>
</glyph>
<glyph name="eth" format="1">
  <advance width="578"/>
  <unicode hex="00F0"/>
  <outline>
    <contour>
      <point x="85" y="658" type="line"/>
      <point x="127" y="650"/>
      <point x="174" y="639"/>
      <point x="229" y="615" type="curve"/>
      <point x="321" y="558"/>
      <point x="358" y="500"/>
      <point x="380" y="417" type="curve"/>
      <point x="383" y="344" type="line"/>
      <point x="384" y="316"/>
      <point x="385" y="288"/>
      <point x="385" y="257" type="curve" smooth="yes"/>
      <point x="385" y="147"/>
      <point x="351" y="94"/>
      <point x="284" y="94" type="curve" smooth="yes"/>
      <point x="226" y="94"/>
      <point x="188" y="137"/>
      <point x="188" y="237" type="curve" smooth="yes"/>
      <point x="188" y="318"/>
      <point x="212" y="373"/>
      <point x="281" y="373" type="curve" smooth="yes"/>
      <point x="330" y="373"/>
      <point x="367" y="352"/>
      <point x="394" y="314" type="curve"/>
      <point x="387" y="419" type="line"/>
      <point x="350" y="456"/>
      <point x="305" y="479"/>
      <point x="242" y="479" type="curve" smooth="yes"/>
      <point x="119" y="479"/>
      <point x="35" y="368"/>
      <point x="35" y="234" type="curve" smooth="yes"/>
      <point x="35" y="75"/>
      <point x="143" y="-16"/>
      <point x="282" y="-16" type="curve" smooth="yes"/>
      <point x="444" y="-16"/>
      <point x="538" y="111"/>
      <point x="538" y="275" type="curve" smooth="yes"/>
      <point x="538" y="463"/>
      <point x="481" y="598"/>
      <point x="310" y="699" type="curve"/>
      <point x="229" y="733"/>
      <point x="177" y="747"/>
      <point x="115" y="757" type="curve"/>
    </contour>
    <contour>
      <point x="250" y="707" type="line"/>
      <point x="189" y="645" type="line"/>
      <point x="120" y="574" type="line"/>
      <point x="215" y="529" type="line"/>
      <point x="284" y="596" type="line"/>
      <point x="347" y="661" type="line"/>
      <point x="412" y="727" type="line"/>
      <point x="334" y="795" type="line"/>
    </contour>
  </outline>
</glyph>
<glyph name="oslash" format="1">
  <advance width="584"/>
  <unicode hex="00F8"/>
  <outline>
    <contour>
      <point x="132" y="547"/>
      <point x="35" y="435"/>
      <point x="35" y="266" type="curve" smooth="yes"/>
      <point x="35" y="88"/>
      <point x="132" y="-16"/>
      <point x="292" y="-16" type="curve" smooth="yes"/>
      <point x="452" y="-16"/>
      <point x="549" y="96"/>
      <point x="549" y="265" type="curve" smooth="yes"/>
      <point x="549" y="442"/>
      <point x="452" y="547"/>
      <point x="292" y="547" type="curve" smooth="yes"/>
    </contour>
    <contour>
      <point x="359" y="436"/>
      <point x="398" y="411"/>
      <point x="398" y="265" type="curve" smooth="yes"/>
      <point x="398" y="147"/>
      <point x="359" y="95"/>
      <point x="292" y="95" type="curve" smooth="yes"/>
      <point x="225" y="95"/>
      <point x="186" y="120"/>
      <point x="186" y="266" type="curve" smooth="yes"/>
      <point x="186" y="383"/>
      <point x="225" y="436"/>
      <point x="292" y="436" type="curve" smooth="yes"/>
    </contour>
    <contour>
      <point x="328" y="544" type="line"/>
      <point x="312" y="439" type="line"/>
      <point x="209" y="130" type="line"/>
      <point x="151" y="30" type="line"/>
      <point x="108" y="-102" type="line"/>
      <point x="219" y="-134" type="line"/>
      <point x="258" y="-10" type="line"/>
      <point x="271" y="87" type="line"/>
      <point x="374" y="395" type="line"/>
      <point x="436" y="509" type="line"/>
      <point x="477" y="633" type="line"/>
      <point x="367" y="665" type="line"/>
    </contour>
    <contour>
      <point x="293" y="531" type="move" name="top"/>
    </contour>
  </outline>
</glyph>
<glyph name="dcroat" format="1">
  <advance width="604"/>
  <unicode hex="0111"/>
  <outline>
    <contour>
      <point x="238" y="687" type="line"/>
      <point x="251" y="597" type="line"/>
      <point x="534" y="597" type="line"/>
      <point x="598" y="597" type="line"/>
      <point x="598" y="687" type="line"/>
    </contour>
    <contour>
      <point x="122" y="547"/>
      <point x="40" y="430"/>
      <point x="40" y="266" type="curve" smooth="yes"/>
      <point x="40" y="95"/>
      <point x="107" y="-16"/>
      <point x="241" y="-16" type="curve" smooth="yes"/>
      <point x="319" y="-16"/>
      <point x="371" y="25"/>
      <point x="401" y="76" type="curve"/>
      <point x="393" y="171" type="line"/>
      <point x="364" y="120"/>
      <point x="333" y="94"/>
      <point x="288" y="94" type="curve" smooth="yes"/>
      <point x="233" y="94"/>
      <point x="196" y="133"/>
      <point x="196" y="266" type="curve" smooth="yes"/>
      <point x="196" y="387"/>
      <point x="237" y="437"/>
      <point x="297" y="437" type="curve" smooth="yes"/>
      <point x="339" y="437"/>
      <point x="366" y="413"/>
      <point x="395" y="376" type="curve"/>
      <point x="394" y="484" type="line"/>
      <point x="361" y="521"/>
      <point x="314" y="547"/>
      <point x="259" y="547" type="curve" smooth="yes"/>
    </contour>
    <contour>
      <point x="384" y="141" type="line"/>
      <point x="391" y="78" type="line"/>
      <point x="401" y="0" type="line"/>
      <point x="534" y="0" type="line"/>
      <point x="534" y="742" type="line"/>
      <point x="384" y="758" type="line"/>
    </contour>
  </outline>
</glyph>
<glyph name="Hbar" format="1">
  <advance width="679"/>
  <unicode hex="0126"/>
  <outline>
    <contour>
      <point x="605" y="590" type="line"/>
      <point x="16" y="590" type="line"/>
      <point x="16" y="501" type="line"/>
      <point x="74" y="501" type="line"/>
      <point x="663" y="501" type="line"/>
      <point x="663" y="590" type="line"/>
    </contour>
    <contour>
      <point x="604" y="0" type="line"/>
      <point x="604" y="693" type="line"/>
      <point x="449" y="693" type="line"/>
      <point x="449" y="422" type="line"/>
      <point x="230" y="422" type="line"/>
      <point x="230" y="693" type="line"/>
      <point x="74" y="693" type="line"/>
      <point x="74" y="0" type="line"/>
      <point x="230" y="0" type="line"/>
      <point x="230" y="300" type="line"/>
      <point x="449" y="300" type="line"/>
      <point x="449" y="0" type="line"/>
    </contour>
  </outline>
</glyph>
<glyph name="hbar" format="1">
  <advance width="581"/>
  <unicode hex="0127"/>
  <outline>
    <contour>
      <point x="6" y="687" type="line"/>
      <point x="6" y="597" type="line"/>
      <point x="70" y="597" type="line"/>
      <point x="348" y="597" type="line"/>
      <point x="360" y="687" type="line"/>
    </contour>
    <contour>
      <point x="299" y="547"/>
      <point x="245" y="512"/>
      <point x="198" y="446" type="curve"/>
      <point x="219" y="365" type="line"/>
      <point x="247" y="410"/>
      <point x="278" y="436"/>
      <point x="316" y="436" type="curve" smooth="yes"/>
      <point x="348" y="436"/>
      <point x="370" y="420"/>
      <point x="370" y="361" type="curve" smooth="yes"/>
      <point x="370" y="0" type="line"/>
      <point x="520" y="0" type="line"/>
      <point x="520" y="387" type="line" smooth="yes"/>
      <point x="520" y="487"/>
      <point x="464" y="547"/>
      <point x="372" y="547" type="curve" smooth="yes"/>
    </contour>
    <contour>
      <point x="69" y="741" type="line"/>
      <point x="69" y="0" type="line"/>
      <point x="219" y="0" type="line"/>
      <point x="219" y="757" type="line"/>
    </contour>
  </outline>
</glyph>
<glyph name="kgreenlandic" format="1">
  <advance width="546"/>
  <unicode hex="0138"/>
  <outline>
    <contour>
      <point x="386" y="531" type="line"/>
      <point x="220" y="280" type="line"/>
      <point x="384" y="0" type="line"/>
      <point x="554" y="0" type="line"/>
      <point x="375" y="287" type="line"/>
      <point x="540" y="531" type="line"/>
    </contour>
    <contour>
      <point x="66" y="531" type="line"/>
      <point x="66" y="0" type="line"/>
      <point x="216" y="0" type="line"/>
      <point x="216" y="531" type="line"/>
    </contour>
  </outline>
</glyph>
<glyph name="Lslash" format="1">
  <advance width="548"/>
  <unicode hex="0141"/>
  <outline>
    <contour>
      <point x="106" y="344" type="line"/>
      <point x="10" y="285" type="line"/>
      <point x="62" y="201" type="line"/>
      <point x="445" y="439" type="line"/>
      <point x="393" y="522" type="line"/>
    </contour>
    <contour>
      <point x="106" y="693" type="line"/>
      <point x="106" y="0" type="line"/>
      <point x="517" y="0" type="line"/>
      <point x="533" y="124" type="line"/>
      <point x="261" y="124" type="line"/>
      <point x="261" y="693" type="line"/>
    </contour>
  </outline>
</glyph>
<glyph name="lslash" format="1">
  <advance width="340"/>
  <unicode hex="0142"/>
  <outline>
    <contour>
      <point x="-1" y="342" type="line"/>
      <point x="38" y="249" type="line"/>
      <point x="334" y="430" type="line"/>
      <point x="297" y="525" type="line"/>
    </contour>
    <contour>
      <point x="84" y="742" type="line"/>
      <point x="84" y="130" type="line" smooth="yes"/>
      <point x="84" y="35"/>
      <point x="134" y="-16"/>
      <point x="221" y="-16" type="curve" smooth="yes"/>
      <point x="256" y="-16"/>
      <point x="293" y="-9"/>
      <point x="319" y="2" type="curve"/>
      <point x="289" y="108" type="line"/>
      <point x="282" y="105"/>
      <point x="271" y="103"/>
      <point x="262" y="103" type="curve" smooth="yes"/>
      <point x="244" y="103"/>
      <point x="234" y="114"/>
      <point x="234" y="144" type="curve" smooth="yes"/>
      <point x="234" y="758" type="line"/>
    </contour>
  </outline>
</glyph>
<glyph name="Eng" format="1">
  <advance width="665"/>
  <unicode hex="014A"/>
  <outline>
    <contour>
      <point x="457" y="693" type="line"/>
      <point x="457" y="401" type="line" smooth="yes"/>
      <point x="457" y="294"/>
      <point x="470" y="200"/>
      <point x="480" y="155" type="curve"/>
      <point x="476" y="155" type="line"/>
      <point x="264" y="693" type="line"/>
      <point x="69" y="693" type="line"/>
      <point x="69" y="0" type="line"/>
      <point x="209" y="0" type="line"/>
      <point x="209" y="261" type="line" smooth="yes"/>
      <point x="209" y="390"/>
      <point x="195" y="479"/>
      <point x="185" y="536" type="curve"/>
      <point x="189" y="536" type="line"/>
      <point x="397" y="0" type="line"/>
      <point x="463" y="0" type="line"/>
      <point x="597" y="57" type="line"/>
      <point x="597" y="693" type="line"/>
    </contour>
    <contour>
      <point x="460" y="47" type="line"/>
      <point x="460" y="-58"/>
      <point x="424" y="-85"/>
      <point x="344" y="-120" type="curve"/>
      <point x="389" y="-220" type="line"/>
      <point x="512" y="-174"/>
      <point x="597" y="-114"/>
      <point x="597" y="57" type="curve"/>
    </contour>
  </outline>
</glyph>
<glyph name="eng" format="1">
  <advance width="578"/>
  <unicode hex="014B"/>
  <outline>
    <contour>
      <point x="297" y="547"/>
      <point x="241" y="513"/>
      <point x="196" y="450" type="curve"/>
      <point x="216" y="365" type="line"/>
      <point x="244" y="410"/>
      <point x="275" y="436"/>
      <point x="313" y="436" type="curve" smooth="yes"/>
      <point x="345" y="436"/>
      <point x="367" y="420"/>
      <point x="367" y="361" type="curve" smooth="yes"/>
      <point x="367" y="106" type="line"/>
      <point x="517" y="106" type="line"/>
      <point x="517" y="387" type="line" smooth="yes"/>
      <point x="517" y="487"/>
      <point x="461" y="547"/>
      <point x="369" y="547" type="curve" smooth="yes"/>
    </contour>
    <contour>
      <point x="66" y="531" type="line"/>
      <point x="66" y="0" type="line"/>
      <point x="216" y="0" type="line"/>
      <point x="216" y="418" type="line"/>
      <point x="196" y="531" type="line"/>
    </contour>
    <contour>
      <point x="367" y="117" type="line"/>
      <point x="367" y="47" type="line" smooth="yes"/>
      <point x="367" y="-51"/>
      <point x="328" y="-80"/>
      <point x="260" y="-111" type="curve"/>
      <point x="309" y="-220" type="line"/>
      <point x="432" y="-174"/>
      <point x="517" y="-114"/>
      <point x="517" y="57" type="curve" smooth="yes"/>
      <point x="517" y="117" type="line"/>
    </contour>
  </outline>
</glyph>
<glyph name="OE" format="1">
  <advance width="909"/>
  <unicode hex="0152"/>
  <outline>
    <contour>
      <point x="153" y="709"/>
      <point x="36" y="573"/>
      <point x="36" y="346" type="curve" smooth="yes"/>
      <point x="36" y="115"/>
      <point x="153" y="-16"/>
      <point x="330" y="-16" type="curve" smooth="yes"/>
      <point x="398" y="-16"/>
      <point x="459" y="7"/>
      <point x="498" y="55" type="curve"/>
      <point x="588" y="110"/>
      <point x="635" y="222"/>
      <point x="635" y="347" type="curve" smooth="yes"/>
      <point x="635" y="473"/>
      <point x="591" y="583"/>
      <point x="502" y="642" type="curve"/>
      <point x="463" y="686"/>
      <point x="400" y="709"/>
      <point x="330" y="709" type="curve" smooth="yes"/>
    </contour>
    <contour>
      <point x="540" y="113" type="line"/>
      <point x="417" y="0" type="line"/>
      <point x="866" y="0" type="line"/>
      <point x="866" y="113" type="line"/>
    </contour>
    <contour>
      <point x="596" y="407" type="line"/>
      <point x="596" y="297" type="line"/>
      <point x="817" y="297" type="line"/>
      <point x="817" y="407" type="line"/>
    </contour>
    <contour>
      <point x="417" y="693" type="line"/>
      <point x="550" y="580" type="line"/>
      <point x="849" y="580" type="line"/>
      <point x="865" y="693" type="line"/>
    </contour>
    <contour>
      <point x="422" y="594"/>
      <point x="472" y="524"/>
      <point x="472" y="347" type="curve" smooth="yes"/>
      <point x="472" y="168"/>
      <point x="422" y="99"/>
      <point x="335" y="99" type="curve" smooth="yes"/>
      <point x="252" y="99"/>
      <point x="199" y="168"/>
      <point x="199" y="346" type="curve" smooth="yes"/>
      <point x="199" y="524"/>
      <point x="251" y="594"/>
      <point x="335" y="594" type="curve" smooth="yes"/>
    </contour>
  </outline>
</glyph>
<glyph name="oe" format="1">
  <advance width="911"/>
  <unicode hex="0153"/>
  <outline>
    <contour>
      <point x="132" y="547"/>
      <point x="35" y="434"/>
      <point x="35" y="266" type="curve" smooth="yes"/>
      <point x="35" y="88"/>
      <point x="131" y="-16"/>
      <point x="291" y="-16" type="curve" smooth="yes"/>
      <point x="439" y="-16"/>
      <point x="516" y="93"/>
      <point x="548" y="266" type="curve"/>
      <point x="522" y="436"/>
      <point x="440" y="547"/>
      <point x="292" y="547" type="curve" smooth="yes"/>
    </contour>
    <contour>
      <point x="358" y="436"/>
      <point x="392" y="383"/>
      <point x="392" y="266" type="curve" smooth="yes"/>
      <point x="392" y="146"/>
      <point x="358" y="95"/>
      <point x="291" y="95" type="curve" smooth="yes"/>
      <point x="225" y="95"/>
      <point x="191" y="146"/>
      <point x="191" y="266" type="curve" smooth="yes"/>
      <point x="191" y="383"/>
      <point x="225" y="436"/>
      <point x="292" y="436" type="curve" smooth="yes"/>
    </contour>
    <contour>
      <point x="490" y="547"/>
      <point x="417" y="422"/>
      <point x="392" y="262" type="curve"/>
      <point x="424" y="98"/>
      <point x="493" y="-16"/>
      <point x="655" y="-16" type="curve" smooth="yes"/>
      <point x="739" y="-16"/>
      <point x="806" y="15"/>
      <point x="859" y="57" type="curve"/>
      <point x="797" y="141" type="line"/>
      <point x="751" y="109"/>
      <point x="713" y="94"/>
      <point x="669" y="94" type="curve" smooth="yes"/>
      <point x="593" y="94"/>
      <point x="544" y="130"/>
      <point x="544" y="264" type="curve" smooth="yes"/>
      <point x="544" y="399"/>
      <point x="577" y="446"/>
      <point x="640" y="446" type="curve" smooth="yes"/>
      <point x="705" y="446"/>
      <point x="730" y="395"/>
      <point x="730" y="319" type="curve" smooth="yes"/>
      <point x="730" y="317"/>
      <point x="730" y="315"/>
      <point x="730" y="313" type="curve"/>
      <point x="529" y="313" type="line"/>
      <point x="530" y="221" type="line"/>
      <point x="875" y="221" type="line"/>
      <point x="877" y="236"/>
      <point x="878" y="259"/>
      <point x="878" y="276" type="curve" smooth="yes"/>
      <point x="878" y="447"/>
      <point x="787" y="547"/>
      <point x="637" y="547" type="curve" smooth="yes"/>
    </contour>
    <contour>
      <point x="465" y="531" type="move" name="top"/>
    </contour>
  </outline>
</glyph>
<glyph name="Tbar" format="1">
  <advance width="538"/>
  <unicode hex="0166"/>
  <outline>
    <contour>
      <point x="75" y="389" type="line"/>
      <point x="75" y="299" type="line"/>
      <point x="191" y="299" type="line"/>
      <point x="463" y="299" type="line"/>
      <point x="463" y="389" type="line"/>
    </contour>
    <contour>
      <point x="10" y="692" type="line"/>
      <point x="10" y="571" type="line"/>
      <point x="191" y="571" type="line"/>
      <point x="191" y="-1" type="line"/>
      <point x="346" y="-1" type="line"/>
      <point x="346" y="571" type="line"/>
      <point x="519" y="571" type="line"/>
      <point x="535" y="692" type="line"/>
    </contour>
  </outline>
</glyph>
<glyph name="tbar" format="1">
  <advance width="386"/>
  <unicode hex="0167"/>
  <outline>
    <contour>
      <point x="80" y="361" type="line"/>
      <point x="12" y="361" type="line"/>
      <point x="12" y="261" type="line"/>
      <point x="326" y="261" type="line"/>
      <point x="342" y="361" type="line"/>
    </contour>
    <contour>
      <point x="80" y="646" type="line"/>
      <point x="80" y="170" type="line" smooth="yes"/>
      <point x="80" y="49"/>
      <point x="136" y="-16"/>
      <point x="250" y="-16" type="curve" smooth="yes"/>
      <point x="298" y="-16"/>
      <point x="351" y="-3"/>
      <point x="391" y="25" type="curve"/>
      <point x="340" y="121" type="line"/>
      <point x="319" y="108"/>
      <point x="300" y="103"/>
      <point x="281" y="103" type="curve" smooth="yes"/>
      <point x="247" y="103"/>
      <point x="230" y="122"/>
      <point x="230" y="173" type="curve" smooth="yes"/>
      <point x="230" y="664" type="line"/>
    </contour>
    <contour>
      <point x="3" y="531" type="line"/>
      <point x="3" y="425" type="line"/>
      <point x="336" y="425" type="line"/>
      <point x="352" y="531" type="line"/>
    </contour>
  </outline>
</glyph>
<glyph name="florin" format="1">
  <advance width="333"/>
  <unicode hex="0192"/>
  <outline>
    <contour>
      <point x="131" y="758"/>
      <point x="65" y="680"/>
      <point x="65" y="580" type="curve" smooth="yes"/>
      <point x="65" y="47" type="line"/>
      <point x="215" y="104" type="line"/>
      <point x="215" y="575" type="line" smooth="yes"/>
      <point x="215" y="626"/>
      <point x="231" y="646"/>
      <point x="286" y="646" type="curve" smooth="yes"/>
      <point x="312" y="646"/>
      <point x="340" y="641"/>
      <point x="374" y="626" type="curve"/>
      <point x="415" y="725" type="line"/>
      <point x="373" y="744"/>
      <point x="323" y="758"/>
      <point x="263" y="758" type="curve" smooth="yes"/>
    </contour>
    <contour>
      <point x="-17" y="531" type="line"/>
      <point x="-17" y="425" type="line"/>
      <point x="324" y="425" type="line"/>
      <point x="341" y="531" type="line"/>
    </contour>
    <contour>
      <point x="65" y="398" type="line"/>
      <point x="65" y="47" type="line" smooth="yes"/>
      <point x="65" y="-51"/>
      <point x="26" y="-80"/>
      <point x="-42" y="-111" type="curve"/>
      <point x="7" y="-220" type="line"/>
      <point x="130" y="-174"/>
      <point x="215" y="-114"/>
      <point x="215" y="57" type="curve" smooth="yes"/>
      <point x="215" y="398" type="line"/>
    </contour>
  </outline>
</glyph>
<glyph name="jdotless" format="1">
  <advance width="281"/>
  <unicode hex="0237"/>
  <outline>
    <contour>
      <point x="65" y="531" type="line"/>
      <point x="65" y="47" type="line" smooth="yes"/>
      <point x="65" y="-51"/>
      <point x="26" y="-80"/>
      <point x="-42" y="-111" type="curve"/>
      <point x="7" y="-220" type="line"/>
      <point x="130" y="-174"/>
      <point x="215" y="-114"/>
      <point x="215" y="57" type="curve" smooth="yes"/>
      <point x="215" y="531" type="line"/>
    </contour>
    <contour>
      <point x="141" y="531" type="move" name="top"/>
    </contour>
  </outline>
</glyph>
<glyph name="uni02BC" format="1">
  <advance width="199"/>
  <unicode hex="02BC"/>
  <outline>
    <contour>
      <point x="62" y="757"/>
      <point x="32" y="727"/>
      <point x="32" y="691" type="curve" smooth="yes"/>
      <point x="32" y="666"/>
      <point x="44" y="648"/>
      <point x="61" y="635" type="curve"/>
      <point x="36" y="533" type="line"/>
      <point x="103" y="533" type="line"/>
      <point x="144" y="615" type="line" smooth="yes"/>
      <point x="162" y="651"/>
      <point x="169" y="669"/>
      <point x="169" y="691" type="curve" smooth="yes"/>
      <point x="169" y="729"/>
      <point x="139" y="757"/>
      <point x="101" y="757" type="curve" smooth="yes"/>
    </contour>
    <contour>
      <point x="118" y="531" type="move" name="_topleft"/>
    </contour>
  </outline>
</glyph>
<glyph name="circumflex" format="1">
  <advance width="434"/>
  <unicode hex="02C6"/>
  <outline>
    <contour>
      <point x="217" y="713" type="line"/>
      <point x="349" y="622" type="line"/>
      <point x="404" y="684" type="line"/>
      <point x="263" y="818" type="line"/>
      <point x="170" y="818" type="line"/>
      <point x="30" y="684" type="line"/>
      <point x="84" y="622" type="line"/>
    </contour>
    <contour>
      <point x="217" y="531" type="move" name="_top"/>
    </contour>
  </outline>
</glyph>
<glyph name="breve" format="1">
  <advance width="400"/>
  <unicode hex="02D8"/>
  <outline>
    <contour>
      <point x="301" y="634"/>
      <point x="362" y="707"/>
      <point x="370" y="801" type="curve"/>
      <point x="286" y="816" type="line"/>
      <point x="273" y="768"/>
      <point x="245" y="739"/>
      <point x="199" y="739" type="curve" smooth="yes"/>
      <point x="153" y="739"/>
      <point x="126" y="768"/>
      <point x="114" y="816" type="curve"/>
      <point x="30" y="801" type="line"/>
      <point x="38" y="707"/>
      <point x="97" y="634"/>
      <point x="199" y="634" type="curve" smooth="yes"/>
    </contour>
    <contour>
      <point x="200" y="531" type="move" name="_top"/>
    </contour>
  </outline>
</glyph>
<glyph name="dotaccent" format="1">
  <advance width="240"/>
  <unicode hex="02D9"/>
  <outline>
    <contour>
      <point x="67" y="807"/>
      <point x="30" y="769"/>
      <point x="30" y="720" type="curve" smooth="yes"/>
      <point x="30" y="672"/>
      <point x="67" y="634"/>
      <point x="120" y="634" type="curve" smooth="yes"/>
      <point x="173" y="634"/>
      <point x="210" y="672"/>
      <point x="210" y="720" type="curve" smooth="yes"/>
      <point x="210" y="769"/>
      <point x="173" y="807"/>
      <point x="120" y="807" type="curve" smooth="yes"/>
    </contour>
    <contour>
      <point x="120" y="531" type="move" name="_top"/>
    </contour>
    <contour>
      <point x="120" y="722" type="move" name="_center"/>
    </contour>
  </outline>
</glyph>
<glyph name="ring" format="1">
  <advance width="332"/>
  <unicode hex="02DA"/>
  <outline>
    <contour>
      <point x="82" y="863"/>
      <point x="30" y="805"/>
      <point x="30" y="735" type="curve" smooth="yes"/>
      <point x="30" y="666"/>
      <point x="82" y="607"/>
      <point x="166" y="607" type="curve" smooth="yes"/>
      <point x="249" y="607"/>
      <point x="302" y="666"/>
      <point x="302" y="735" type="curve" smooth="yes"/>
      <point x="302" y="805"/>
      <point x="249" y="863"/>
      <point x="166" y="863" type="curve" smooth="yes"/>
    </contour>
    <contour>
      <point x="193" y="786"/>
      <point x="212" y="769"/>
      <point x="212" y="735" type="curve" smooth="yes"/>
      <point x="212" y="702"/>
      <point x="193" y="685"/>
      <point x="166" y="685" type="curve" smooth="yes"/>
      <point x="138" y="685"/>
      <point x="120" y="702"/>
      <point x="120" y="735" type="curve" smooth="yes"/>
      <point x="120" y="769"/>
      <point x="138" y="786"/>
      <point x="166" y="786" type="curve" smooth="yes"/>
    </contour>
    <contour>
      <point x="166" y="531" type="move" name="_top"/>
    </contour>
  </outline>
</glyph>
<glyph name="ogonek" format="1">
  <advance width="313"/>
  <unicode hex="02DB"/>
  <outline>
    <contour>
      <point x="79" y="14"/>
      <point x="-1" y="-39"/>
      <point x="-1" y="-129" type="curve" smooth="yes"/>
      <point x="-1" y="-199"/>
      <point x="59" y="-244"/>
      <point x="143" y="-244" type="curve" smooth="yes"/>
      <point x="170" y="-244"/>
      <point x="191" y="-241"/>
      <point x="212" y="-236" type="curve"/>
      <point x="223" y="-142" type="line"/>
      <point x="200" y="-147"/>
      <point x="182" y="-149"/>
      <point x="162" y="-149" type="curve" smooth="yes"/>
      <point x="126" y="-149"/>
      <point x="108" y="-134"/>
      <point x="108" y="-104" type="curve" smooth="yes"/>
      <point x="108" y="-74"/>
      <point x="128" y="-37"/>
      <point x="227" y="0" type="curve"/>
      <point x="204" y="48" type="line"/>
    </contour>
    <contour>
      <point x="237" y="0" type="move" name="_ogonek"/>
    </contour>
  </outline>
</glyph>
<glyph name="tilde" format="1">
  <advance width="431"/>
  <unicode hex="02DC"/>
  <outline>
    <contour>
      <point x="331" y="637"/>
      <point x="375" y="685"/>
      <point x="401" y="751" type="curve"/>
      <point x="325" y="788" type="line"/>
      <point x="308" y="759"/>
      <point x="295" y="745"/>
      <point x="273" y="745" type="curve" smooth="yes"/>
      <point x="239" y="745"/>
      <point x="218" y="790"/>
      <point x="157" y="790" type="curve" smooth="yes"/>
      <point x="98" y="790"/>
      <point x="55" y="738"/>
      <point x="30" y="676" type="curve"/>
      <point x="106" y="638" type="line"/>
      <point x="122" y="667"/>
      <point x="135" y="683"/>
      <point x="159" y="683" type="curve" smooth="yes"/>
      <point x="193" y="683"/>
      <point x="213" y="637"/>
      <point x="277" y="637" type="curve" smooth="yes"/>
    </contour>
    <contour>
      <point x="216" y="531" type="move" name="_top"/>
    </contour>
  </outline>
</glyph>
<glyph name="hungarumlaut" format="1">
  <advance width="422"/>
  <unicode hex="02DD"/>
  <outline>
    <contour>
      <point x="194" y="663" type="line"/>
      <point x="273" y="626" type="line"/>
      <point x="392" y="805" type="line"/>
      <point x="290" y="857" type="line"/>
    </contour>
    <contour>
      <point x="30" y="663" type="line"/>
      <point x="110" y="631" type="line"/>
      <point x="221" y="807" type="line"/>
      <point x="117" y="857" type="line"/>
    </contour>
    <contour>
      <point x="163" y="531" type="move" name="_top"/>
    </contour>
  </outline>
</glyph>
<glyph name="gravecomb" format="1">
  <advance width="339"/>
  <unicode hex="0300"/>
  <outline>
    <contour>
      <point x="39" y="711" type="line"/>
      <point x="276" y="626" type="line"/>
      <point x="314" y="702" type="line"/>
      <point x="97" y="825" type="line"/>
    </contour>
    <contour>
      <point x="177" y="531" type="move" name="_top"/>
    </contour>
  </outline>
</glyph>
<glyph name="acutecomb" format="1">
  <advance width="339"/>
  <unicode hex="0301"/>
  <outline>
    <contour>
      <point x="39" y="702" type="line"/>
      <point x="77" y="626" type="line"/>
      <point x="314" y="711" type="line"/>
      <point x="256" y="825" type="line"/>
    </contour>
    <contour>
      <point x="177" y="531" type="move" name="_top"/>
    </contour>
  </outline>
</glyph>
<glyph name="uni0302" format="1">
  <advance width="434"/>
  <unicode hex="0302"/>
  <outline>
    <contour>
      <point x="413" y="692" type="line"/>
      <point x="272" y="819" type="line"/>
      <point x="180" y="819" type="line"/>
      <point x="39" y="692" type="line"/>
      <point x="94" y="629" type="line"/>
      <point x="226" y="713" type="line"/>
      <point x="358" y="629" type="line"/>
    </contour>
    <contour>
      <point x="226" y="531" type="move" name="_top"/>
    </contour>
  </outline>
</glyph>
<glyph name="uni0306" format="1">
  <advance width="399"/>
  <unicode hex="0306"/>
  <outline>
    <contour>
      <point x="310" y="625"/>
      <point x="371" y="699"/>
      <point x="379" y="783" type="curve"/>
      <point x="295" y="798" type="line"/>
      <point x="282" y="760"/>
      <point x="254" y="730"/>
      <point x="208" y="730" type="curve" smooth="yes"/>
      <point x="162" y="730"/>
      <point x="135" y="760"/>
      <point x="123" y="798" type="curve"/>
      <point x="39" y="783" type="line"/>
      <point x="47" y="699"/>
      <point x="106" y="625"/>
      <point x="208" y="625" type="curve" smooth="yes"/>
    </contour>
    <contour>
      <point x="209" y="531" type="move" name="_top"/>
    </contour>
  </outline>
</glyph>
<glyph name="uni0307" format="1">
  <advance width="239"/>
  <unicode hex="0307"/>
  <outline>
    <component base="dotaccent" xOffset="9"/>
    <contour>
      <point x="129" y="531" type="move" name="_top"/>
    </contour>
  </outline>
</glyph>
<glyph name="uni030A" format="1">
  <advance width="332"/>
  <unicode hex="030A"/>
  <outline>
    <component base="ring" xOffset="9"/>
    <contour>
      <point x="175" y="531" type="move" name="_top"/>
    </contour>
  </outline>
</glyph>
<glyph name="uni030C" format="1">
  <advance width="434"/>
  <unicode hex="030C"/>
  <outline>
    <contour>
      <point x="226" y="730" type="line"/>
      <point x="94" y="814" type="line"/>
      <point x="39" y="751" type="line"/>
      <point x="180" y="624" type="line"/>
      <point x="272" y="624" type="line"/>
      <point x="413" y="751" type="line"/>
      <point x="358" y="814" type="line"/>
    </contour>
    <contour>
      <point x="226" y="531" type="move" name="_top"/>
    </contour>
  </outline>
</glyph>
<glyph name="uni0326" format="1">
  <advance width="215"/>
  <unicode hex="0326"/>
  <outline>
    <contour>
      <point x="65" y="-69"/>
      <point x="32" y="-103"/>
      <point x="32" y="-144" type="curve" smooth="yes"/>
      <point x="32" y="-171"/>
      <point x="46" y="-192"/>
      <point x="64" y="-206" type="curve"/>
      <point x="37" y="-321" type="line"/>
      <point x="113" y="-321" type="line"/>
      <point x="158" y="-227" type="line" smooth="yes"/>
      <point x="177" y="-188"/>
      <point x="185" y="-169"/>
      <point x="185" y="-144" type="curve" smooth="yes"/>
      <point x="185" y="-101"/>
      <point x="152" y="-69"/>
      <point x="109" y="-69" type="curve" smooth="yes"/>
    </contour>
    <contour>
      <point x="108" y="0" type="move" name="_bottom"/>
    </contour>
  </outline>
</glyph>
<glyph name="tonos" format="1">
  <advance width="254"/>
  <unicode hex="0384"/>
  <outline>
    <contour>
      <point x="35" y="604" type="line"/>
      <point x="136" y="588" type="line"/>
      <point x="222" y="813" type="line"/>
      <point x="73" y="843" type="line"/>
    </contour>
    <contour>
      <point x="84" y="531" type="move" name="_top"/>
    </contour>
  </outline>
</glyph>
<glyph name="dieresistonos" format="1">
  <advance width="476"/>
  <unicode hex="0385"/>
  <outline>
    <contour>
      <point x="193" y="749" type="line"/>
      <point x="279" y="736" type="line"/>
      <point x="351" y="924" type="line"/>
      <point x="222" y="946" type="line"/>
    </contour>
    <contour>
      <point x="64" y="761"/>
      <point x="30" y="728"/>
      <point x="30" y="686" type="curve" smooth="yes"/>
      <point x="30" y="644"/>
      <point x="64" y="611"/>
      <point x="107" y="611" type="curve" smooth="yes"/>
      <point x="150" y="611"/>
      <point x="183" y="644"/>
      <point x="183" y="686" type="curve" smooth="yes"/>
      <point x="183" y="728"/>
      <point x="150" y="761"/>
      <point x="107" y="761" type="curve" smooth="yes"/>
    </contour>
    <contour>
      <point x="327" y="761"/>
      <point x="293" y="728"/>
      <point x="293" y="686" type="curve" smooth="yes"/>
      <point x="293" y="644"/>
      <point x="327" y="611"/>
      <point x="369" y="611" type="curve" smooth="yes"/>
      <point x="413" y="611"/>
      <point x="446" y="644"/>
      <point x="446" y="686" type="curve" smooth="yes"/>
      <point x="446" y="728"/>
      <point x="413" y="761"/>
      <point x="369" y="761" type="curve" smooth="yes"/>
    </contour>
    <contour>
      <point x="239" y="531" type="move" name="_top"/>
    </contour>
  </outline>
</glyph>
<glyph name="Delta" format="1">
  <advance width="597"/>
  <unicode hex="0394"/>
  <outline>
    <contour>
      <point x="416" y="115" type="line"/>
      <point x="177" y="115" type="line"/>
      <point x="297" y="576" type="line"/>
    </contour>
    <contour>
      <point x="205" y="693" type="line"/>
      <point x="-11" y="0" type="line"/>
      <point x="608" y="0" type="line"/>
      <point x="394" y="693" type="line"/>
    </contour>
  </outline>
</glyph>
<glyph name="Theta" format="1">
  <advance width="691"/>
  <unicode hex="0398"/>
  <outline>
    <contour>
      <point x="242" y="398" type="line"/>
      <point x="242" y="306" type="line"/>
      <point x="449" y="306" type="line"/>
      <point x="449" y="398" type="line"/>
    </contour>
    <contour>
      <point x="153" y="709"/>
      <point x="36" y="573"/>
      <point x="36" y="346" type="curve" smooth="yes"/>
      <point x="36" y="115"/>
      <point x="153" y="-16"/>
      <point x="345" y="-16" type="curve" smooth="yes"/>
      <point x="538" y="-16"/>
      <point x="655" y="120"/>
      <point x="655" y="347" type="curve" smooth="yes"/>
      <point x="655" y="578"/>
      <point x="538" y="709"/>
      <point x="345" y="709" type="curve" smooth="yes"/>
    </contour>
    <contour>
      <point x="447" y="594"/>
      <point x="500" y="524"/>
      <point x="500" y="347" type="curve" smooth="yes"/>
      <point x="500" y="168"/>
      <point x="447" y="99"/>
      <point x="345" y="99" type="curve" smooth="yes"/>
      <point x="247" y="99"/>
      <point x="191" y="168"/>
      <point x="191" y="346" type="curve" smooth="yes"/>
      <point x="191" y="524"/>
      <point x="245" y="594"/>
      <point x="345" y="594" type="curve" smooth="yes"/>
    </contour>
  </outline>
</glyph>
<glyph name="Lambda" format="1">
  <advance width="588"/>
  <unicode hex="039B"/>
  <outline>
    <contour>
      <point x="200" y="693" type="line"/>
      <point x="-11" y="0" type="line"/>
      <point x="150" y="0" type="line"/>
      <point x="293" y="578" type="line"/>
      <point x="435" y="0" type="line"/>
      <point x="599" y="0" type="line"/>
      <point x="389" y="693" type="line"/>
    </contour>
  </outline>
</glyph>
<glyph name="Xi" format="1">
  <advance width="522"/>
  <unicode hex="039E"/>
  <outline>
    <contour>
      <point x="31" y="135" type="line"/>
      <point x="31" y="0" type="line"/>
      <point x="491" y="0" type="line"/>
      <point x="491" y="135" type="line"/>
    </contour>
    <contour>
      <point x="95" y="413" type="line"/>
      <point x="95" y="290" type="line"/>
      <point x="424" y="290" type="line"/>
      <point x="424" y="413" type="line"/>
    </contour>
    <contour>
      <point x="31" y="693" type="line"/>
      <point x="31" y="562" type="line"/>
      <point x="472" y="562" type="line"/>
      <point x="490" y="693" type="line"/>
    </contour>
  </outline>
</glyph>
<glyph name="Sigma" format="1">
  <advance width="503"/>
  <unicode hex="03A3"/>
  <outline>
    <contour>
      <point x="24" y="693" type="line"/>
      <point x="24" y="579" type="line"/>
      <point x="219" y="340" type="line"/>
      <point x="24" y="114" type="line"/>
      <point x="24" y="0" type="line"/>
      <point x="479" y="0" type="line"/>
      <point x="479" y="116" type="line"/>
      <point x="194" y="116" type="line"/>
      <point x="367" y="309" type="line"/>
      <point x="367" y="374" type="line"/>
      <point x="196" y="578" type="line"/>
      <point x="479" y="578" type="line"/>
      <point x="479" y="693" type="line"/>
    </contour>
  </outline>
</glyph>
<glyph name="Phi" format="1">
  <advance width="839.0"/>
  <unicode hex="03A6"/>
  <outline>
    <contour>
      <point x="473" y="523" type="line"/>
      <point x="603" y="520"/>
      <point x="662" y="455"/>
      <point x="662" y="349" type="curve" smooth="yes"/>
      <point x="662" y="241"/>
      <point x="606" y="173"/>
      <point x="472" y="168" type="curve"/>
      <point x="478" y="74" type="line"/>
      <point x="682" y="77"/>
      <point x="820" y="170"/>
      <point x="820" y="349" type="curve" smooth="yes"/>
      <point x="820" y="518"/>
      <point x="687" y="612"/>
      <point x="478" y="617" type="curve"/>
    </contour>
    <contour>
      <point x="157" y="614"/>
      <point x="19" y="521"/>
      <point x="19" y="345" type="curve" smooth="yes"/>
      <point x="19" y="173"/>
      <point x="152" y="79"/>
      <point x="361" y="74" type="curve"/>
      <point x="366" y="169" type="line"/>
      <point x="236" y="172"/>
      <point x="177" y="237"/>
      <point x="177" y="345" type="curve" smooth="yes"/>
      <point x="177" y="453"/>
      <point x="233" y="519"/>
      <point x="367" y="523" type="curve"/>
      <point x="361" y="617" type="line"/>
    </contour>
    <contour>
      <point x="344" y="693" type="line"/>
      <point x="344" y="599" type="line"/>
      <point x="350" y="534" type="line"/>
      <point x="350" y="155" type="line"/>
      <point x="344" y="89" type="line"/>
      <point x="344" y="0" type="line"/>
      <point x="495" y="0" type="line"/>
      <point x="495" y="89" type="line"/>
      <point x="488" y="155" type="line"/>
      <point x="488" y="534" type="line"/>
      <point x="495" y="599" type="line"/>
      <point x="495" y="693" type="line"/>
    </contour>
  </outline>
</glyph>
<glyph name="Psi" format="1">
  <advance width="724"/>
  <unicode hex="03A8"/>
  <outline>
    <contour>
      <point x="313" y="289" type="line"/>
      <point x="210" y="298"/>
      <point x="171" y="341"/>
      <point x="171" y="427" type="curve" smooth="yes"/>
      <point x="171" y="693" type="line"/>
      <point x="21" y="693" type="line"/>
      <point x="21" y="429" type="line" smooth="yes"/>
      <point x="21" y="283"/>
      <point x="115" y="197"/>
      <point x="306" y="181" type="curve"/>
    </contour>
    <contour>
      <point x="417" y="182" type="line"/>
      <point x="603" y="197"/>
      <point x="702" y="285"/>
      <point x="702" y="430" type="curve" smooth="yes"/>
      <point x="702" y="693" type="line"/>
      <point x="552" y="693" type="line"/>
      <point x="552" y="427" type="line" smooth="yes"/>
      <point x="552" y="342"/>
      <point x="510" y="299"/>
      <point x="410" y="290" type="curve"/>
    </contour>
    <contour>
      <point x="433" y="277" type="line"/>
      <point x="433" y="693" type="line"/>
      <point x="290" y="693" type="line"/>
      <point x="290" y="277" type="line"/>
      <point x="284" y="199" type="line"/>
      <point x="284" y="0" type="line"/>
      <point x="439" y="0" type="line"/>
      <point x="439" y="200" type="line"/>
    </contour>
  </outline>
</glyph>
<glyph name="Omega" format="1">
  <advance width="691"/>
  <unicode hex="03A9"/>
  <outline>
    <contour>
      <point x="153" y="709"/>
      <point x="36" y="568"/>
      <point x="36" y="374" type="curve" smooth="yes"/>
      <point x="36" y="246"/>
      <point x="80" y="162"/>
      <point x="167" y="114" type="curve"/>
      <point x="57" y="114" type="line"/>
      <point x="57" y="0" type="line"/>
      <point x="305" y="0" type="line"/>
      <point x="305" y="108" type="line"/>
      <point x="222" y="145"/>
      <point x="199" y="217"/>
      <point x="199" y="374" type="curve" smooth="yes"/>
      <point x="199" y="522"/>
      <point x="251" y="594"/>
      <point x="345" y="594" type="curve" smooth="yes"/>
      <point x="442" y="594"/>
      <point x="492" y="522"/>
      <point x="492" y="375" type="curve" smooth="yes"/>
      <point x="492" y="223"/>
      <point x="472" y="145"/>
      <point x="385" y="108" type="curve"/>
      <point x="385" y="0" type="line"/>
      <point x="634" y="0" type="line"/>
      <point x="634" y="114" type="line"/>
      <point x="521" y="114" type="line"/>
      <point x="613" y="166"/>
      <point x="655" y="248"/>
      <point x="655" y="375" type="curve"/>
      <point x="655" y="571"/>
      <point x="540" y="709"/>
      <point x="345" y="709" type="curve" smooth="yes"/>
    </contour>
    <contour>
      <point x="343" y="693" type="move" name="top"/>
    </contour>
  </outline>
</glyph>
<glyph name="alpha" format="1">
  <advance width="599"/>
  <unicode hex="03B1"/>
  <outline>
    <contour>
      <point x="115" y="547"/>
      <point x="37" y="427"/>
      <point x="37" y="261" type="curve" smooth="yes"/>
      <point x="37" y="79"/>
      <point x="116" y="-16"/>
      <point x="238" y="-16" type="curve" smooth="yes"/>
      <point x="320" y="-16"/>
      <point x="370" y="33"/>
      <point x="403" y="116" type="curve"/>
      <point x="410" y="78" type="line" smooth="yes"/>
      <point x="422" y="20"/>
      <point x="464" y="-9"/>
      <point x="524" y="-16" type="curve"/>
      <point x="572" y="96" type="line"/>
      <point x="542" y="103"/>
      <point x="526" y="117"/>
      <point x="517" y="150" type="curve" smooth="yes"/>
      <point x="491" y="259" type="line"/>
      <point x="558" y="531" type="line"/>
      <point x="429" y="531" type="line"/>
      <point x="411" y="406" type="line"/>
      <point x="392" y="500"/>
      <point x="341" y="547"/>
      <point x="252" y="547" type="curve" smooth="yes"/>
    </contour>
    <contour>
      <point x="323" y="437"/>
      <point x="351" y="399"/>
      <point x="375" y="271" type="curve"/>
      <point x="349" y="128"/>
      <point x="312" y="94"/>
      <point x="269" y="94" type="curve" smooth="yes"/>
      <point x="222" y="94"/>
      <point x="189" y="140"/>
      <point x="189" y="261" type="curve" smooth="yes"/>
      <point x="189" y="381"/>
      <point x="222" y="437"/>
      <point x="271" y="437" type="curve" smooth="yes"/>
    </contour>
    <contour>
      <point x="281" y="531" type="move" name="top"/>
    </contour>
  </outline>
</glyph>
<glyph name="beta" format="1">
  <advance width="607"/>
  <unicode hex="03B2"/>
  <outline>
    <contour>
      <point x="161" y="758"/>
      <point x="66" y="680"/>
      <point x="66" y="545" type="curve" smooth="yes"/>
      <point x="66" y="-221" type="line"/>
      <point x="211" y="-200" type="line"/>
      <point x="211" y="546" type="line" smooth="yes"/>
      <point x="211" y="618"/>
      <point x="241" y="651"/>
      <point x="295" y="651" type="curve" smooth="yes"/>
      <point x="345" y="651"/>
      <point x="378" y="622"/>
      <point x="378" y="557" type="curve" smooth="yes"/>
      <point x="378" y="485"/>
      <point x="342" y="449"/>
      <point x="290" y="449" type="curve" smooth="yes"/>
      <point x="263" y="449" type="line"/>
      <point x="253" y="347" type="line"/>
      <point x="294" y="347" type="line" smooth="yes"/>
      <point x="371" y="347"/>
      <point x="427" y="313"/>
      <point x="427" y="218" type="curve" smooth="yes"/>
      <point x="427" y="134"/>
      <point x="373" y="99"/>
      <point x="314" y="99" type="curve" smooth="yes"/>
      <point x="249" y="99"/>
      <point x="214" y="118"/>
      <point x="177" y="152" type="curve"/>
      <point x="149" y="84" type="line"/>
      <point x="204" y="26"/>
      <point x="267" y="-16"/>
      <point x="348" y="-16" type="curve" smooth="yes"/>
      <point x="483" y="-16"/>
      <point x="578" y="73"/>
      <point x="578" y="207" type="curve" smooth="yes"/>
      <point x="578" y="359"/>
      <point x="468" y="396"/>
      <point x="382" y="405" type="curve"/>
      <point x="470" y="424"/>
      <point x="522" y="481"/>
      <point x="522" y="575" type="curve" smooth="yes"/>
      <point x="522" y="681"/>
      <point x="433" y="758"/>
      <point x="296" y="758" type="curve" smooth="yes"/>
    </contour>
  </outline>
</glyph>
<glyph name="gamma" format="1">
  <advance width="504"/>
  <unicode hex="03B3"/>
  <outline>
    <contour>
      <point x="-16" y="499" type="line"/>
      <point x="49" y="420"/>
      <point x="118" y="251"/>
      <point x="179" y="12" type="curve"/>
      <point x="144" y="-81"/>
      <point x="145" y="-141"/>
      <point x="186" y="-222" type="curve"/>
      <point x="305" y="-206" type="line"/>
      <point x="288" y="-108"/>
      <point x="292" y="-53"/>
      <point x="323" y="27" type="curve" smooth="yes"/>
      <point x="508" y="514" type="line"/>
      <point x="359" y="546" type="line"/>
      <point x="251" y="158" type="line"/>
      <point x="221" y="367"/>
      <point x="167" y="490"/>
      <point x="120" y="547" type="curve"/>
    </contour>
  </outline>
</glyph>
<glyph name="delta" format="1">
  <advance width="577"/>
  <unicode hex="03B4"/>
  <outline>
    <contour>
      <point x="89" y="543"/>
      <point x="113" y="494"/>
      <point x="232" y="442" type="curve" smooth="yes"/>
      <point x="360" y="388"/>
      <point x="386" y="356"/>
      <point x="386" y="248" type="curve" smooth="yes"/>
      <point x="386" y="143"/>
      <point x="352" y="95"/>
      <point x="288" y="95" type="curve" smooth="yes"/>
      <point x="221" y="95"/>
      <point x="190" y="144"/>
      <point x="190" y="247" type="curve" smooth="yes"/>
      <point x="190" y="335"/>
      <point x="214" y="390"/>
      <point x="280" y="437" type="curve"/>
      <point x="205" y="471" type="line"/>
      <point x="97" y="426"/>
      <point x="35" y="350"/>
      <point x="35" y="241" type="curve" smooth="yes"/>
      <point x="35" y="80"/>
      <point x="132" y="-16"/>
      <point x="288" y="-16" type="curve" smooth="yes"/>
      <point x="445" y="-16"/>
      <point x="542" y="91"/>
      <point x="542" y="247" type="curve" smooth="yes"/>
      <point x="542" y="390"/>
      <point x="476" y="460"/>
      <point x="337" y="516" type="curve" smooth="yes"/>
      <point x="248" y="553"/>
      <point x="234" y="568"/>
      <point x="234" y="601" type="curve" smooth="yes"/>
      <point x="234" y="630"/>
      <point x="255" y="652"/>
      <point x="310" y="652" type="curve" smooth="yes"/>
      <point x="352" y="652"/>
      <point x="385" y="640"/>
      <point x="420" y="617" type="curve"/>
      <point x="488" y="698" type="line"/>
      <point x="444" y="732"/>
      <point x="382" y="758"/>
      <point x="299" y="758" type="curve" smooth="yes"/>
      <point x="154" y="758"/>
      <point x="89" y="687"/>
      <point x="89" y="607" type="curve" smooth="yes"/>
    </contour>
  </outline>
</glyph>
<glyph name="epsilon" format="1">
  <advance width="479"/>
  <unicode hex="03B5"/>
  <outline>
    <contour>
      <point x="140" y="547"/>
      <point x="56" y="494"/>
      <point x="56" y="404" type="curve" smooth="yes"/>
      <point x="56" y="345"/>
      <point x="95" y="298"/>
      <point x="176" y="283" type="curve"/>
      <point x="85" y="272"/>
      <point x="35" y="229"/>
      <point x="35" y="146" type="curve" smooth="yes"/>
      <point x="35" y="40"/>
      <point x="131" y="-16"/>
      <point x="264" y="-16" type="curve" smooth="yes"/>
      <point x="350" y="-16"/>
      <point x="423" y="7"/>
      <point x="475" y="47" type="curve"/>
      <point x="411" y="133" type="line"/>
      <point x="363" y="105"/>
      <point x="327" y="92"/>
      <point x="282" y="92" type="curve" smooth="yes"/>
      <point x="222" y="92"/>
      <point x="192" y="118"/>
      <point x="192" y="159" type="curve" smooth="yes"/>
      <point x="192" y="202"/>
      <point x="216" y="224"/>
      <point x="279" y="224" type="curve" smooth="yes"/>
      <point x="337" y="224" type="line"/>
      <point x="352" y="322" type="line"/>
      <point x="286" y="322" type="line" smooth="yes"/>
      <point x="235" y="322"/>
      <point x="207" y="347"/>
      <point x="207" y="384" type="curve" smooth="yes"/>
      <point x="207" y="421"/>
      <point x="236" y="442"/>
      <point x="283" y="442" type="curve" smooth="yes"/>
      <point x="327" y="442"/>
      <point x="359" y="431"/>
      <point x="396" y="409" type="curve"/>
      <point x="459" y="488" type="line"/>
      <point x="405" y="530"/>
      <point x="344" y="547"/>
      <point x="266" y="547" type="curve" smooth="yes"/>
    </contour>
    <contour>
      <point x="261" y="531" type="move" name="top"/>
    </contour>
  </outline>
</glyph>
<glyph name="zeta" format="1">
  <advance width="415"/>
  <unicode hex="03B6"/>
  <outline>
    <contour>
      <point x="49" y="742" type="line"/>
      <point x="33" y="633" type="line"/>
      <point x="172" y="633" type="line" smooth="yes"/>
      <point x="217" y="633"/>
      <point x="282" y="640"/>
      <point x="309" y="651" type="curve"/>
      <point x="119" y="534"/>
      <point x="24" y="372"/>
      <point x="24" y="255" type="curve" smooth="yes"/>
      <point x="24" y="128"/>
      <point x="76" y="78"/>
      <point x="193" y="26" type="curve" smooth="yes"/>
      <point x="261" y="-3"/>
      <point x="276" y="-16"/>
      <point x="276" y="-47" type="curve" smooth="yes"/>
      <point x="276" y="-85"/>
      <point x="243" y="-106"/>
      <point x="196" y="-131" type="curve"/>
      <point x="252" y="-222" type="line"/>
      <point x="373" y="-170"/>
      <point x="431" y="-115"/>
      <point x="431" y="-32" type="curve" smooth="yes"/>
      <point x="431" y="50"/>
      <point x="378" y="84"/>
      <point x="297" y="117" type="curve" smooth="yes"/>
      <point x="211" y="152"/>
      <point x="179" y="182"/>
      <point x="179" y="257" type="curve" smooth="yes"/>
      <point x="179" y="367"/>
      <point x="234" y="486"/>
      <point x="442" y="660" type="curve"/>
      <point x="422" y="742" type="line"/>
    </contour>
  </outline>
</glyph>
<glyph name="eta" format="1">
  <advance width="581"/>
  <unicode hex="03B7"/>
  <outline>
    <contour>
      <point x="212" y="460" type="line"/>
      <point x="206" y="500"/>
      <point x="197" y="525"/>
      <point x="187" y="544" type="curve"/>
      <point x="49" y="525" type="line"/>
      <point x="62" y="485"/>
      <point x="71" y="438"/>
      <point x="71" y="379" type="curve" smooth="yes"/>
      <point x="71" y="0" type="line"/>
      <point x="221" y="0" type="line"/>
      <point x="221" y="369" type="line"/>
    </contour>
    <contour>
      <point x="299" y="547"/>
      <point x="244" y="513"/>
      <point x="198" y="450" type="curve"/>
      <point x="219" y="365" type="line"/>
      <point x="247" y="410"/>
      <point x="278" y="436"/>
      <point x="316" y="436" type="curve" smooth="yes"/>
      <point x="349" y="436"/>
      <point x="370" y="420"/>
      <point x="370" y="361" type="curve" smooth="yes"/>
      <point x="370" y="-205" type="line"/>
      <point x="520" y="-221" type="line"/>
      <point x="520" y="387" type="line" smooth="yes"/>
      <point x="520" y="488"/>
      <point x="465" y="547"/>
      <point x="372" y="547" type="curve" smooth="yes"/>
    </contour>
    <contour>
      <point x="291" y="531" type="move" name="top"/>
    </contour>
  </outline>
</glyph>
<glyph name="theta" format="1">
  <advance width="564"/>
  <unicode hex="03B8"/>
  <outline>
    <contour>
      <point x="123" y="758"/>
      <point x="35" y="621"/>
      <point x="35" y="372" type="curve" smooth="yes"/>
      <point x="35" y="119"/>
      <point x="122" y="-16"/>
      <point x="282" y="-16" type="curve" smooth="yes"/>
      <point x="441" y="-16"/>
      <point x="529" y="121"/>
      <point x="529" y="373" type="curve" smooth="yes"/>
      <point x="529" y="624"/>
      <point x="442" y="758"/>
      <point x="283" y="758" type="curve" smooth="yes"/>
    </contour>
    <contour>
      <point x="354" y="648"/>
      <point x="386" y="590"/>
      <point x="386" y="370" type="curve" smooth="yes"/>
      <point x="386" y="151"/>
      <point x="353" y="93"/>
      <point x="282" y="93" type="curve" smooth="yes"/>
      <point x="212" y="93"/>
      <point x="178" y="151"/>
      <point x="177" y="371" type="curve" smooth="yes"/>
      <point x="177" y="590"/>
      <point x="210" y="648"/>
      <point x="283" y="648" type="curve" smooth="yes"/>
    </contour>
    <contour>
      <point x="402" y="418" type="line"/>
      <point x="162" y="418" type="line"/>
      <point x="161" y="328" type="line"/>
      <point x="402" y="328" type="line"/>
    </contour>
  </outline>
</glyph>
<glyph name="iota" format="1">
  <advance width="276"/>
  <unicode hex="03B9"/>
  <outline>
    <contour>
      <point x="61" y="531" type="line"/>
      <point x="61" y="155" type="line" smooth="yes"/>
      <point x="61" y="49"/>
      <point x="111" y="1"/>
      <point x="210" y="-16" type="curve"/>
      <point x="254" y="92" type="line"/>
      <point x="222" y="108"/>
      <point x="211" y="126"/>
      <point x="211" y="174" type="curve" smooth="yes"/>
      <point x="211" y="531" type="line"/>
    </contour>
    <contour>
      <point x="136" y="531" type="move" name="top"/>
    </contour>
  </outline>
</glyph>
<glyph name="kappa" format="1">
  <advance width="552"/>
  <unicode hex="03BA"/>
  <outline>
    <contour>
      <point x="225" y="281" type="line"/>
      <point x="363" y="78" type="line" smooth="yes"/>
      <point x="398" y="22"/>
      <point x="441" y="-6"/>
      <point x="506" y="-16" type="curve"/>
      <point x="557" y="96" type="line"/>
      <point x="526" y="108"/>
      <point x="515" y="121"/>
      <point x="495" y="146" type="curve" smooth="yes"/>
      <point x="386" y="286" type="line"/>
      <point x="538" y="490" type="line"/>
      <point x="406" y="546" type="line"/>
    </contour>
    <contour>
      <point x="49" y="525" type="line"/>
      <point x="60" y="490"/>
      <point x="71" y="438"/>
      <point x="71" y="379" type="curve" smooth="yes"/>
      <point x="71" y="0" type="line"/>
      <point x="221" y="0" type="line"/>
      <point x="221" y="344" type="line"/>
      <point x="221" y="455"/>
      <point x="206" y="506"/>
      <point x="187" y="544" type="curve"/>
    </contour>
  </outline>
</glyph>
<glyph name="lambda" format="1">
  <advance width="524"/>
  <unicode hex="03BB"/>
  <outline>
    <contour>
      <point x="63" y="654" type="line"/>
      <point x="165" y="637"/>
      <point x="198" y="609"/>
      <point x="224" y="531" type="curve"/>
      <point x="172" y="531" type="line"/>
      <point x="9" y="18" type="line"/>
      <point x="157" y="-16" type="line"/>
      <point x="259" y="415" type="line"/>
      <point x="299" y="185"/>
      <point x="332" y="83"/>
      <point x="394" y="-16" type="curve"/>
      <point x="542" y="32" type="line"/>
      <point x="471" y="127"/>
      <point x="437" y="224"/>
      <point x="373" y="497" type="curve" smooth="yes"/>
      <point x="330" y="680"/>
      <point x="251" y="732"/>
      <point x="81" y="757" type="curve"/>
    </contour>
  </outline>
</glyph>
<glyph name="mu" format="1">
  <advance width="583"/>
  <unicode hex="03BC"/>
  <outline>
    <contour>
      <point x="370" y="189" type="line"/>
      <point x="342" y="125"/>
      <point x="305" y="101"/>
      <point x="270" y="101" type="curve" smooth="yes"/>
      <point x="240" y="101"/>
      <point x="216" y="116"/>
      <point x="216" y="165" type="curve" smooth="yes"/>
      <point x="216" y="531" type="line"/>
      <point x="66" y="531" type="line"/>
      <point x="66" y="-220" type="line"/>
      <point x="208" y="-205" type="line"/>
      <point x="208" y="-111" type="line" smooth="yes"/>
      <point x="208" y="-42"/>
      <point x="194" y="-7"/>
      <point x="172" y="35" type="curve"/>
      <point x="195" y="0"/>
      <point x="228" y="-9"/>
      <point x="261" y="-9" type="curve" smooth="yes"/>
      <point x="314" y="-9"/>
      <point x="355" y="33"/>
      <point x="384" y="89" type="curve"/>
    </contour>
    <contour>
      <point x="371" y="83" type="line"/>
      <point x="378" y="40"/>
      <point x="381" y="17"/>
      <point x="396" y="-16" type="curve"/>
      <point x="534" y="0" type="line"/>
      <point x="521" y="42"/>
      <point x="510" y="102"/>
      <point x="510" y="182" type="curve" smooth="yes"/>
      <point x="510" y="531" type="line"/>
      <point x="360" y="531" type="line"/>
      <point x="360" y="141" type="line"/>
    </contour>
  </outline>
</glyph>
<glyph name="nu" format="1">
  <advance width="504"/>
  <unicode hex="03BD"/>
  <outline>
    <contour>
      <point x="-16" y="499" type="line"/>
      <point x="55" y="424"/>
      <point x="106" y="246"/>
      <point x="159" y="0" type="curve"/>
      <point x="336" y="0" type="line"/>
      <point x="508" y="514" type="line"/>
      <point x="362" y="546" type="line"/>
      <point x="250" y="121" type="line"/>
      <point x="216" y="350"/>
      <point x="167" y="490"/>
      <point x="120" y="547" type="curve"/>
    </contour>
  </outline>
</glyph>
<glyph name="xi" format="1">
  <advance width="448"/>
  <unicode hex="03BE"/>
  <outline>
    <contour>
      <point x="157" y="758"/>
      <point x="70" y="689"/>
      <point x="70" y="591" type="curve" smooth="yes"/>
      <point x="70" y="512"/>
      <point x="117" y="466"/>
      <point x="194" y="444" type="curve"/>
      <point x="102" y="427"/>
      <point x="31" y="372"/>
      <point x="31" y="261" type="curve" smooth="yes"/>
      <point x="31" y="121"/>
      <point x="111" y="79"/>
      <point x="224" y="29" type="curve" smooth="yes"/>
      <point x="297" y="-3"/>
      <point x="312" y="-16"/>
      <point x="312" y="-47" type="curve" smooth="yes"/>
      <point x="312" y="-85"/>
      <point x="279" y="-106"/>
      <point x="231" y="-131" type="curve"/>
      <point x="288" y="-222" type="line"/>
      <point x="409" y="-170"/>
      <point x="467" y="-115"/>
      <point x="467" y="-32" type="curve" smooth="yes"/>
      <point x="467" y="49"/>
      <point x="417" y="82"/>
      <point x="326" y="121" type="curve" smooth="yes"/>
      <point x="220" y="165"/>
      <point x="187" y="192"/>
      <point x="187" y="270" type="curve" smooth="yes"/>
      <point x="187" y="339"/>
      <point x="233" y="385"/>
      <point x="303" y="385" type="curve" smooth="yes"/>
      <point x="355" y="385" type="line"/>
      <point x="370" y="487" type="line"/>
      <point x="307" y="487" type="line" smooth="yes"/>
      <point x="253" y="487"/>
      <point x="222" y="519"/>
      <point x="222" y="572" type="curve" smooth="yes"/>
      <point x="222" y="620"/>
      <point x="248" y="651"/>
      <point x="300" y="651" type="curve" smooth="yes"/>
      <point x="341" y="651"/>
      <point x="368" y="638"/>
      <point x="400" y="617" type="curve"/>
      <point x="467" y="698" type="line"/>
      <point x="416" y="738"/>
      <point x="359" y="758"/>
      <point x="278" y="758" type="curve" smooth="yes"/>
    </contour>
  </outline>
</glyph>
<glyph name="pi" format="1">
  <advance width="610"/>
  <unicode hex="03C0"/>
  <outline>
    <contour>
      <point x="374" y="435" type="line"/>
      <point x="374" y="155" type="line"/>
      <point x="374" y="49"/>
      <point x="424" y="1"/>
      <point x="523" y="-16" type="curve"/>
      <point x="568" y="94" type="line"/>
      <point x="535" y="107"/>
      <point x="524" y="126"/>
      <point x="524" y="174" type="curve"/>
      <point x="524" y="435" type="line"/>
    </contour>
    <contour>
      <point x="100" y="439" type="line"/>
      <point x="100" y="0" type="line"/>
      <point x="248" y="0" type="line"/>
      <point x="248" y="439" type="line"/>
    </contour>
    <contour>
      <point x="58" y="416"/>
      <point x="72" y="418"/>
      <point x="122" y="418" type="curve"/>
      <point x="587" y="418" type="line"/>
      <point x="587" y="531" type="line"/>
      <point x="144" y="531" type="line"/>
      <point x="70" y="531"/>
      <point x="38" y="524"/>
      <point x="1" y="509" type="curve"/>
      <point x="28" y="407" type="line"/>
    </contour>
  </outline>
</glyph>
<glyph name="rho" format="1">
  <advance width="592"/>
  <unicode hex="03C1"/>
  <outline>
    <contour>
      <point x="140" y="547"/>
      <point x="61" y="449"/>
      <point x="61" y="274" type="curve" smooth="yes"/>
      <point x="61" y="-221" type="line"/>
      <point x="211" y="-205" type="line"/>
      <point x="211" y="66" type="line"/>
      <point x="211" y="138" type="line"/>
      <point x="211" y="249" type="line" smooth="yes"/>
      <point x="211" y="382"/>
      <point x="235" y="437"/>
      <point x="301" y="437" type="curve" smooth="yes"/>
      <point x="360" y="437"/>
      <point x="396" y="396"/>
      <point x="396" y="265" type="curve" smooth="yes"/>
      <point x="396" y="147"/>
      <point x="358" y="95"/>
      <point x="296" y="95" type="curve"/>
      <point x="255" y="95"/>
      <point x="224" y="116"/>
      <point x="200" y="172" type="curve"/>
      <point x="194" y="72" type="line"/>
      <point x="232" y="6"/>
      <point x="282" y="-16"/>
      <point x="341" y="-16" type="curve"/>
      <point x="473" y="-16"/>
      <point x="552" y="108"/>
      <point x="552" y="267" type="curve" smooth="yes"/>
      <point x="552" y="453"/>
      <point x="467" y="547"/>
      <point x="303" y="547" type="curve" smooth="yes"/>
    </contour>
  </outline>
</glyph>
<glyph name="sigmafinal" format="1">
  <advance width="477"/>
  <unicode hex="03C2"/>
  <outline>
    <contour>
      <point x="137" y="547"/>
      <point x="35" y="437"/>
      <point x="35" y="275" type="curve"/>
      <point x="35" y="128"/>
      <point x="104" y="70"/>
      <point x="209" y="25" type="curve" smooth="yes"/>
      <point x="276" y="-3"/>
      <point x="292" y="-16"/>
      <point x="292" y="-47" type="curve" smooth="yes"/>
      <point x="292" y="-85"/>
      <point x="259" y="-106"/>
      <point x="211" y="-131" type="curve"/>
      <point x="268" y="-222" type="line"/>
      <point x="389" y="-170"/>
      <point x="446" y="-115"/>
      <point x="446" y="-32" type="curve" smooth="yes"/>
      <point x="446" y="50"/>
      <point x="394" y="84"/>
      <point x="315" y="117" type="curve" smooth="yes"/>
      <point x="218" y="158"/>
      <point x="192" y="188"/>
      <point x="192" y="275" type="curve"/>
      <point x="192" y="385"/>
      <point x="236" y="431"/>
      <point x="303" y="431" type="curve" smooth="yes"/>
      <point x="340" y="431"/>
      <point x="372" y="419"/>
      <point x="405" y="392" type="curve"/>
      <point x="470" y="483" type="line"/>
      <point x="420" y="526"/>
      <point x="364" y="547"/>
      <point x="291" y="547" type="curve" smooth="yes"/>
    </contour>
  </outline>
</glyph>
<glyph name="sigma" format="1">
  <advance width="601"/>
  <unicode hex="03C3"/>
  <outline>
    <contour>
      <point x="500" y="535"/>
      <point x="407" y="539"/>
      <point x="315" y="539" type="curve" smooth="yes"/>
      <point x="124" y="539"/>
      <point x="35" y="430"/>
      <point x="35" y="266" type="curve"/>
      <point x="35" y="88"/>
      <point x="132" y="-16"/>
      <point x="292" y="-16" type="curve" smooth="yes"/>
      <point x="452" y="-16"/>
      <point x="549" y="96"/>
      <point x="549" y="260" type="curve"/>
      <point x="549" y="360"/>
      <point x="508" y="419"/>
      <point x="447" y="451" type="curve"/>
      <point x="328" y="450" type="line"/>
      <point x="362" y="429"/>
      <point x="393" y="381"/>
      <point x="393" y="260" type="curve"/>
      <point x="393" y="147"/>
      <point x="359" y="95"/>
      <point x="292" y="95" type="curve" smooth="yes"/>
      <point x="225" y="95"/>
      <point x="191" y="146"/>
      <point x="191" y="266" type="curve"/>
      <point x="191" y="402"/>
      <point x="229" y="432"/>
      <point x="352" y="432" type="curve"/>
      <point x="440" y="430" type="line"/>
      <point x="589" y="420" type="line"/>
      <point x="589" y="531" type="line"/>
    </contour>
  </outline>
</glyph>
<glyph name="tau" format="1">
  <advance width="481"/>
  <unicode hex="03C4"/>
  <outline>
    <contour>
      <point x="167" y="435" type="line"/>
      <point x="167" y="155" type="line"/>
      <point x="167" y="49"/>
      <point x="217" y="1"/>
      <point x="316" y="-16" type="curve"/>
      <point x="362" y="94" type="line"/>
      <point x="328" y="107"/>
      <point x="317" y="126"/>
      <point x="317" y="174" type="curve"/>
      <point x="317" y="435" type="line"/>
    </contour>
    <contour>
      <point x="52" y="416"/>
      <point x="65" y="418"/>
      <point x="116" y="418" type="curve"/>
      <point x="480" y="418" type="line"/>
      <point x="480" y="531" type="line"/>
      <point x="138" y="531" type="line"/>
      <point x="64" y="531"/>
      <point x="32" y="524"/>
      <point x="-5" y="509" type="curve"/>
      <point x="21" y="407" type="line"/>
    </contour>
  </outline>
</glyph>
<glyph name="upsilon" format="1">
  <advance width="566"/>
  <unicode hex="03C5"/>
  <outline>
    <contour>
      <point x="343" y="531" type="line"/>
      <point x="360" y="437"/>
      <point x="370" y="342"/>
      <point x="370" y="261" type="curve" smooth="yes"/>
      <point x="370" y="134"/>
      <point x="319" y="95"/>
      <point x="275" y="95" type="curve" smooth="yes"/>
      <point x="237" y="95"/>
      <point x="211" y="119"/>
      <point x="211" y="181" type="curve" smooth="yes"/>
      <point x="211" y="531" type="line"/>
      <point x="61" y="531" type="line"/>
      <point x="61" y="173" type="line" smooth="yes"/>
      <point x="61" y="42"/>
      <point x="154" y="-16"/>
      <point x="264" y="-16" type="curve" smooth="yes"/>
      <point x="390" y="-16"/>
      <point x="520" y="59"/>
      <point x="520" y="249" type="curve" smooth="yes"/>
      <point x="520" y="359"/>
      <point x="507" y="449"/>
      <point x="491" y="531" type="curve"/>
    </contour>
    <contour>
      <point x="281" y="531" type="move" name="top"/>
    </contour>
  </outline>
</glyph>
<glyph name="phi" format="1">
  <advance width="752"/>
  <unicode hex="03C6"/>
  <outline>
    <contour>
      <point x="373" y="547"/>
      <point x="303" y="466"/>
      <point x="303" y="327" type="curve"/>
      <point x="303" y="-221" type="line"/>
      <point x="443" y="-205" type="line"/>
      <point x="443" y="330" type="line"/>
      <point x="443" y="427"/>
      <point x="466" y="445"/>
      <point x="502" y="445" type="curve" smooth="yes"/>
      <point x="546" y="445"/>
      <point x="566" y="411"/>
      <point x="566" y="268" type="curve" smooth="yes"/>
      <point x="566" y="138"/>
      <point x="535" y="93"/>
      <point x="424" y="87" type="curve"/>
      <point x="424" y="-16" type="line"/>
      <point x="619" y="-5"/>
      <point x="712" y="82"/>
      <point x="712" y="270" type="curve" smooth="yes"/>
      <point x="712" y="457"/>
      <point x="639" y="547"/>
      <point x="500" y="547" type="curve" smooth="yes"/>
    </contour>
    <contour>
      <point x="101" y="531" type="line"/>
      <point x="71" y="453"/>
      <point x="40" y="355"/>
      <point x="40" y="242" type="curve" smooth="yes"/>
      <point x="40" y="88"/>
      <point x="127" y="-6"/>
      <point x="325" y="-16" type="curve"/>
      <point x="323" y="86" type="line"/>
      <point x="224" y="93"/>
      <point x="186" y="141"/>
      <point x="186" y="257" type="curve" smooth="yes"/>
      <point x="186" y="356"/>
      <point x="215" y="445"/>
      <point x="244" y="531" type="curve"/>
    </contour>
  </outline>
</glyph>
<glyph name="chi" format="1">
  <advance width="490"/>
  <unicode hex="03C7"/>
  <outline>
    <contour>
      <point x="-20" y="498" type="line"/>
      <point x="46" y="429"/>
      <point x="91" y="349"/>
      <point x="168" y="183" type="curve"/>
      <point x="243" y="66" type="line"/>
      <point x="351" y="-220" type="line"/>
      <point x="501" y="-196" type="line"/>
      <point x="322" y="185" type="line"/>
      <point x="246" y="293" type="line"/>
      <point x="199" y="435"/>
      <point x="173" y="480"/>
      <point x="127" y="544" type="curve"/>
    </contour>
    <contour>
      <point x="246" y="293" type="line"/>
      <point x="168" y="183" type="line"/>
      <point x="-15" y="-203" type="line"/>
      <point x="138" y="-219" type="line"/>
      <point x="243" y="66" type="line"/>
      <point x="322" y="185" type="line"/>
      <point x="480" y="528" type="line"/>
      <point x="326" y="543" type="line" smooth="yes"/>
    </contour>
  </outline>
</glyph>
<glyph name="psi" format="1">
  <advance width="776"/>
  <unicode hex="03C8"/>
  <outline>
    <contour>
      <point x="557" y="531" type="line"/>
      <point x="574" y="437"/>
      <point x="583" y="336"/>
      <point x="583" y="254" type="curve"/>
      <point x="583" y="149"/>
      <point x="541" y="98"/>
      <point x="443" y="91" type="curve"/>
      <point x="442" y="-16" type="line"/>
      <point x="614" y="-7"/>
      <point x="731" y="73"/>
      <point x="731" y="248" type="curve"/>
      <point x="731" y="359"/>
      <point x="719" y="449"/>
      <point x="702" y="531" type="curve"/>
    </contour>
    <contour>
      <point x="55" y="531" type="line"/>
      <point x="55" y="204" type="line" smooth="yes"/>
      <point x="55" y="77"/>
      <point x="146" y="-9"/>
      <point x="342" y="-16" type="curve"/>
      <point x="341" y="90" type="line"/>
      <point x="237" y="95"/>
      <point x="203" y="137"/>
      <point x="203" y="212" type="curve" smooth="yes"/>
      <point x="203" y="531" type="line"/>
    </contour>
    <contour>
      <point x="319" y="531" type="line"/>
      <point x="319" y="-221" type="line"/>
      <point x="461" y="-205" type="line"/>
      <point x="461" y="531" type="line"/>
    </contour>
  </outline>
</glyph>
<glyph name="omega" format="1">
  <advance width="775"/>
  <unicode hex="03C9"/>
  <outline>
    <contour>
      <point x="534" y="531" type="line"/>
      <point x="565" y="433"/>
      <point x="587" y="345"/>
      <point x="587" y="254" type="curve" smooth="yes"/>
      <point x="587" y="129"/>
      <point x="555" y="95"/>
      <point x="516" y="95" type="curve" smooth="yes"/>
      <point x="481" y="95"/>
      <point x="457" y="114"/>
      <point x="457" y="186" type="curve"/>
      <point x="457" y="374" type="line"/>
      <point x="318" y="355" type="line"/>
      <point x="318" y="186" type="line" smooth="yes"/>
      <point x="318" y="108"/>
      <point x="293" y="95"/>
      <point x="259" y="95" type="curve" smooth="yes"/>
      <point x="213" y="95"/>
      <point x="188" y="138"/>
      <point x="188" y="259" type="curve" smooth="yes"/>
      <point x="188" y="346"/>
      <point x="208" y="433"/>
      <point x="240" y="531" type="curve"/>
      <point x="103" y="531" type="line"/>
      <point x="69" y="455"/>
      <point x="40" y="360"/>
      <point x="40" y="242" type="curve" smooth="yes"/>
      <point x="40" y="60"/>
      <point x="122" y="-16"/>
      <point x="235" y="-16" type="curve" smooth="yes"/>
      <point x="319" y="-16"/>
      <point x="366" y="17"/>
      <point x="387" y="104" type="curve"/>
      <point x="405" y="18"/>
      <point x="456" y="-16"/>
      <point x="538" y="-16" type="curve" smooth="yes"/>
      <point x="650" y="-16"/>
      <point x="734" y="63"/>
      <point x="734" y="242" type="curve" smooth="yes"/>
      <point x="734" y="360"/>
      <point x="705" y="455"/>
      <point x="671" y="531" type="curve"/>
    </contour>
    <contour>
      <point x="387" y="531" type="move" name="top"/>
    </contour>
  </outline>
</glyph>
<glyph name="uni0402" format="1">
  <advance width="746.0"/>
  <unicode hex="0402"/>
  <outline>
    <contour>
      <point x="10" y="693" type="line"/>
      <point x="10" y="574" type="line"/>
      <point x="191" y="574" type="line"/>
      <point x="191" y="0" type="line"/>
      <point x="346" y="0" type="line"/>
      <point x="346" y="574" type="line"/>
      <point x="519" y="574" type="line"/>
      <point x="535" y="693" type="line"/>
    </contour>
    <contour>
      <point x="429" y="468"/>
      <point x="377" y="443"/>
      <point x="335" y="400" type="curve"/>
      <point x="336" y="292" type="line"/>
      <point x="366" y="328"/>
      <point x="402" y="351"/>
      <point x="461" y="351" type="curve" smooth="yes"/>
      <point x="533" y="351"/>
      <point x="563" y="312"/>
      <point x="563" y="229" type="curve" smooth="yes"/>
      <point x="563" y="110" type="line" smooth="yes"/>
      <point x="563" y="26"/>
      <point x="550" y="-20"/>
      <point x="460" y="-55" type="curve"/>
      <point x="501" y="-165" type="line"/>
      <point x="618" y="-128"/>
      <point x="719" y="-67"/>
      <point x="719" y="104" type="curve" smooth="yes"/>
      <point x="719" y="230" type="line" smooth="yes"/>
      <point x="719" y="378"/>
      <point x="642" y="468"/>
      <point x="503" y="468" type="curve" smooth="yes"/>
    </contour>
  </outline>
</glyph>
<glyph name="uni0404" format="1">
  <advance width="573"/>
  <unicode hex="0404"/>
  <outline>
    <contour>
      <point x="169" y="709"/>
      <point x="36" y="580"/>
      <point x="36" y="348" type="curve" smooth="yes"/>
      <point x="36" y="111"/>
      <point x="161" y="-16"/>
      <point x="343" y="-16" type="curve" smooth="yes"/>
      <point x="444" y="-16"/>
      <point x="519" y="26"/>
      <point x="564" y="72" type="curve"/>
      <point x="495" y="160" type="line"/>
      <point x="456" y="129"/>
      <point x="414" y="101"/>
      <point x="353" y="101" type="curve" smooth="yes"/>
      <point x="264" y="101"/>
      <point x="195" y="172"/>
      <point x="195" y="320" type="curve"/>
      <point x="194" y="387" type="line"/>
      <point x="198" y="531"/>
      <point x="266" y="595"/>
      <point x="352" y="595" type="curve" smooth="yes"/>
      <point x="399" y="595"/>
      <point x="439" y="578"/>
      <point x="480" y="544" type="curve"/>
      <point x="556" y="633" type="line"/>
      <point x="498" y="681"/>
      <point x="436" y="709"/>
      <point x="345" y="709" type="curve" smooth="yes"/>
    </contour>
    <contour>
      <point x="179" y="410" type="line"/>
      <point x="178" y="300" type="line"/>
      <point x="436" y="300" type="line"/>
      <point x="436" y="410" type="line"/>
    </contour>
  </outline>
</glyph>
<glyph name="uni0409" format="1">
  <advance width="928.0"/>
  <unicode hex="0409"/>
  <outline>
    <contour>
      <point x="415" y="662" type="line"/>
      <point x="415" y="0" type="line"/>
      <point x="640" y="0" type="line" smooth="yes"/>
      <point x="797" y="0"/>
      <point x="911" y="71"/>
      <point x="911" y="233" type="curve" smooth="yes"/>
      <point x="911" y="383"/>
      <point x="809" y="454"/>
      <point x="636" y="454" type="curve" smooth="yes"/>
      <point x="555" y="454" type="line"/>
      <point x="555" y="345" type="line"/>
      <point x="624" y="345" type="line" smooth="yes"/>
      <point x="708" y="345"/>
      <point x="748" y="309"/>
      <point x="748" y="231" type="curve" smooth="yes"/>
      <point x="748" y="146"/>
      <point x="703" y="114"/>
      <point x="629" y="114" type="curve" smooth="yes"/>
      <point x="571" y="114" type="line"/>
      <point x="571" y="693" type="line"/>
    </contour>
    <contour>
      <point x="105" y="337" type="line"/>
      <point x="85" y="171"/>
      <point x="76" y="123"/>
      <point x="4" y="94" type="curve"/>
      <point x="40" y="-16" type="line"/>
      <point x="186" y="17"/>
      <point x="226" y="104"/>
      <point x="252" y="332" type="curve" smooth="yes"/>
      <point x="280" y="579" type="line"/>
      <point x="147" y="693" type="line"/>
    </contour>
    <contour>
      <point x="147" y="693" type="line"/>
      <point x="243" y="573" type="line"/>
      <point x="415" y="573" type="line"/>
      <point x="571" y="693" type="line"/>
    </contour>
  </outline>
</glyph>
<glyph name="uni040A" format="1">
  <advance width="951"/>
  <unicode hex="040A"/>
  <outline>
    <contour>
      <point x="69" y="693" type="line"/>
      <point x="69" y="0" type="line"/>
      <point x="225" y="0" type="line"/>
      <point x="225" y="328" type="line"/>
      <point x="451" y="328" type="line"/>
      <point x="451" y="440" type="line"/>
      <point x="225" y="440" type="line"/>
      <point x="225" y="693" type="line"/>
    </contour>
    <contour>
      <point x="438" y="693" type="line"/>
      <point x="438" y="0" type="line"/>
      <point x="665" y="0" type="line" smooth="yes"/>
      <point x="821" y="0"/>
      <point x="934" y="69"/>
      <point x="934" y="226" type="curve" smooth="yes"/>
      <point x="934" y="368"/>
      <point x="829" y="440"/>
      <point x="658" y="440" type="curve" smooth="yes"/>
      <point x="578" y="440" type="line"/>
      <point x="578" y="328" type="line"/>
      <point x="650" y="328" type="line" smooth="yes"/>
      <point x="731" y="328"/>
      <point x="771" y="297"/>
      <point x="771" y="224" type="curve" smooth="yes"/>
      <point x="771" y="145"/>
      <point x="727" y="114"/>
      <point x="656" y="114" type="curve" smooth="yes"/>
      <point x="594" y="114" type="line"/>
      <point x="594" y="693" type="line"/>
    </contour>
  </outline>
</glyph>
<glyph name="uni040B" format="1">
  <advance width="746.0"/>
  <unicode hex="040B"/>
  <outline>
    <contour>
      <point x="10" y="693" type="line"/>
      <point x="10" y="574" type="line"/>
      <point x="519" y="574" type="line"/>
      <point x="535" y="693" type="line"/>
    </contour>
    <contour>
      <point x="429" y="468"/>
      <point x="377" y="443"/>
      <point x="335" y="400" type="curve"/>
      <point x="336" y="292" type="line"/>
      <point x="366" y="328"/>
      <point x="402" y="351"/>
      <point x="461" y="351" type="curve" smooth="yes"/>
      <point x="533" y="351"/>
      <point x="563" y="312"/>
      <point x="563" y="229" type="curve" smooth="yes"/>
      <point x="563" y="0" type="line"/>
      <point x="719" y="0" type="line"/>
      <point x="719" y="230" type="line" smooth="yes"/>
      <point x="719" y="378"/>
      <point x="642" y="468"/>
      <point x="503" y="468" type="curve" smooth="yes"/>
    </contour>
    <contour>
      <point x="191" y="687" type="line"/>
      <point x="191" y="0" type="line"/>
      <point x="346" y="0" type="line"/>
      <point x="346" y="687" type="line"/>
    </contour>
  </outline>
</glyph>
<glyph name="uni0411" format="1">
  <advance width="594"/>
  <unicode hex="0411"/>
  <outline>
    <contour>
      <point x="69" y="693" type="line"/>
      <point x="69" y="0" type="line"/>
      <point x="303" y="0" type="line" smooth="yes"/>
      <point x="461" y="0"/>
      <point x="575" y="71"/>
      <point x="575" y="228" type="curve" smooth="yes"/>
      <point x="575" y="373"/>
      <point x="472" y="444"/>
      <point x="301" y="444" type="curve" smooth="yes"/>
      <point x="209" y="444" type="line"/>
      <point x="209" y="335" type="line"/>
      <point x="289" y="335" type="line" smooth="yes"/>
      <point x="372" y="335"/>
      <point x="412" y="299"/>
      <point x="412" y="226" type="curve" smooth="yes"/>
      <point x="412" y="146"/>
      <point x="367" y="114"/>
      <point x="292" y="114" type="curve" smooth="yes"/>
      <point x="225" y="114" type="line"/>
      <point x="225" y="683" type="line"/>
    </contour>
    <contour>
      <point x="69" y="693" type="line"/>
      <point x="209" y="574" type="line"/>
      <point x="478" y="574" type="line"/>
      <point x="495" y="693" type="line"/>
    </contour>
  </outline>
</glyph>
<glyph name="uni0413" format="1">
  <advance width="510"/>
  <unicode hex="0413"/>
  <outline>
    <contour>
      <point x="69" y="0" type="line"/>
      <point x="225" y="0" type="line"/>
      <point x="225" y="602" type="line"/>
      <point x="69" y="693" type="line"/>
    </contour>
    <contour>
      <point x="69" y="693" type="line"/>
      <point x="209" y="569" type="line"/>
      <point x="491" y="569" type="line"/>
      <point x="508" y="693" type="line"/>
    </contour>
    <contour>
      <point x="300" y="693" type="move" name="top"/>
    </contour>
    <contour>
      <point x="235" y="0" type="move" name="bottomright"/>
    </contour>
  </outline>
</glyph>
<glyph name="uni0414" format="1">
  <advance width="628"/>
  <unicode hex="0414"/>
  <outline>
    <contour>
      <point x="153" y="693" type="line"/>
      <point x="126" y="477" type="line" smooth="yes"/>
      <point x="96" y="239"/>
      <point x="80" y="168"/>
      <point x="38" y="120" type="curve"/>
      <point x="38" y="0" type="line"/>
      <point x="550" y="0" type="line"/>
      <point x="550" y="693" type="line"/>
    </contour>
    <contour>
      <point x="399" y="120" type="line"/>
      <point x="161" y="120" type="line"/>
      <point x="226" y="172"/>
      <point x="251" y="257"/>
      <point x="275" y="489" type="curve" smooth="yes"/>
      <point x="284" y="577" type="line"/>
      <point x="399" y="577" type="line"/>
    </contour>
    <contour>
      <point x="436" y="120" type="line"/>
      <point x="437" y="0" type="line"/>
      <point x="484" y="0" type="line"/>
      <point x="502" y="-164" type="line"/>
      <point x="611" y="-164" type="line"/>
      <point x="611" y="120" type="line"/>
    </contour>
    <contour>
      <point x="162" y="120" type="line"/>
      <point x="-13" y="120" type="line"/>
      <point x="-13" y="-164" type="line"/>
      <point x="96" y="-164" type="line"/>
      <point x="114" y="0" type="line"/>
      <point x="161" y="0" type="line"/>
    </contour>
  </outline>
</glyph>
